<svg id="Capa_1" data-name="Capa 1" xmlns="http://www.w3.org/2000/svg" viewBox="0 0 299.33 610.53"><defs><style>.cls-1{fill:#323334;}.cls-2{fill:#1e1f1f;}.cls-3{fill:#3b3c3d;}.cls-4{fill:#3c3d3d;}.cls-5{fill:#242526;}.cls-6{fill:#212222;}.cls-7{fill:#3f4142;}.cls-8{fill:#48494b;}.cls-9{fill:#454647;}.cls-10{fill:#767777;}.cls-11{fill:#3d3e3f;}.cls-12{fill:#424344;}.cls-13{fill:#343436;}.cls-14{fill:#8c8c8c;}.cls-15{fill:#3e4041;}.cls-16{fill:#949595;}.cls-17{fill:#828383;}.cls-18{fill:#5e5f5f;}.cls-19{fill:#252526;}.cls-20{fill:#2f2f32;}.cls-21{fill:#2c2d2f;}.cls-22{fill:#2c2d2e;}.cls-23{fill:#232325;}.cls-24{fill:#2b2b2d;}.cls-25{fill:#313133;}.cls-26{fill:#494a4b;}.cls-27{fill:#454648;}.cls-28{fill:#3f4042;}.cls-29{fill:#3a3b3c;}.cls-30{fill:#373839;}.cls-31{fill:#2a2a2b;}.cls-32{fill:#787878;}.cls-33{fill:#333435;}.cls-34{fill:#313233;}.cls-35{fill:#38383a;}.cls-36{fill:#4e4f51;}.cls-37{fill:#545556;}.cls-38{fill:#363737;}.cls-39{fill:#2f3032;}.cls-40{fill:#27272b;}.cls-41{fill:#28282c;}.cls-42{fill:#37383b;}.cls-43{fill:#343537;}.cls-44{fill:#323235;}.cls-45{fill:#2c2c2f;}.cls-46{fill:#606060;}.cls-47{fill:#242527;}.cls-48{fill:#424242;}.cls-49{fill:#4d4d4e;}.cls-50{fill:#2a2a2c;}.cls-51{fill:#27272a;}.cls-52{fill:#525252;}.cls-53{fill:#3b3b3b;}.cls-54{fill:#393a3a;}.cls-55{fill:#474848;}.cls-56{fill:#525353;}.cls-57{fill:#262728;}.cls-58{fill:#242425;}.cls-59{fill:#3c3d3e;}.cls-60{fill:#2d2d30;}.cls-61{fill:#525354;}.cls-62{fill:#4f5051;}.cls-63{fill:#47474a;}.cls-64{fill:#28282a;}.cls-65{fill:#404142;}.cls-66{fill:#29292b;}.cls-67{fill:#1e1e22;}.cls-68{fill:#1a1a1b;}.cls-69{fill:#151516;}.cls-70{fill:#303031;}.cls-71{fill:#2b2b2c;}.cls-72{fill:#7e7e7e;}.cls-73{fill:#a0b2a2;}.cls-74{fill:#191919;}.cls-75{fill:#4f4f50;}.cls-76{fill:#090809;}.cls-77{fill:#2b2b2b;}.cls-78{fill:#131413;}.cls-79{fill:#a3b5a5;}.cls-80{fill:#6a756b;}.cls-81{fill:#202121;}.cls-82{fill:#191a1e;}.cls-83{fill:#151519;}.cls-84{fill:#171818;}.cls-85{fill:#545455;}.cls-86{fill:#040404;}.cls-87{fill:#100f0f;}.cls-88{fill:#1b1b1c;}.cls-89{fill:#6c6d6f;}.cls-90{fill:#121112;}.cls-91{fill:#101014;}.cls-92{fill:#626364;}.cls-93{fill:#778078;}.cls-94{fill:#3c3d3f;}.cls-95{fill:#333437;}.cls-96{fill:#242428;}.cls-97{fill:#2d2e31;}.cls-98{fill:#a4b5a6;}.cls-99{fill:#808782;}.cls-100{fill:#b9c4ba;}.cls-101{fill:#58595c;}.cls-102{fill:#424445;}.cls-103{fill:#4a4b4c;}.cls-104{fill:#313235;}.cls-105{fill:#2c2d30;}.cls-106{fill:#828982;}.cls-107{fill:#202124;}.cls-108{fill:#797f79;}.cls-109{fill:#2c2c2c;}.cls-110{fill:#bbc8bd;}.cls-111{fill:#818a83;}.cls-112{fill:#555658;}.cls-113{fill:#626466;}.cls-114{fill:#5f6062;}.cls-115{fill:#1b1b1b;}.cls-116{fill:#19191f;}.cls-117{fill:#3f4040;}.cls-118{fill:#636364;}.cls-119{fill:#5b5b5b;}.cls-120{fill:#484848;}.cls-121{fill:#535454;}.cls-122{fill:#4d4e4e;}.cls-123{fill:#272728;}.cls-124{fill:#030303;}.cls-125{fill:#959595;}.cls-126{fill:#626263;}.cls-127{fill:#070707;}.cls-128{fill:#3d3d3d;}.cls-129{fill:#313336;}.cls-130{fill:#2f3d59;}.cls-131{fill:#3b4965;}.cls-132{fill:#222;}.cls-133{fill:#fefefe;}.cls-134{fill:#0e0d0d;}.cls-135{fill:#010101;}.cls-136{fill:#0e0e0e;}.cls-137{fill:#8b8b8b;}.cls-138{fill:#d6d6d6;}.cls-139{fill:#e5e5e5;}.cls-140{fill:#2a2a2a;}.cls-141{fill:#1f1f1f;}.cls-142{fill:#aeaeae;}.cls-143{fill:#111;}.cls-144{fill:#a8a8a8;}.cls-145{fill:#b2b2b2;}.cls-146{fill:#242424;}.cls-147{fill:#969696;}.cls-148{fill:#2d2d2d;}.cls-149{fill:#cacaca;}.cls-150{fill:#434343;}.cls-151{fill:#565656;}.cls-152{fill:#090909;}.cls-153{fill:#363636;}.cls-154{fill:#979797;}.cls-155{fill:#7d7d7d;}.cls-156{fill:#6b6b6b;}.cls-157{fill:gray;}.cls-158{fill:#a1a1a1;}.cls-159{fill:#636363;}.cls-160{fill:#686868;}.cls-161{fill:#878787;}.cls-162{fill:#707070;}.cls-163{fill:#7b7b7b;}.cls-164{fill:#595959;}.cls-165{fill:#494949;}.cls-166{fill:#fbfbfb;}.cls-167{fill:#afafaf;}.cls-168{fill:#292929;}.cls-169{fill:#272727;}.cls-170{fill:#dedede;}.cls-171{fill:#6e6e6e;}.cls-172{fill:#3c3c3c;}.cls-173{fill:#060606;}</style></defs><path class="cls-1" d="M460.7,84.51c1,1.89.45,3.91.45,5.86q0,196.88,0,393.74c0,5.34.56,10.71-.35,16a2.64,2.64,0,0,1-1.05-1.83c-.16-3.56-.75-7.15.54-10.65.06-19.15,0-38.31,0-57.46q0-78.92,0-157.84,0,78.87,0,157.75c-.07,19.22.16,38.45-.11,57.68a1.84,1.84,0,0,1-2.68.08c-1.37-2-.85-4.36-.85-6.56q0-106.08,0-212.16,0-93,0-185.92c0-12-1.28-23.91-.64-35.85,1.15-21.83.3-43.66.82-65.48a3.4,3.4,0,0,1,.53-1.34,1.36,1.36,0,0,1,1.23-.51c1.81.47,2.15,1.84,2.15,3.46,0,15.58.64,31.21-.29,46.74-.43,7.1-1.26,14.32-1.66,21.45-.47,8.38-.06,16.86.15,24.36.13-8.1-.52-17.13,0-26.15.07-1.32-.24-3.14,1.69-3.77a4,4,0,0,1,1.09,3.45c-1.58,9.84,0,19.68-.16,29.52a9.77,9.77,0,0,1-.77,4.74,1,1,0,0,1,0,.67c-.79,1.41-.38,2.94-.38,4.41q0,87.7,0,175.42c0,1.35.28,2.73,0,3.36,0-.52,0-1.75,0-3q0-88.1,0-176.18C460.35,87.21,460,85.8,460.7,84.51Z" transform="translate(-162.97 72.23)"/><path class="cls-2" d="M460.49,498.57l.32,1.57-.12,1.3c-.85,1.26,0,2.79-.65,4.09-.76,2.38-1.52,4.77-2.27,7.15-1,2.08-2,4.15-3,6.19C447.6,531,436.66,537.76,422.88,538c-31.31.55-62.64.18-94,.19a4.33,4.33,0,0,1-3.18-.78c-4.83-.81-9.69-.17-14.54-.35-1.89-.08-2.81-.48-1-2.21a28.36,28.36,0,0,1,8.16-.73h99.09c2,0,4,.07,6-.11,9.73-1.66,18.16-5.68,24.47-13.53,3.91-4,5.19-9.42,7.9-14.07,1.88-.88,2.37-2.51,2.54-4.43C458.42,500.55,458.1,498.62,460.49,498.57Z" transform="translate(-162.97 72.23)"/><path class="cls-3" d="M309.27-72.06l84.57-.13c9.49,0,19-.11,28.45,0,15.57.27,31.21,11.53,35.55,25.38-.21,1.69.07,3.56-1.64,4.73-2.89-1-2.07-4.44-3.95-6.12-5.65-9.68-13.5-16.53-24.71-18.82a59.29,59.29,0,0,0-11.46-1.22c-10.2-.09-20.4.36-30.59-.24-2.61-1.49-5.45-1.14-8.26-1-4.27.2-8.58-.53-12.8.71a3.73,3.73,0,0,1-1.2-.26,10.56,10.56,0,0,0-5.46-1c-10.44.67-20.88.22-31.31.17-4.79,0-9.57-.32-14.36-.09C310.7-69.8,309.3-70.16,309.27-72.06Z" transform="translate(-162.97 72.23)"/><path class="cls-4" d="M165.17,503c-1.06-2.77-.63-5.67-.63-8.51q0-177.42,0-354.83c0-3.41.46-6.89-1.35-10.06.62-2.06,0-4.19.41-6.26.39-1.81,0-3.65.29-5.46.13-1,.09-2.53,1.86-1.28.87,1.64.6,3.42.6,5.15q0,57.48,0,115c0,1.47-.39,3,.52,4.38,1.27,5.62,2.06,11.25-.42,16.78-1.68-2.08-.5-4.5-.74-6.74-.21-2,0-4-.16-6,.59,4.18-.47,8.44.44,12.6a1.89,1.89,0,0,1,.46,1.23c0,14-.47,28.07.22,42.1a2.26,2.26,0,0,1-.76,3.06c-.59,10.08-.09,20.17-.28,30.25,0,1.32.41,2.71,0,3.41.17-10.72-.11-22,.13-33.27,1.24-.88,1.48.24,1.73,1a14.24,14.24,0,0,1,.34,4.37c0,.68,0,1.36,0,2,0,2.46,0,4.92,0,7.38,0,.69,0,1.39,0,2.08q0,19.79,0,39.57c-.22,2.33.52,4.78-.81,7a.86.86,0,0,1-1.23-.05c-.29-8,0-16-.14-22.75.31,8-.09,17.19.51,26.47.7,10.7.18,21.47.16,32.21,0,4.36.32,8.74-.64,13.06-.06.25,0,.49-.27.65.32.08.41,0,.32-.28a1.45,1.45,0,0,1,0-.75,2.77,2.77,0,0,1,1.28-2.11c1.62,2,2.06,11.47.61,13.5-.28.38-.66.15-1,.07a6.1,6.1,0,0,1-.38-.6c-.24-.33-.25-.27-.22.13.63,8.31.25,16.63.29,24.95.06,11.8,0,23.6,0,35.4-.09,4.73.44,9.47-.36,14.18A2.21,2.21,0,0,1,165.17,503Z" transform="translate(-162.97 72.23)"/><path class="cls-5" d="M424.71,534.44c-1.24,1.28-2.83.72-4.25.72q-52,0-103.91,0c-2.19,0-4.36,1.21-6.55.08-1.75,1.26-3.78,1.09-5.77,1.09-20.11,0-40.22-.18-60.33.1-9.44.13-18.93-.63-28.35,1a20.57,20.57,0,0,1-7.06-.33c-3.63-.69-7.29.37-11,.33C180.92,534.83,166,519,165.17,503h.33c1.93-.12,2.2,1.61,3,2.72,1.34,1.86,1.76,4.26,3.41,6,1.73,2.74,3.38,5.53,5.37,8.09,5.92,6.74,12.85,11.76,21.94,13.29a28.15,28.15,0,0,0,4.84.34q48.66,0,97.35,0H416.73c2,0,4-.08,6,.09A3,3,0,0,1,424.71,534.44Z" transform="translate(-162.97 72.23)"/><path class="cls-6" d="M197.54,537.33l-.24-.71c4.21.52,8.24-2.54,12.63-.3,2.49,1.27,5.63.69,8-.21,5.13-1.93,10.26-.2,15.37-.71a75.51,75.51,0,0,1,7.72-.26c23,.08,46,.05,68.95.05-.67,1.67.48,1.5,1.5,1.49,3.58,0,7.17,0,10.75,0,1.19,0,2.51-.4,3.49.71-40.24,1-80.48.81-120.72.76a4.55,4.55,0,0,1-.74-.11c-1.74-.7-3.65.2-5.37-.58Z" transform="translate(-162.97 72.23)"/><path class="cls-7" d="M309.27-72.06a2.46,2.46,0,0,0,2.46,1.37c15.27-1,30.56.94,45.85-.32,2-.16,4.84-.72,6.4,1.83-1.55,1.49-3.52,1-5.34,1q-26.17,0-52.36,0c-.68,0-1.36,0-2,0-3.35-.1-6.71.08-10.07-.13a5.53,5.53,0,0,1-1.13-.23c-1.17.21-2.06-2.35-3.43-.35a2.84,2.84,0,0,1-1.63.14c-4.74-1.67-9.48-.93-14.23,0a4.07,4.07,0,0,1-1.21-.17c-4-1.34-8.14-.56-12.17-.65-12-.27-24.09-.6-36.13-.17-3.73.14-7.38-1.08-11.16-.49a2.22,2.22,0,0,1-2.76-1.89h84c2.74,1,5.47.17,8.21,0Z" transform="translate(-162.97 72.23)"/><path class="cls-8" d="M168.77-49.07c6-12.48,15.75-20.1,29.53-22.35,1.41,1,4.21-.63,4.59,2.38a3.81,3.81,0,0,1-1.74,1.19c-12.54,2.34-22.28,8.53-28,20.27-.51,1-.85,2.43-2.48,2.4C169.33-46.14,169.23-47.7,168.77-49.07Z" transform="translate(-162.97 72.23)"/><path class="cls-9" d="M202.8-69.18c-1.16-.83-2.3-1.52-3.87-1.08s-.74-.59-.63-1.16a.42.42,0,0,1,.6-.06c1.47-.74,3.14.09,4.63-.57h6.79a5.78,5.78,0,0,0,4.53.81c4.53-.78,9,.56,13.69.3,10.09-.56,20.26.2,30.39.22,3.56,0,7.08,1.18,10.69.11a3.56,3.56,0,0,1,3.65,1.44c-1.3,1.32-3,1-4.59,1q-30.65,0-61.29,0C205.8-68.14,204.1-67.86,202.8-69.18Z" transform="translate(-162.97 72.23)"/><path class="cls-10" d="M460.75,83.85c.59-9-.83-18-.95-27-.05-3.55,2.41-6.89.69-10.49-1.85-4.45-.85-9-.53-13.55.07-1,.37-1.93.37-2.93v-47a5.12,5.12,0,0,0-.31-2.19c-.93-3.08-.33-6.23-.45-9.35.11-2.36-.68-4.88,1.25-6.91.9,1.63.55,3.42.56,5.14,0,20.37-.06,40.73,0,61.1.07,16.3,1.1,32.58.85,48.88C462.24,81.24,462.32,82.79,460.75,83.85Z" transform="translate(-162.97 72.23)"/><path class="cls-11" d="M163.19,49.24c2.67-9.36.82-18.93,1.33-28.39-2.09-3.68-.7-7.37-.05-11.06a5.83,5.83,0,0,0,.11-4.51A10.68,10.68,0,0,1,164.37,4c1.18-7.67.3-15.4.6-23.09a1.17,1.17,0,0,1,.78-1,1.83,1.83,0,0,1,1.87.49c-.11,6.31,1.17,12.52.56,19-.48,5.19.51,10.64,0,16-.32,3.61-.35,7.22-.39,10.83,0,1.48.21,3-.79,4.33-.71.3-1.16.11-1.25-.7-.14.4.1.74.17,1.11.79,4,.27,8.11.37,12.17.08,3.32,0,6.64.24,10a1.53,1.53,0,0,1-.69,1C163,53.52,163.93,50.91,163.19,49.24Z" transform="translate(-162.97 72.23)"/><path class="cls-12" d="M165.32-19.7l-.06,24.85c-2-.33-2.07-1.55-1.45-3.1,1.12-1.14.71-2.58.71-3.9,0-9.94-.08-19.88.07-29.82.08-6.07.94-12,4.18-17.4,1.47.89,1.8,2.31,1.79,3.88,0,.16-.07.31-.11.47-.66,1.35-.47,2.81-.56,4.24a9.46,9.46,0,0,1-.25,1.49,10.75,10.75,0,0,0-.37,3.52,4.34,4.34,0,0,1-.15,1.81c-.62,1.32-.12,1.67,1.14,1.54a4.41,4.41,0,0,1,0,4,2.36,2.36,0,0,1-1.41.94c-.52.12-1.05.17-1.57.26-1.6.65-.85,2.06-1,3.15C166.12-22.39,166.48-20.87,165.32-19.7Z" transform="translate(-162.97 72.23)"/><path class="cls-13" d="M460.82-35.58c-.09,2.32-.19,4.64-.28,7a1.88,1.88,0,0,1-2.67,1,1.86,1.86,0,0,1-.72-.8,8.65,8.65,0,0,1-.39-2.72c0-.55,0-1.1,0-1.66,0-1.66.19-3.36-.59-4.94-.46-1.51-1.26-3,.06-4.5.59-1.51.35-3.32,1.65-4.57A27.92,27.92,0,0,1,460.82-35.58Z" transform="translate(-162.97 72.23)"/><path class="cls-14" d="M163.19,49.24l2.13,4.55c1.91,3.11,1.21,6.55.76,9.75a83.69,83.69,0,0,0-1.27,13.59c0,1.38.34,3.08-1.59,3.71Z" transform="translate(-162.97 72.23)"/><path class="cls-15" d="M163.22,80.84c1.61-4.55.07-9.38,1.29-14,1.11-4.25.73-8.68.81-13h.74c2.14,3.87,1.3,8.12.87,12.05-.83,7.48-.31,14.93-.57,22.39-.05,1.6.2,3.25-.5,4.79a.9.9,0,0,1-1.19.49C164.18,89.29,165.35,84.88,163.22,80.84Z" transform="translate(-162.97 72.23)"/><path class="cls-16" d="M163.86,123.58c-.22,2,.61,4.12-.66,6q0-15.44,0-30.86a1.22,1.22,0,0,1,1.07.53,6.94,6.94,0,0,1,.75,2.43,20.7,20.7,0,0,1,0,9.49C164.29,115.27,164.22,119.44,163.86,123.58Z" transform="translate(-162.97 72.23)"/><path class="cls-17" d="M163.81,2.05a3.07,3.07,0,0,0,1.45,3.1,2.19,2.19,0,0,0,.11.67,4.7,4.7,0,0,1-.05,3.73c-.79,3.73-2.06,7.43-.8,11.3-.37-.32-1-.6-1.07-1C162.71,13.93,163.56,8,163.81,2.05Z" transform="translate(-162.97 72.23)"/><path class="cls-3" d="M302.49-72.06c-2.74.2-5.47,2.46-8.21,0Z" transform="translate(-162.97 72.23)"/><path class="cls-18" d="M163.7,98.88a4.44,4.44,0,0,0-.52-.15c-.78-2.1.81-3.53,1.49-5.22l.62.07c1,.87.91,2,.66,3.11a4.09,4.09,0,0,1-1.75,2Z" transform="translate(-162.97 72.23)"/><path class="cls-19" d="M454.77,518.87a11.71,11.71,0,0,1,3-6.19A11.53,11.53,0,0,1,454.77,518.87Z" transform="translate(-162.97 72.23)"/><path class="cls-5" d="M198.91,537.48c1.79.14,3.68-.62,5.37.58C202.45,538.19,200.62,538.4,198.91,537.48Z" transform="translate(-162.97 72.23)"/><path class="cls-8" d="M203.53-72c-1.43,1.14-3.08.46-4.63.57A8,8,0,0,1,203.53-72Z" transform="translate(-162.97 72.23)"/><path class="cls-19" d="M460,505.53c0-1.4-.62-2.89.65-4.09A6.51,6.51,0,0,1,460,505.53Z" transform="translate(-162.97 72.23)"/><path class="cls-9" d="M457.69-18.93V487.93l-.67.31c-.91.05-1.28-.56-1.58-1.28a27.47,27.47,0,0,1-.29-6.34q0-123,0-246.08,0-107.49,0-215c0-2.24-.08-4.49.12-6.73.52-2.12,1-4.24.19-6.4a17,17,0,0,1,0-5.74c.88-3.65.55-7.33.26-11a5.07,5.07,0,0,1,0-1.23c.68-2.36-.27-4.94,1-7.23A.75.75,0,0,1,457.69-18.93Z" transform="translate(-162.97 72.23)"/><path class="cls-20" d="M457.69-18.93h-.75a1.59,1.59,0,0,0-.73,1.47c.1,8.86-.46,17.7-.17,26.55a25.52,25.52,0,0,0-.61,6.69q0,46.37,0,92.74V266q0,84.84,0,169.68c0,1.74.81,3.8-1.12,5.17-2.37-2.19-1-5.07-1.4-7.63.09-6.48-.15-13,0-19.43.05-5.5,0-11,0-16.51,0-4.8,0-9.59,0-14.39q0-16.86,0-33.72,0-190.65,0-381.28c-.06-1.68.23-3.37-.28-5a55.06,55.06,0,0,0-2.4-7.4c-.87-2.92-3.37-4.93-4.4-7.77-.12-.32-.22-.66-.31-1-.12-2-3.38-2.94-2-5.52,3.82,1.49,5.36,5.15,7.67,8.07a36.83,36.83,0,0,1,2.07,3.49c2.15,5.61,4.08,11.26,3.75,17.4a2.31,2.31,0,0,0,.74,1.93v0a7.52,7.52,0,0,1,0,8.23Z" transform="translate(-162.97 72.23)"/><path class="cls-21" d="M460.7,84.51v185l-.62.06c-.05-1-.13-1.91-.13-2.86q0-89.16,0-178.31c0-1.31-.49-2.78.75-3.88Z" transform="translate(-162.97 72.23)"/><path class="cls-21" d="M459.94,430.21V272c1.08.65.7,1.43.7,2q0,76.81,0,153.61c0,.88-.09,1.75-.14,2.62C460.33,430.53,460.13,430.55,459.94,430.21Z" transform="translate(-162.97 72.23)"/><path class="cls-22" d="M460.55-19.71l-.06,66.07c-2.1,10-1.48,20-.83,30.07.12,1.82.52,3.6-.12,5.41-1.49-.33-1.06-1.4-1.07-2.15-.15-8.8-.09-17.59-.65-26.4a80.35,80.35,0,0,1,.77-18.73c3-17,.43-34.05,1.38-51a4,4,0,0,0-1.53-3.21A1.44,1.44,0,0,1,460.55-19.71Z" transform="translate(-162.97 72.23)"/><path class="cls-19" d="M460.49,498.57c-1.73.88-1.18,2.51-1.31,3.92-.17,2-.44,3.9-3,4.21-1-1.42-.13-2.77.15-4.15a10.75,10.75,0,0,1,.68-1.41c.53-1.4,1.2-2.8,0-4.21a3.57,3.57,0,0,1-.72-1.49c.37-2.51-.22-5.2,1.36-7.5h2.25c.24-.37.43-.35.59.06C460.51,491.52,460.5,495.05,460.49,498.57Z" transform="translate(-162.97 72.23)"/><path class="cls-21" d="M460.53,488a3,3,0,0,0-.59-.06V430.21h.58Q460.52,459.1,460.53,488Z" transform="translate(-162.97 72.23)"/><path class="cls-23" d="M460.55-19.71l-2.11,0h-.75c0-2.74,0-5.49,0-8.23l2.84-.68Q460.54-24.17,460.55-19.71Z" transform="translate(-162.97 72.23)"/><path class="cls-24" d="M424.71,534.44H423.2c-1.29-.72-2.69-.36-4-.36q-59.06,0-118.13,0-47.65,0-95.3-.07c-1.22,0-3.09,1.18-3.76-1.09,2-1.61,4.3-1,6.49-1q105.19,0,210.41,0a22.81,22.81,0,0,0,5.95-.29c2.72-.87,5.44-1.75,8.21-2.43,3.83-.35,6.64-2.56,9.36-5,1.64-1.48,2.82-3.54,5.14-4.18.64,0,.92.49,1.16,1C442.42,528.49,434.58,533.27,424.71,534.44Z" transform="translate(-162.97 72.23)"/><path class="cls-25" d="M448.69,520.93l-.75-.74c-.43-1.1.19-2,.73-2.78a34.66,34.66,0,0,0,5.84-18.69,3.53,3.53,0,0,1,.8-2.43.89.89,0,0,1,1.05-.08c1.11,1.71.72,3.59.6,5.43,0,.19,0,.37,0,.55l-.75,4.51C454.26,511.74,452.41,516.83,448.69,520.93Z" transform="translate(-162.97 72.23)"/><path class="cls-26" d="M452.45-47.44c-2.45-4.18-5-8.31-9-11.21a4,4,0,0,1-2.71-1.09c-5.47-4-11.74-5.93-18.42-6.69-9.62-.46-19.23-.07-28.84-.2a43.77,43.77,0,0,1-5.61-.18c-1.65-.66-3.59-.31-5.11-1.46,0-2.08,1.24-1.18,2.22-.91,10.87,0,21.74-.1,32.6,0,11.68.13,22,3.68,30,12.67a31.66,31.66,0,0,1,5.66,8.29C453.49-47.4,453.12-47.27,452.45-47.44Z" transform="translate(-162.97 72.23)"/><path class="cls-26" d="M305.51-69.18h59.22a53.24,53.24,0,0,1,17.18,0c0,2.45-2.28,1.36-3.38,2.12a6.28,6.28,0,0,1-2.48.06,14.58,14.58,0,0,0-6.57-.09,5,5,0,0,1-1.33-.16c-19.2-.25-38.4,0-57.6-.15C308.77-67.43,306.46-66.54,305.51-69.18Z" transform="translate(-162.97 72.23)"/><path class="cls-7" d="M382-68.43c-3.3-1.58-6.79-.46-10.19-.72-2.34-.17-4.7,0-7.06,0,1.65-1.71,4-1.51,5.85-1.35A69.49,69.49,0,0,0,381-70.67a4.45,4.45,0,0,1,4,1.49c-.82,0-1.71-.13-2.25.75A.59.59,0,0,1,382-68.43Z" transform="translate(-162.97 72.23)"/><path class="cls-9" d="M452.45-47.44l.75-.75c1.91,1.54,1.38,4.31,3,6-.26,1.59.5,3,.76,4.5,1,1.65-.26,3.61.74,5.26v1.49c-1,.43.48,2.48-1.5,2.25C456.49-35.25,454.8-41.41,452.45-47.44Z" transform="translate(-162.97 72.23)"/><path class="cls-27" d="M166.81,428c.09-.09.25-.16.26-.26a45.9,45.9,0,0,0-.26-13.24c-1.47-3.57-.54-7.31-.65-10.95-.33-10.78,0-21.57-.09-32.36a4.29,4.29,0,0,1,.74-3.18v-6.75c.78-1.66.35-3.42.36-5.13q.06-15.85,0-31.72c0-1.21.34-2.49-.36-3.64v-1.5a15.12,15.12,0,0,0,0-7.5v-1.49c.77-1.68.47-3.46.32-5.15-1.29-14.56-.68-29.15-.48-43.71.07-5.32.85-10.7.48-16-1.47-20.67,0-41.37-.84-62a5.25,5.25,0,0,1-.15-1.36c.7-8.31.38-16.62.2-24.92a7.43,7.43,0,0,0-.46-1.13,4.64,4.64,0,0,1-.09-2.31c1.31-2.11.57-4.31.29-6.5a13.11,13.11,0,0,1,.18-3.13c.53-5.68,0-11.37.29-17,.07-1.55-.67-3.64,1.82-4.23,1.52,1.94.78,4.23,1,6.37q0,175.77,0,351.56c0,2.23.3,4.5-.42,6.69a1.37,1.37,0,0,1-1,.82c-1.58-.93-1.34-2.54-1.43-4-.74-11.2-.27-22.41-.33-33.62,0-6.22-.14-12.44-.06-18.65C166.1,430.55,165.7,429.1,166.81,428Z" transform="translate(-162.97 72.23)"/><path class="cls-28" d="M166.82,182.76c1.14,1,.73,2.32.73,3.51q0,40.78,0,81.57c0,12.84,0,25.67,0,38.51,0,1.31.5,2.78-.72,3.89-.34-2,.74-4.16-.76-6-.2-.16-.27-.33-.2-.49s.13-.25.2-.25c.07-.5.84-1,0-1.5-.33-8.54-.29-17.08-.34-25.62,0-6-.28-11.93.33-17.87v-.75h0a37.2,37.2,0,0,0,0-16.5c-.1-6.2-.59-12.39-.3-18.58.16-3.37-.35-6.71-.06-10.07a20.55,20.55,0,0,0,.1-7.5,4.34,4.34,0,0,1,.17-1.3c.19-5.72,0-11.43.1-17.14C166.1,185.34,165.72,183.9,166.82,182.76Z" transform="translate(-162.97 72.23)"/><path class="cls-29" d="M166.81,428c.56,20-.59,40,.74,60a1.6,1.6,0,0,1-2.23,0V422.23C167.33,424.19,166.63,426.19,166.81,428Z" transform="translate(-162.97 72.23)"/><path class="cls-30" d="M166.07,204.51c0,.25,0,.5,0,.75a13.31,13.31,0,0,1,0,6.75c.84,7.51-.76,15.08.65,22.61.39,2.1-.4,4.41-.64,6.63-1.56-.84-.71-2.28-.71-3.39q-.09-60.93-.08-121.86l.4-.3a1.78,1.78,0,0,1,1,0,1.67,1.67,0,0,1,.67.72,5.79,5.79,0,0,1,.13,2.95c-.06.33-.14.65-.23,1a8.48,8.48,0,0,0-.06,4.47c-.78,2,.27,4.14-.27,6.19-.16,5.5.06,11-.45,16.5.28,2,.91,4.08-.37,6v2.24c.88,1.06.73,2.33.73,3.56,0,7,.07,13.89,0,20.84-.05.72-.35,1.4-.34,2.13C166.2,189.69,166.89,197.11,166.07,204.51Z" transform="translate(-162.97 72.23)"/><path class="cls-31" d="M165.32,488h3a1.37,1.37,0,0,1,1.16-.33,1.52,1.52,0,0,1,.91.81,15,15,0,0,1,.07,7.28c-2.41,2.8-.66,5.81-.41,8.75-.29,2.61,2.52,4.71,1.26,7.48-2.9-2.35-2.87-6.61-5.8-8.95Z" transform="translate(-162.97 72.23)"/><path class="cls-30" d="M166.06,416v4.38l-.54,0V341.91h.54V368c.8,2.44.34,4.94.35,7.41,0,12.93.07,25.86,0,38.78A3,3,0,0,1,166.06,416Z" transform="translate(-162.97 72.23)"/><path class="cls-30" d="M166.06,258.5c.32,7.88.53,15.82.22,23.64-.27,6.63,1.72,13.28-.21,19.85-.94-.73-.75-1.78-.75-2.75q0-19,0-38C165.32,260.27,165.13,259.22,166.06,258.5Z" transform="translate(-162.97 72.23)"/><path class="cls-29" d="M166.06,416V368h.75c0,11.13-.08,22.26.05,33.38,0,4.37.55,8.74-.05,13.11A1.52,1.52,0,0,1,166.06,416Z" transform="translate(-162.97 72.23)"/><path class="cls-28" d="M166.82,320.73c.93.73.74,1.77.74,2.75q0,17.49,0,35c0,1,.19,2-.74,2.74Z" transform="translate(-162.97 72.23)"/><path class="cls-30" d="M166.06,303.49v35.95c-1.2-.82-.71-1.8-.72-2.61q-.06-14.93,0-29.85C165.34,305.79,164.92,304.46,166.06,303.49Z" transform="translate(-162.97 72.23)"/><path class="cls-32" d="M163.86,123.58c0-5-.46-9.92.58-14.86A17.29,17.29,0,0,0,164,101a2,2,0,0,1,2.06,1.52c.15,4.52,1.27,9.11-.77,13.51h0C163.52,118.28,165.55,121.28,163.86,123.58Z" transform="translate(-162.97 72.23)"/><path class="cls-30" d="M166.06,257.75c-1.71-4.41-.23-8.93,0-13.4v13.4Z" transform="translate(-162.97 72.23)"/><path class="cls-28" d="M166.82,311.73a8.48,8.48,0,0,1,0,7.5Z" transform="translate(-162.97 72.23)"/><path class="cls-33" d="M202,533c1.26,1.25,2.84.7,4.28.7q47.34,0,94.7,0c.24.16.33.33.24.49s-.16.25-.24.25c-31.57,0-63.14-.16-94.7.09-12.92.1-22.69-5.3-30.5-15.09.25-.46.49-.93,1.11-1,2.26.84,3,3.31,4.91,4.54A34.33,34.33,0,0,0,199,531.8C200.08,532,201.26,532,202,533Z" transform="translate(-162.97 72.23)"/><path class="cls-34" d="M301,534.43v-.74q59,0,117.93,0c1.42,0,3-.57,4.26.72Z" transform="translate(-162.97 72.23)"/><path class="cls-35" d="M176.56,518.69l-.75.74-4.51-7.49c-.47-2.58-2.32-4.76-2.23-7.5.63-.38.06-1.62,1.18-1.65a2.49,2.49,0,0,1,1.27,2.13,30.1,30.1,0,0,0,4.17,10.68C176.26,516.51,177,517.45,176.56,518.69Z" transform="translate(-162.97 72.23)"/><path class="cls-36" d="M305.51-69.18c1.23,1.29,2.82.72,4.24.72,18.41,0,36.82,0,55.23.06,1.43,0,3-.57,4.25.71-1.06,1.15-2.49,1-3.84,1-27.8,0-55.6.07-83.39,0a11.49,11.49,0,0,1-1.86-.17,17.38,17.38,0,0,0-5.92-.54q-33.62,0-67.23,0c-1.93,0-4,.53-5.7-1a1.56,1.56,0,0,1,1.51-.74H274a33.52,33.52,0,0,1,14.24,0h1.5a2.91,2.91,0,0,1,3,0h0a33.72,33.72,0,0,0,11.25,0Z" transform="translate(-162.97 72.23)"/><path class="cls-9" d="M288.26-69.18H274C278.77-71.12,283.52-71.57,288.26-69.18Z" transform="translate(-162.97 72.23)"/><path class="cls-26" d="M304-69.18a17.75,17.75,0,0,1-11.25,0Z" transform="translate(-162.97 72.23)"/><path class="cls-9" d="M292.76-69.18h-3C290.76-71.46,291.76-69.66,292.76-69.18Z" transform="translate(-162.97 72.23)"/><path class="cls-37" d="M201.29-68.44q37.23,0,74.46,0c1.43,0,3-.57,4.26.71-1.67,1.57-3.77,1-5.71,1q-34.8.06-69.59,0a14.91,14.91,0,0,0-4.37.28,10.12,10.12,0,0,1-1.11.32c-13.11,2.29-27.07,13.94-28.77,32.69a1.87,1.87,0,0,1-.7.87c-1.16.84-.29,2.41-1.38,3.64-1.63-2.33.68-4.53-.07-6.61.92-1.11-.13-2.62.75-3.75v-1.49c.79-1.41.23-3.26,1.49-4.51h0c1.28-1.1,1.65-2.73,2.42-4.13C179.18-60.5,188.55-67,201.29-68.44Z" transform="translate(-162.97 72.23)"/><path class="cls-15" d="M166.81,30.55c.25-8.45,1.06-16.94.57-25.35-.39-6.74,1-13.5-.52-20.2a6.2,6.2,0,0,1,.7-4.69l.72-.13a2.67,2.67,0,0,1,.8,1.18c.63,10.3.31,20.63.24,30.94-.08,11.55.2,23.1.05,34.65,0,2.36,0,4.72,0,7.09,0,1.63,0,3.27-.13,4.9a7.25,7.25,0,0,1-.26,1.39c-.81,9.06-.12,18.15-.39,27.21-.07,2.45.58,5-.76,7.32a.86.86,0,0,1-1.27,0c-.74-1.27-.49-2.68-.48-4,.11-8.46-.1-16.92.3-25.38.47-9.7-.53-19.41-.36-29.12C166.05,34.39,165.62,32.35,166.81,30.55Z" transform="translate(-162.97 72.23)"/><path class="cls-38" d="M166.81,30.55V95a4,4,0,0,1,1,2.72q.13,7.8,0,15.58a3.43,3.43,0,0,1-1,2.7h-.75c-.82-3.5-.13-7-.37-10.56-.09-1.33.31-2.69-.3-4a3.36,3.36,0,0,1-.65-1.15,3.7,3.7,0,0,1,.53-3.14c0-1.21,0-2.42,0-3.63-.49-13.28.85-26.52.77-39.79-1.54-6.26-.42-12.63-.72-18.94-.12-2.35,0-4.72,0-7.46C166.52,28.37,165.6,30,166.81,30.55Z" transform="translate(-162.97 72.23)"/><path class="cls-39" d="M166.81-27.94l1.49,0c1.37,2.89,2.06,5.71-.74,8.23h-1.5C166.31-22.44,165.39-25.3,166.81-27.94Z" transform="translate(-162.97 72.23)"/><path class="cls-40" d="M166.81-27.94c-.25,2.75.64,5.6-.75,8.25h-.74c0-2.37,0-4.74,0-7.11C165.25-28,165.65-28.44,166.81-27.94Z" transform="translate(-162.97 72.23)"/><path class="cls-12" d="M165.32,9.55c0-1.24,0-2.49,0-3.73A2.56,2.56,0,0,1,165.32,9.55Z" transform="translate(-162.97 72.23)"/><path class="cls-41" d="M169.76-32.47c0-.24.05-.47.07-.71,2.44.86,1.74,3,1.75,4.68.08,13.55,0,27.1,0,40.65,0,6.46,0,12.93,0,19.39,0,1.6.23,3.25-.7,4.73a.88.88,0,0,1-1.29.18c-1.3-5.13-.66-10.39-.63-15.56.08-13.44,0-26.88.07-40.32.28-2.84-.65-5.78.72-8.53Z" transform="translate(-162.97 72.23)"/><path class="cls-42" d="M169.78-28v8.3a1.18,1.18,0,0,1-.74.4,1.11,1.11,0,0,1-.72-.43h-.76c1.38-2.65.51-5.49.74-8.23Z" transform="translate(-162.97 72.23)"/><path class="cls-8" d="M170.56-45.19a7.2,7.2,0,0,1-1.49,4.51C169.57-42.18,167.85-44.42,170.56-45.19Z" transform="translate(-162.97 72.23)"/><path class="cls-8" d="M169.06-39.19c-.17,1.27.5,2.7-.75,3.75C168.49-36.7,167.82-38.14,169.06-39.19Z" transform="translate(-162.97 72.23)"/><path class="cls-3" d="M457.69-32.43c-1.43-1.59-.47-3.51-.74-5.26C458.37-36.1,457.41-34.18,457.69-32.43Z" transform="translate(-162.97 72.23)"/><path class="cls-3" d="M456.19-28.69l1.5-2.25v3A1.52,1.52,0,0,1,456.19-28.69Z" transform="translate(-162.97 72.23)"/><path class="cls-18" d="M165.3,100.31a6,6,0,0,0,0,.73c.22.21.27.4.17.56s-.19.23-.28.23L164,101c-.09-.7-.18-1.4-.28-2.09l.21-.16C165.24,98.49,164.68,99.91,165.3,100.31Z" transform="translate(-162.97 72.23)"/><path class="cls-15" d="M165.3,100.31l-1.39-1.59c-.07-1,.48-1.39,1.36-1.51Z" transform="translate(-162.97 72.23)"/><path class="cls-43" d="M455.44,8.81c0-8.21,0-16.42,0-24.63,0-1.3-.52-2.77.74-3.86a20.55,20.55,0,0,1,0,8.23v.76a36.52,36.52,0,0,1,0,11.24v6a8.38,8.38,0,0,1,0,5.24l0,222.7a.68.68,0,0,1-1.06-.52c-.1-15.34,0-30.68,0-46v-79.4q0-47.86,0-95.71C455.1,11.5,454.76,10.1,455.44,8.81Z" transform="translate(-162.97 72.23)"/><path class="cls-44" d="M455.45,234.5h.73q0,126.72,0,253.44a1,1,0,0,1-1.25-.44,9.38,9.38,0,0,1-.56-4.42c0-12.62-.28-25.24,0-37.85,1.49-59.7.21-119.41.65-179.1,0-9.33,0-18.65,0-28C455.1,236.93,454.77,235.66,455.45,234.5Z" transform="translate(-162.97 72.23)"/><path class="cls-45" d="M455.45,487.94h2.24a29.35,29.35,0,0,1-.74,8.25l-.37.28-.38-.26v0C453.9,493.62,454.43,490.8,455.45,487.94Z" transform="translate(-162.97 72.23)"/><path class="cls-9" d="M456.2.55V-10.69A17.86,17.86,0,0,1,456.2.55Z" transform="translate(-162.97 72.23)"/><path class="cls-9" d="M456.2-11.45c0-2.74,0-5.49,0-8.23l.73.74C456.6-16.45,457.71-13.82,456.2-11.45Z" transform="translate(-162.97 72.23)"/><path class="cls-9" d="M456.2,11.8V6.56A4.35,4.35,0,0,1,456.2,11.8Z" transform="translate(-162.97 72.23)"/><path class="cls-46" d="M453.93-33.19q0,117.54,0,235.07,0,73.68,0,147.35c-.77,2.8-.15,5.66-.38,8.48-.07.84.43,2.15-1.28,2a3.2,3.2,0,0,1-.67-1.26c-.43-5.61-.24-11.23-.25-16.85q0-185.83,0-371.67a43.49,43.49,0,0,0-1.67-12.17c-.06-1.16-.58-2.53,1.24-2.88a25.2,25.2,0,0,1,2.31,7.42C454.11-36.31,453-34.58,453.93-33.19Z" transform="translate(-162.97 72.23)"/><path class="cls-47" d="M455.45,487.94c.66,2.71-.29,5.57.74,8.25-1.58,2.1-.42,4.55-.85,6.82a39.9,39.9,0,0,1-7.4,17.18c-3.24,2.22-5.35,5.77-8.86,7.69-1.71.93-3.3,2.19-5.42,2,1.13-2.95,4.36-3.38,6.34-5.31,4.92-4.23,7.73-9.74,9.57-15.83,1.94-3.46.93-7.63,2.7-11.11.33-.32,1.14.19,1.08-.13-.94-4.66-.17-9.36-.46-14q0-12,0-24.05c0-4.85,0-9.7,0-14.54,0-1.46-.2-3,1-4.19,1.31-1.38.7-3.1.7-4.65q.06-85,0-170.07c.24-.34.48-.35.72,0Q455.45,377,455.45,487.94Z" transform="translate(-162.97 72.23)"/><path class="cls-24" d="M199.05-66.87l.75-.11c1.39-.61,2.86-.19,4.29-.31,53.53,0,107.06.16,160.59-.09,18.18-.09,36.35.39,54.52.1,1.35,0,2.75-.31,4.06.32,7.78.22,14.39,3.25,20.18,8.31,0,2.31,3,2.88,3,5.22-3-.33-4.58-3.31-7.48-3.78a8.63,8.63,0,0,0-4.56-4.26A36.76,36.76,0,0,0,418.12-65q-105.8.11-211.6,0c-2.35,0-4.76.36-7-.66A.88.88,0,0,1,199.05-66.87Z" transform="translate(-162.97 72.23)"/><path class="cls-48" d="M453.92,413.7q0,9.75,0,19.5a1.24,1.24,0,0,1-1.79-.11,51.65,51.65,0,0,1-1.11-15,35,35,0,0,0,.26-4.29c-.23-1.25-1-.79-.49-.89.11,0,.19,0,.19.12,0,1.55,1.59,3.45-.95,4.46a5,5,0,0,1-.89-3.34q0-19.29,0-38.58c0-1.73-.24-3.5.56-5.16,1.07-1.23,2-1.39,2.7.34a6.49,6.49,0,0,1,.31,2.56c-.13,7.65.78,15.28.47,22.93,0,4.54,0,9.07,0,13.61C453.21,411.15,452.94,412.55,453.92,413.7Z" transform="translate(-162.97 72.23)"/><path class="cls-45" d="M455.44,8.81v99.72c-.24.33-.49.35-.73,0q0-47.92,0-95.85C454.72,11.38,454.22,9.91,455.44,8.81Z" transform="translate(-162.97 72.23)"/><path class="cls-49" d="M452.45,396.46c.51-8.26-1.21-16.46-.76-24.73.05-1,.23-2.19-1.47-1.52-.24-.28-.62-.5-.65-.89-.55-7.4-1-14.79.28-22.17,2.25-1.19,2.12.45,2.21,1.84.21,3.33-.45,6.68.39,10v.75c1,1.16.72,2.59.73,3.94,0,5.11,0,10.23,0,15.35,0,1.35-.26,2.77.72,3.95V397.2C453.07,397.68,452.86,396.86,452.45,396.46Z" transform="translate(-162.97 72.23)"/><path class="cls-50" d="M454.71,108.54h.73V188c-.24.34-.48.34-.73,0Z" transform="translate(-162.97 72.23)"/><path class="cls-51" d="M454.71,188h.73q0,23.25,0,46.49,0,15.75,0,31.5h-.73Z" transform="translate(-162.97 72.23)"/><path class="cls-52" d="M453.92,383c-2.06-.37-1.44-2-1.45-3.25-.05-6.66,0-13.33,0-20,1.51-2,.42-4.23.74-6.34.21-1.39-.5-2.94.73-4.15Z" transform="translate(-162.97 72.23)"/><path class="cls-53" d="M452.44,433.21h1.49l0,7.52q0,9.36,0,18.73a1.31,1.31,0,0,1-1.91-.39c-1.27-4.22-.48-8.56-.67-12.83-.15-3.08-.05-6.16,0-9.24C451.35,435.63,451.34,434.25,452.44,433.21Z" transform="translate(-162.97 72.23)"/><path class="cls-49" d="M450.9-45.13c-.87.52-.66,1.39-.7,2.18.48,2.72,1.18,5.43.23,8.18a1,1,0,0,1-1.13.16c-1.78-2.19-1.62-5-2.29-7.51,0-2.66-1.46-5-1.58-7.62-.05-1-1.09-2.55,1-2.91C447.66-50,450.08-48,450.9-45.13Z" transform="translate(-162.97 72.23)"/><path class="cls-54" d="M446.43-52.65c-.74,2.31.24,4.42.85,6.54a9.94,9.94,0,0,1,.67,3.92c-.13,0-.34.09-.36,0-2.71-4.59-6-8.86-7.17-14.25.32-2,1.45-.88,2.08-.42,1.4,1,2.64,2.24,3.95,3.38Z" transform="translate(-162.97 72.23)"/><path class="cls-55" d="M452.45,396.46l1.47.74v16.5c-2.06-.36-1.44-2-1.45-3.23C452.41,405.8,452.45,401.13,452.45,396.46Z" transform="translate(-162.97 72.23)"/><path class="cls-56" d="M453.93-33.19c-1.32-1.33-.52-3-.72-4.52C454.48-36.36,453.77-34.71,453.93-33.19Z" transform="translate(-162.97 72.23)"/><path class="cls-45" d="M457.69,501.44l-.74.75h0a10.67,10.67,0,0,1,0-6h0l.75.75A6.09,6.09,0,0,1,457.69,501.44Z" transform="translate(-162.97 72.23)"/><path class="cls-57" d="M457.69,501.44c0-1.5,0-3,0-4.5C459.72,498.44,458.28,499.94,457.69,501.44Z" transform="translate(-162.97 72.23)"/><path d="M440.42-56.39A119,119,0,0,1,448-42.19l1.53,7.48c1.49,1.85,1,4.06,1,6.14q0,67.08,0,134.17c0,77.58.33,155.16-.19,232.74-.17,25.33-.23,50.66-.51,76,1.64,26.37.11,52.77.83,79.14a51.16,51.16,0,0,1-.2,8.21c-1.46,8.7-5.19,16.45-10,23.75l-6.78,4.48-7.45,2.27c-1.17.68-2.45.35-3.67.35q-109.87,0-219.75,0a28.72,28.72,0,0,1-16.69-5.63,8.07,8.07,0,0,1-3.23-4c-2.26-4.94-5-9.69-6.69-14.9a27.2,27.2,0,0,1-1.58-9.91c.33-34.39.07-68.78.14-103.17q0-210.93,0-421.87c0-2.63,0-5.25,0-7.86a11.42,11.42,0,0,1,.12-1.3c1.62-8.29,5.91-15.46,9.74-22.82,3.78-4.45,8.88-6.26,14.43-7.16q55.05,0,110.09-.08c36.83,0,73.65,0,110.48-.06a35,35,0,0,1,13.41,2.81C436.38-62.1,439.87-60.73,440.42-56.39Z" transform="translate(-162.97 72.23)"/><path class="cls-58" d="M183.33,521.68c3.86,8.27,11.6,10.14,19.35,10.36,17.84.5,35.69.17,53.54.17l170,0c-1.37,1.36-3.09.73-4.64.73Q311.8,533,202,533a30.52,30.52,0,0,1-21-9.77c-.33-.85.1-1.38.76-1.82A1.43,1.43,0,0,1,183.33,521.68Z" transform="translate(-162.97 72.23)"/><path class="cls-59" d="M456.93,496.2v6c-1.48-1.84-.41-4-.73-6Z" transform="translate(-162.97 72.23)"/><path class="cls-60" d="M423.26-67,203.45-67c-.17-.19-.21-.35-.11-.49a.34.34,0,0,1,.24-.18l76.43,0h90a10.58,10.58,0,0,1,6,0h2.26a23.19,23.19,0,0,1,9,0c10.72,0,21.43,0,32.14,0C420.67-67.64,422.12-68.08,423.26-67Z" transform="translate(-162.97 72.23)"/><path class="cls-36" d="M387.21-67.69h-9c1-1.24,2.49-.56,3.75-.74h.74C384.22-68.18,385.9-69,387.21-67.69Z" transform="translate(-162.97 72.23)"/><path class="cls-36" d="M376-67.69h-6A5.63,5.63,0,0,1,376-67.69Z" transform="translate(-162.97 72.23)"/><path class="cls-61" d="M169.07,488h-.76q0-179.58,0-359.17a.94.94,0,0,1,1.25.45c.74,1.53.54,3.18.54,4.79q0,174.29,0,348.55C170.11,484.41,170.45,486.36,169.07,488Z" transform="translate(-162.97 72.23)"/><path class="cls-62" d="M169.06,128.78h-.74q0-3,0-6c-1.74-2.91-.24-6.1-.76-9.12a13.31,13.31,0,0,1,0-4.71c.29-15.54.51-31.07.4-46.61a4.07,4.07,0,0,1,.35-2.54c0-.25,0-.49,0-.74,2.45.84,1.75,3,1.76,4.67.08,11.82,0,23.64,0,35.47,0,8.33,0,16.67,0,25C170.1,125.78,170.38,127.48,169.06,128.78Z" transform="translate(-162.97 72.23)"/><path class="cls-28" d="M168.3,113c0,3.25,0,6.5,0,9.74-1.57,3.41-.36,7-.75,10.51-.41,3.74.9,7.59-.74,11.24a56.17,56.17,0,0,1,0-14.25,7.87,7.87,0,0,1,0-6,6.13,6.13,0,0,1,0-4.5h0c.79-1.62.19-3.34.4-5C167.3,114.05,166.85,112.93,168.3,113Z" transform="translate(-162.97 72.23)"/><path class="cls-28" d="M166.06,182v-1.5c.87-5.65.13-11.34.4-17,.13-2.58-.43-5.18.35-7.73.82.62.75,1.52.75,2.39,0,6.87,0,13.75,0,20.62a6.56,6.56,0,0,1-.77,3.23Q166.44,182.52,166.06,182Z" transform="translate(-162.97 72.23)"/><path class="cls-3" d="M166.81,155.77c0,7,0,13.92,0,20.88,0,1.3.5,2.76-.73,3.86q0-12.37,0-24.75Z" transform="translate(-162.97 72.23)"/><path class="cls-3" d="M166.06,182h.75c0,.25,0,.5,0,.75,0,6.09,0,12.17,0,18.26,0,1.19.4,2.52-.73,3.49Q166.06,193.26,166.06,182Z" transform="translate(-162.97 72.23)"/><path class="cls-3" d="M166.81,130.27q0,7.13,0,14.25c0,1,0,2,0,3-.25.35-.49.35-.74,0,0-4.59,0-9.17,0-13.76C166.09,132.57,165.67,131.24,166.81,130.27Z" transform="translate(-162.97 72.23)"/><path class="cls-28" d="M166.07,147.52h.74c.57,2.1,2.22,4.34-.74,6Z" transform="translate(-162.97 72.23)"/><path class="cls-3" d="M166.06,212v-6.75A6.78,6.78,0,0,1,166.06,212Z" transform="translate(-162.97 72.23)"/><path class="cls-3" d="M168.3,113c-1.86,2,.38,4.8-1.49,6.75V95h.75c.8,3.65.14,7.35.38,11,.08,1.33-.37,2.71.36,4A2.49,2.49,0,0,0,168.3,113Z" transform="translate(-162.97 72.23)"/><path class="cls-3" d="M165.23,101.83c0-.26.07-.53.11-.79,1.65,4.93.27,10,.72,15l-.78,0Q165.25,108.92,165.23,101.83Z" transform="translate(-162.97 72.23)"/><path class="cls-3" d="M166.81,119.78v4.5A3.41,3.41,0,0,1,166.81,119.78Z" transform="translate(-162.97 72.23)"/><path class="cls-63" d="M169.06,128.78q0-32.75,0-65.47c0-1.43.57-3-.71-4.26V54.54c.72-1.29.36-2.69.36-4q0-33.07,0-66.15c0-1.35-.34-2.74.34-4a5.77,5.77,0,0,1,.72,0q0,28.11.07,56.22c1.57,2,1,4.32,1,6.51q0,94.94,0,189.88,0,62.61,0,125.22,0,44.59,0,89.21c0,11.86,0,23.72,0,35.58,0,1.7.37,3.54-1,5a5.94,5.94,0,0,1-.73,0Q169.06,308.37,169.06,128.78Z" transform="translate(-162.97 72.23)"/><path class="cls-64" d="M169.8,487.92l0-40.48a.91.91,0,0,1,1.22.46,6.25,6.25,0,0,1,.53,2.92c0,15.59.05,31.19,0,46.78a7.63,7.63,0,0,1-.24,1.85c-.26.71-.61,1.33-1.48,1.36a3.67,3.67,0,0,1-.08-4.58Z" transform="translate(-162.97 72.23)"/><path class="cls-65" d="M169.79,496.23l.05,4.45a4.39,4.39,0,0,1-.77,3.76c-.31-2.05-.5-4.12-.94-6.13C167.79,496.75,168.45,496.29,169.79,496.23Z" transform="translate(-162.97 72.23)"/><path class="cls-66" d="M169.82,502.93c0-.75,0-1.5,0-2.25l.72-.74a.76.76,0,0,1,1,0,3.18,3.18,0,0,1,.49.95c.26,3.56,1.67,6.84,2.48,10.27.08.36.49-.15.77-.16,1,.12,1.37.87,1.82,1.57,1.24,3.22,3.8,5.75,4.71,9.13l-.75,1.5c-2.15-.84-2.61-3.38-4.49-4.5C172.93,514,171.37,508.48,169.82,502.93Z" transform="translate(-162.97 72.23)"/><path class="cls-60" d="M171.3,499.94h-.74q0-26.25,0-52.5c-.66-1.3-.33-2.7-.34-4q0-42.57,0-85.15V233q0-96,0-192c0-1.48-.3-3,.29-4.44q0-33.31,0-66.62c0-1.09.32-2.28-.71-3.15,0-14.34,11.94-29.54,26-33,1.08-.27,2.18-.48,3.26-.72,0,.25,0,.5,0,.75-3.49,1.25-7.06,2.34-10.23,4.32-1.33.82-3,1.32-3.37,3.2-2.44,2.68-5.18,5.12-7.11,8.26a36.75,36.75,0,0,0-5.89,20.18q.12,186.48,0,373c0,13.12-.18,26.23-.11,39.35s0,25.94,0,38.9c0,6,0,12,0,18.06,0,5.25,0,10.49,0,15.74,0,3.79,0,7.59,0,11.38q0,8.25,0,16.49c0,4.35,0,8.69,0,13C172.33,497.22,172.55,498.77,171.3,499.94Z" transform="translate(-162.97 72.23)"/><path class="cls-26" d="M203.58-67.66a3.78,3.78,0,0,1-.13.67H199.8C200.9-68.15,202.31-67.53,203.58-67.66Z" transform="translate(-162.97 72.23)"/><path class="cls-62" d="M169.06-19.68q0,35.16,0,70.33c0,1.31.5,2.78-.72,3.89V-19.69Z" transform="translate(-162.97 72.23)"/><path class="cls-28" d="M168.3,110c-1.68-4.93-.27-10-.74-15,0-10.45,0-20.91,0-31.36,0-1.31-.5-2.77.72-3.88Q168.31,84.92,168.3,110Z" transform="translate(-162.97 72.23)"/><path class="cls-67" d="M170.5,36.59q0,98.22,0,196.43c-.21.33-.41.31-.61,0q0-77-.06-154.09,0-21.18,0-42.36A3.5,3.5,0,0,1,170.5,36.59Z" transform="translate(-162.97 72.23)"/><path class="cls-52" d="M450.17-34.65c.07-2.76-.67-5.53,0-8.3,2.05,3.72,2.2,7.85,2.2,11.9q.08,195,.05,390c-1.57-2.79-.38-5.82-.76-8.72-.16-1.24.59-2.89-1.47-3.28-.74-1.29-.37-2.69-.37-4q0-186.75,0-373.52C449.85-31.94,449.53-33.34,450.17-34.65Z" transform="translate(-162.97 72.23)"/><path class="cls-68" d="M449.44,502.93l.05-88.5c.25-.3.49-.31.7,0,0,1,0,2,0,3,1.3,3.06,1,6.35,1.05,9.52.16,9.22.1,18.45,0,27.66-.13,9.46.68,18.95-.89,28.37.51-1.5-.17-3.2.91-5.42,2.74,4.84.63,9.68,1.81,14,0,2,.65,4.18-.65,6.09,0,4.14-.23,8.23-2.25,12C448.48,507.6,449,505.26,449.44,502.93Z" transform="translate(-162.97 72.23)"/><path class="cls-69" d="M449.44,502.93l.75,6.75a31.46,31.46,0,0,1-9.75,15.75c.15-1,0-2.18.48-2.87C445.33,516.68,447.37,509.81,449.44,502.93Z" transform="translate(-162.97 72.23)"/><path class="cls-70" d="M452.45,459.45h1.49v24.74c-2-.17-1.39-1.91-1.85-3-1-5.6-.74-11.25-.75-16.9A8.59,8.59,0,0,1,452,460Z" transform="translate(-162.97 72.23)"/><path class="cls-71" d="M452.45,481.94l1.49,2.25v15.69c-1.26-.29-.43-1.89-1.5-2.19v-6A27.13,27.13,0,0,1,452.45,481.94Z" transform="translate(-162.97 72.23)"/><path class="cls-70" d="M450.19,414.46l-.7,0-.06-442.77c0-2.12,0-4.25.05-6.37l.69.06q0,188,0,376c0,1.87,0,3.75,0,5.62v23.24Z" transform="translate(-162.97 72.23)"/><path class="cls-70" d="M450.2,454.94V417.46c1.6-1.45.05-3.61,1.56-5.87-.59,7.7,1.08,14.61.68,21.62q0,13.11,0,26.24h0c-2-.13-1.35-1.68-1.45-2.76-.12-1.34.57-2.63.3-4,0-.5-.58-.18-.09-.21.08,0,.13.12.08.36C451.1,453.63,451.9,454.93,450.2,454.94Z" transform="translate(-162.97 72.23)"/><path class="cls-72" d="M171.35,382.18q-.07-116.93-.14-233.85,0-89.19-.05-178.39c0-8.29,2-15.76,7.65-22,.83,1,.44,2.11.06,3.14-1.45,3.89-2,8-3.07,12,0,.24-.07.49-.1.74-.54,1.58-.26,3.22-.26,4.83q0,190,0,380c-.62.38-1.1.6-1,1.7.52,9.41-.8,18.8-.68,28.21C173.71,380,173.48,381.83,171.35,382.18Z" transform="translate(-162.97 72.23)"/><path class="cls-73" d="M183.78,465.32h-1.23c-1-4.91.19-9.92-.62-14.84v-3.81a112.1,112.1,0,0,0,0-17.19v-2.3a31.14,31.14,0,0,0,0-8.94q-.06-51.47-.11-102.91c0-20.45.07-40.91.11-61.36a13.13,13.13,0,0,0,.25-4.46q0-106.36,0-212.73c.25-4.37-.52-8.77.45-13.12,1.63.38,1.56,1.77,1.67,3,.13,1.49.06,3,.06,4.5V459.8a40.47,40.47,0,0,1-.09,4.12A4.69,4.69,0,0,1,183.78,465.32Z" transform="translate(-162.97 72.23)"/><path class="cls-74" d="M183.92,464.8c-.68-1.56-.35-3.21-.35-4.81q0-214.9,0-429.8c0-2.2.44-4.51-.89-6.55-.27-.1-.37-.23-.31-.37s.14-.24.22-.24l0-.8a1.15,1.15,0,0,1,.06-1.61,1.1,1.1,0,0,1,1.11.38,9.33,9.33,0,0,1,1.5,6.19c.09,2.25.07,4.5.07,6.75q0,210.93,0,421.85c0,2.62.29,5.25-.43,7.83A2.81,2.81,0,0,1,183.92,464.8Z" transform="translate(-162.97 72.23)"/><path class="cls-75" d="M175,349.12q0-189.55.07-379.13c0-2.06-.6-4.25.64-6.2,0,2.49.09,5,.09,7.48l-.06,423.62a.79.79,0,0,1-1.17-.38c-1.32-5.87-.17-11.83-.57-17.73-.36-8.29.39-16.55.33-24.83A4.29,4.29,0,0,1,175,349.12Z" transform="translate(-162.97 72.23)"/><path class="cls-76" d="M176.56,389.72V-33h.75V389.71C177.06,390.06,176.81,390.05,176.56,389.72Z" transform="translate(-162.97 72.23)"/><path class="cls-58" d="M313-36.95H336.2c1.78,0,3.84-.16,3.7,2.44-.12,2.34-2.08,2-3.69,2H290.58a7.18,7.18,0,0,1-1.86-.07c-1.39-.38-3.31-.53-3.12-2.51S287.51-37,289.08-37C297.06-36.94,305-36.95,313-36.95Z" transform="translate(-162.97 72.23)"/><path class="cls-77" d="M182.59.44c1.15-1.14,2.6-.64,3.91-.64q126.72,0,253.45,0c1.38,0,3-.71,4.12.88a3.25,3.25,0,0,1-1.11.64c-2.38.43-4.8.2-7.18.56-2.5-.09-5-.14-7.49-.14q-115.11,0-230.22,0c-4.64,0-9,.12-12,4.38-.55.77-1.54,1.55-2.56,1.1s-.88-1.68-.91-2.66c0-1.13,0-2.25,0-3.37C182.6.92,182.59.68,182.59.44Z" transform="translate(-162.97 72.23)"/><path class="cls-78" d="M183.78,465.32a.69.69,0,0,1,.14-.52,2.35,2.35,0,0,0,.32-.23c2.09-1.61,4.55-1.07,6.87-1.07q91.14,0,182.29,0,31.64,0,63.26,0c2.11,0,4.26-.27,6.28.66a1,1,0,0,1,.52,1.24c-1.94,0-3.89.07-5.83.07H189.39C187.52,465.45,185.65,465.37,183.78,465.32Z" transform="translate(-162.97 72.23)"/><path class="cls-79" d="M182.52,36.5q0,107.13,0,214.27c0,1.09.31,2.27-.61,3.2,0-1-.12-2-.12-3V39.52c0-1,.07-2,.11-3C182.1,36.21,182.3,36.19,182.52,36.5Z" transform="translate(-162.97 72.23)"/><path class="cls-80" d="M443.46,465.39a2.88,2.88,0,0,0-.14-.71c-1.22-1.48-1.08-3.28-1.08-5q0-99.94,0-199.88a9.75,9.75,0,0,1,.62-4.41,1.15,1.15,0,0,1,1.22-.65c0,1.37.11,2.75.11,4.12q0,101.19,0,202.39C444.17,462.62,444.89,464.22,443.46,465.39Z" transform="translate(-162.97 72.23)"/><path class="cls-80" d="M444.09,36.52V229.27a1.1,1.1,0,0,1-1.21-.63c-.83-1.77-.64-3.66-.64-5.52q0-90.23,0-180.44c0-1.86-.19-3.76.63-5.53A1.14,1.14,0,0,1,444.09,36.52Z" transform="translate(-162.97 72.23)"/><path class="cls-81" d="M175.08,395a3.53,3.53,0,0,0,.65-.11q0,35.78.08,71.54c0,7.62,0,15.24,0,22.85,0,6.59-.47,13.22,1.51,19.65-1.12,1.08.51,2.72-.76,3.76-.5-.5-1-1-1.49-1.51-2.59-3.09-2.45-7-2.82-10.61-.44-4.34.4-8.68.47-13,0-.75.25-1.95,1.47-1.64.64.16.47,1,.39,1.34-1.34-8.64-.28-17.61-.58-26.56-.12-8.16,0-16.32,0-24.48-.1-12.85-.05-25.69,0-38.54A3.5,3.5,0,0,1,175.08,395Z" transform="translate(-162.97 72.23)"/><path class="cls-82" d="M294.27,511.18a21.86,21.86,0,0,1,5.52-26.84,8.4,8.4,0,0,1,2-.92c.6,1.4-.57,2.55-.54,3.87-3.51,4.94-6.41,10.09-6,16.45a12.9,12.9,0,0,0,0,5C295.47,509.63,296.16,511,294.27,511.18Z" transform="translate(-162.97 72.23)"/><path class="cls-83" d="M294.27,511.18c.79-2.5-1.39-5,0-7.51,1.25-.15,1.36.87,1.62,1.66,2.61,8,7.66,13,16.52,13.22a3.19,3.19,0,0,1,2.08.72c.31.68-.06,1.08-.58,1.42a46.47,46.47,0,0,1-6.21,1C301.41,520.52,297.4,516.41,294.27,511.18Z" transform="translate(-162.97 72.23)"/><path class="cls-84" d="M264.28-40.69c3.19,1.57,3.56,4.43,2.82,7.33a5.25,5.25,0,0,1-5,3.83c-2.54.15-4.64-.83-5.3-3.65C257.28-38.67,258.81-40.2,264.28-40.69Z" transform="translate(-162.97 72.23)"/><path class="cls-85" d="M175.8-36.95a49.81,49.81,0,0,1,3-15.12c1.23-3.2,3.78-5,6.67-6.53-2.09,5.63-6.31,10.22-7.8,16.15C177.21-40.58,176.43-38.78,175.8-36.95Z" transform="translate(-162.97 72.23)"/><path class="cls-86" d="M176.56,389.72h.75v50.82h-.75Z" transform="translate(-162.97 72.23)"/><path class="cls-87" d="M312.91-58c2.71.43,4.42,1.85,4.51,4.6.07,2.32-2.7,4.72-5.05,4.38-2.64-.39-4.47-2.29-4.22-4.74A4.6,4.6,0,0,1,312.91-58Z" transform="translate(-162.97 72.23)"/><path class="cls-88" d="M176.56,512.69c.59-1.18-1.81-3,.76-3.76q3,6.37,6,12.75H181.8A22.29,22.29,0,0,1,176.56,512.69Z" transform="translate(-162.97 72.23)"/><path class="cls-89" d="M330.35,512.14c-1.23,3-3.79,4.74-6.29,6.52-1.78.19-1.93-.07-1.39-2.38,1.87-2.53,3.71-5.1,6.43-6.83C330.56,509.86,330.86,510.82,330.35,512.14Z" transform="translate(-162.97 72.23)"/><path class="cls-90" d="M264.28-40.69a10.25,10.25,0,0,0-7.52,7.51,5,5,0,0,1,.93-6.59C259.7-41.77,261.84-42.1,264.28-40.69Z" transform="translate(-162.97 72.23)"/><path class="cls-91" d="M332.5,495.44c.93,2.95,2.42,5.86.81,9-.68-.7-1.27-1.89-2.21-.2-.27.48-.81.34-1.21,0-.89-2.64-.22-5.27,0-7.91A2.08,2.08,0,0,1,332.5,495.44Z" transform="translate(-162.97 72.23)"/><path class="cls-92" d="M320.56,481.85c1.92,1.38,4.51,1.74,5.93,3.89.56.94.7,1.82-.41,2.5a12.13,12.13,0,0,1-7.45-4.78C318.8,482.35,319.29,481.63,320.56,481.85Z" transform="translate(-162.97 72.23)"/><path class="cls-93" d="M443.56,229.27a4.69,4.69,0,0,1,.53,0q0,12.72,0,25.46h-.51a4,4,0,0,1-1.26-3.38q-.19-9.34,0-18.7A4,4,0,0,1,443.56,229.27Z" transform="translate(-162.97 72.23)"/><path class="cls-94" d="M320.56,481.85l-1.67,1.72c-2.36,1.29-4.5.28-6.64-.64-.73-1.15-.36-2,.7-2.68a4.31,4.31,0,0,1,3.08.18C317.31,481.65,319.31,480.54,320.56,481.85Z" transform="translate(-162.97 72.23)"/><path class="cls-95" d="M307.7,521.71c1.65-2,3.91-1.47,6-1.53,1.18.83,3,.17,3.89,1.6A15,15,0,0,1,307.7,521.71Z" transform="translate(-162.97 72.23)"/><path class="cls-96" d="M301.05,486.48c-1-1.3.6-2,.7-3.06a8.49,8.49,0,0,1,4.51-2.22c.4.83-1,2.32.92,2.6A7.18,7.18,0,0,1,301.05,486.48Z" transform="translate(-162.97 72.23)"/><path class="cls-97" d="M330.29,504.49a3.3,3.3,0,0,0,.46-.54c.51-1,0-3,1.55-2.82,1.77.22.58,2.21,1,3.34-.18,1,.25,2.2-.81,3-.9-.32-2-.09-2.65-1.08A1.59,1.59,0,0,1,330.29,504.49Z" transform="translate(-162.97 72.23)"/><path class="cls-98" d="M181.93,429.48a48.2,48.2,0,0,1,0,17.19Z" transform="translate(-162.97 72.23)"/><path class="cls-99" d="M444.09,36.52h-.53c-1.88-1.94-1.19-4.39-1.22-6.64,0-2.8-.32-5.65.58-8.4a1.28,1.28,0,0,1,1.15-.67Z" transform="translate(-162.97 72.23)"/><path class="cls-98" d="M181.93,450.48c1.41,4.9.23,9.9.62,14.84-1.66-3.22-.38-6.67-.72-10A41.25,41.25,0,0,1,181.93,450.48Z" transform="translate(-162.97 72.23)"/><path class="cls-100" d="M182.52,36.5a3,3,0,0,1-.6,0c.21-4.5-1-9.07.64-13.5a3.21,3.21,0,0,1,.09.61Q182.58,30.08,182.52,36.5Z" transform="translate(-162.97 72.23)"/><path class="cls-101" d="M322.93,519.54a6.51,6.51,0,0,1-3.09,1.46c-1.27.42-2.5.76-2.72-1.2a3.4,3.4,0,0,1,3.83-2.26C321.91,517.91,322.28,518.86,322.93,519.54Z" transform="translate(-162.97 72.23)"/><path class="cls-102" d="M317.5,519.43c.06,1.6,1.29,1.45,2.34,1.57-.57.73-1.41.7-2.21.78-1.31-.5-3.39.87-3.89-1.6l.78-.73A2,2,0,0,1,317.5,519.43Z" transform="translate(-162.97 72.23)"/><path class="cls-103" d="M330.14,506.6c1-.24,2.18-1.11,2.36.85-1,1.06-.3,2.78-1.49,3.76a13.85,13.85,0,0,0-1.93-2.51C328.9,507.73,328.8,506.8,330.14,506.6Z" transform="translate(-162.97 72.23)"/><path class="cls-104" d="M313,480.46l-.76,2.2a3.1,3.1,0,0,1-2.8.87c-3-.82-1.88-1.93-.21-3.07a2.9,2.9,0,0,1,.72,0A3.07,3.07,0,0,1,313,480.46Z" transform="translate(-162.97 72.23)"/><path class="cls-105" d="M309.25,480.46c.26.75-2.4,1.57.06,2.26-.34,1.58-1.26,1.35-2.29.73-3,.19-1.21-1.26-.76-2.25A4.78,4.78,0,0,1,309.25,480.46Z" transform="translate(-162.97 72.23)"/><path class="cls-106" d="M443.57.57a1.46,1.46,0,0,0,.5.12V11a1.23,1.23,0,0,1-1.12-.63C442.34,7.08,441.5,3.73,443.57.57Z" transform="translate(-162.97 72.23)"/><path class="cls-107" d="M332.5,495.44l-2.24.74a1.65,1.65,0,0,1-1.11-2.14,5.71,5.71,0,0,1,1.91-2.41A4.83,4.83,0,0,1,332.5,495.44Z" transform="translate(-162.97 72.23)"/><path class="cls-108" d="M443.55,11.09l.52-.05v9.77l-.53,0-.49-.43a14.29,14.29,0,0,1,0-8.82Z" transform="translate(-162.97 72.23)"/><path class="cls-109" d="M183.2,20.82h-.54a17.6,17.6,0,0,1-.1-8.29l.07-1.44a.8.8,0,0,1,1.15.37C184.55,14.64,185.24,17.81,183.2,20.82Z" transform="translate(-162.97 72.23)"/><path class="cls-110" d="M182.53,10.2a13.58,13.58,0,0,1,.06-9.76l-.11.26c1.08,2.27-.1,4.77.73,7.06A2.33,2.33,0,0,1,182.53,10.2Z" transform="translate(-162.97 72.23)"/><path class="cls-111" d="M182.56,12.53q0,4.16.1,8.29l-.12,1.41A13.31,13.31,0,0,1,182.56,12.53Z" transform="translate(-162.97 72.23)"/><path class="cls-27" d="M328.69,488.06c1.14.3.59,1.75,1.49,2.22.31,1.24-.45,1.63-1.46,1.83a2.06,2.06,0,0,1-1.91-2.29A2.39,2.39,0,0,1,328.69,488.06Z" transform="translate(-162.97 72.23)"/><path class="cls-98" d="M181.93,418.24a13.76,13.76,0,0,1,0,8.94Z" transform="translate(-162.97 72.23)"/><path class="cls-43" d="M328.62,491.77a2.66,2.66,0,0,0,1.56-1.49c.69.19.79.77.88,1.35-.07,1.08,0,2.25-1.59,2.33C327.9,493.73,328.13,492.8,328.62,491.77Z" transform="translate(-162.97 72.23)"/><path class="cls-112" d="M328.69,488.06a2.73,2.73,0,0,1-1.61,1.48c-1,0-1.56-.47-1.45-1.54.95-.5.85-1.4.86-2.26C327.22,486.51,328,487.29,328.69,488.06Z" transform="translate(-162.97 72.23)"/><path class="cls-113" d="M322.93,519.54a1.7,1.7,0,0,1-1.74-1.75c.09-1.48.81-2,2.24-1.52,0,.86-1.38,2.06.63,2.39C323.94,519.29,323.46,519.44,322.93,519.54Z" transform="translate(-162.97 72.23)"/><path class="cls-105" d="M313,480.46l-3,0a6,6,0,0,1,6.06,0Z" transform="translate(-162.97 72.23)"/><path class="cls-114" d="M329.33,508.84c1.53.11,1.71,1.16,1.68,2.37l-.66.93a2.71,2.71,0,0,0-1.51-2.43C328.5,509.13,328.8,508.92,329.33,508.84Z" transform="translate(-162.97 72.23)"/><path class="cls-115" d="M182.53,10.2l.18-1.92c.42-.75,1.07-.65,1.34-.06a2.2,2.2,0,0,1-.84,2.81l-.58.06C182.6,10.79,182.56,10.5,182.53,10.2Z" transform="translate(-162.97 72.23)"/><path class="cls-116" d="M169.88,233h.61q0,62.6,0,125.19c-.21.34-.43.36-.64,0Z" transform="translate(-162.97 72.23)"/><path class="cls-67" d="M169.87,358.22h.64q0,44.61,0,89.23h-.7Q169.87,402.83,169.87,358.22Z" transform="translate(-162.97 72.23)"/><path class="cls-38" d="M175.05,460.94v27.69c-1.32-.28-.28-1.6-1.42-2.23,0,8.41-1.58,16.7,1.44,24.78-.26,1.49-.69.9-1.08.08a23.53,23.53,0,0,1-2.67-10.58c.88-3.66.1-7.37.43-11.05.64-3,.17-6.08.31-9.12,0-3.49,0-7,0-10.47a6.16,6.16,0,0,1,.17-1.29c.5-2.58.16-5.18.29-7.77.07-1.41-.12-3,1.41-3.87C175.33,458.23,174.11,459.87,175.05,460.94Z" transform="translate(-162.97 72.23)"/><path class="cls-117" d="M172.06,489.45c-.42,3.73.88,7.57-.74,11.23,0-.25,0-.49,0-.74l0-17.25a.67.67,0,0,1,1,.33C172.31,485.16,172.78,487.33,172.06,489.45Z" transform="translate(-162.97 72.23)"/><path class="cls-118" d="M175,349.12V377c-1.52,4.67-.56,9.52-1,14.28-.48,5.66-.21,11.38-.15,17.07a34.38,34.38,0,0,1-.26,6.65c-1.27,1.89.76,5-2.28,6.24q0-19.5,0-39c1.41-1.76,1.57-3.84,1.44-6-.51-8.8,1.08-17.55.75-26.34C173.49,348.33,173.84,348.12,175,349.12Z" transform="translate(-162.97 72.23)"/><path class="cls-119" d="M171.34,421.19c1.75-1.68-.32-4.31,1.47-6,1.77,2,1,4.51,1.08,6.8a47.22,47.22,0,0,1-.21,8.57,21.88,21.88,0,0,0-.64,5.47c-.09,1.23.29,2.88-1.7,3.14Z" transform="translate(-162.97 72.23)"/><path class="cls-120" d="M172.06,482.69h-.73v-16.5c.78-2.61.14-5.28.39-7.91.07-.78-.4-2.12,1.31-1.64.11,4.19.5,8.39-.22,12.56h0c-.86,3.63-.15,7.31-.39,11C172.35,481,172.64,481.92,172.06,482.69Z" transform="translate(-162.97 72.23)"/><path class="cls-121" d="M171.34,439.19c1.92-2.49-.49-5.76,1.47-8.24,2.12,4,.94,8.22.73,12.33-.09,1.83-.41,3.67-.42,5.53-.5,2.07,1.18,4.77-1.79,6.12Z" transform="translate(-162.97 72.23)"/><path class="cls-122" d="M171.33,454.93c1.46-1.84.41-4,.73-6a.82.82,0,0,1,1.16.32c.84,2.45,1.23,4.87-.41,7.18-1.45,1.7-.46,3.74-.75,5.6-.21,1.38.53,2.94-.73,4.14Z" transform="translate(-162.97 72.23)"/><path class="cls-123" d="M450.2,454.94c1.16-.65.37-2,1.17-3,1,2.5-.62,5.28,1.07,7.53q0,11.25,0,22.49c0,3.25,0,6.51,0,9.76-1.55-2.8-.43-5.84-.73-8.75a11.5,11.5,0,0,0-.63-4l-.24,5h-.64Z" transform="translate(-162.97 72.23)"/><path class="cls-124" d="M443.54,20.76q0,7.89,0,15.76c0,.62-.11,1.25-.11,1.87v189c0,.62.07,1.24.11,1.87q0,12.72,0,25.46c0,1.62-.12,3.24-.12,4.86q0,100.31,0,200.6c0,1.5-.08,3-.12,4.49H186.48c-.75,0-1.5-.07-2.24-.12,0-1.49-.1-3-.1-4.49q0-214.65,0-429.3c0-1.57-.53-3.26.57-4.72a2.67,2.67,0,0,1,1.72.65c4.55,4.59,10.26,5,16.3,5q111.3-.12,222.61-.05c3.65,0,7.2-.15,10.49-2.1s4.59-5.16,6.21-8.24a1.07,1.07,0,0,1,1.25-.41Z" transform="translate(-162.97 72.23)"/><path class="cls-125" d="M442.83,20.83c-1.5,7.74-6.45,11.91-14.35,11.91q-115.36,0-230.74,0a14.79,14.79,0,0,1-13-6.72l-1.53-5.24c0-3.26,0-6.52,0-9.79-.42-.87,1.41-2.15-.5-2.75-.08-2.53-.15-5-.23-7.58,2.52,1.58,0,4.21,1.27,6.09,1.21.1,1.3-1,1.74-1.66A10.1,10.1,0,0,1,194.61.48q118.51.17,237,.08a11.62,11.62,0,0,1,5.13.65c4.51,1.46,6.15,4.2,6.3,10.55C442.93,14.79,443.35,17.82,442.83,20.83Z" transform="translate(-162.97 72.23)"/><path class="cls-126" d="M172.81,408.47c-.45-10,.56-20,.75-30,0-.92-.34-2.23,1.43-1.57l.09,18.05v2.23c-1.61,2.59-.36,5.45-.79,8.14C174.1,406.52,174.93,408.22,172.81,408.47Z" transform="translate(-162.97 72.23)"/><path class="cls-127" d="M442.82,11a13.94,13.94,0,0,0-6.06-9.81c2.17-1.3,4.56-.27,6.81-.64,0,3.51,0,7,0,10.52l-.23-.1Z" transform="translate(-162.97 72.23)"/><path class="cls-75" d="M172.81,408.47c1.59-3,.35-6.28.77-9.41.11-.87-.68-2.6,1.5-1.83q0,19.49,0,39c-1.4,1.75-.59,3.79-.73,5.7-.18,2.43.11,4.94-1.52,7.05h-.75a135.22,135.22,0,0,0,.75-18V408.47Z" transform="translate(-162.97 72.23)"/><path class="cls-128" d="M172.81,449c.23-3.88,1.14-7.72.75-11.65-.12-1.21.39-1.56,1.5-1.1q0,12.38,0,24.74c-1.21-.63-.28-2.13-1.23-3-1,3.77.78,7.68-1,11.26V449Z" transform="translate(-162.97 72.23)"/><path d="M329.33,508.84c-.16.29-.32.58-.49.87-1.25,2.64-3.53,4.43-5.41,6.56l-2.24,1.52-3.69,1.64-3,0c-11.61-.12-15.64-3.27-20.25-15.78-.37-6.77,2.39-12.3,6.78-17.19l6-3c.82,0,1.69.06,2.29-.73l2.95-.06,6.63.91c2.27,1.45,4.82,2.46,6.74,4.43l1.45,1.54a3.58,3.58,0,0,0,1.54,2.23c.14.79,0,1.68.85,2.19l.79,2.22c1.1,2.77-.23,5.54,0,8.31l-.15,2.11C329.37,507.17,329.5,508.06,329.33,508.84Z" transform="translate(-162.97 72.23)"/><path class="cls-129" d="M264.32-36.24c1.73-.66,1.49.57,1.44,1.54-.09,1.91-1.47,2.78-3,3.35s-1.6-1-2.2-1.84A39.68,39.68,0,0,0,264.32-36.24Z" transform="translate(-162.97 72.23)"/><path class="cls-130" d="M264.32-36.24c.06,2.64-1.75,3-3.78,3.05-1.54-1-2.2-2.13-.76-3.72,1.31,1.34,2.55.17,3.81-.11Z" transform="translate(-162.97 72.23)"/><path class="cls-131" d="M263.59-37c-.69,1.1-1.34,2.39-2.91,2.15-1.13-.17-.82-1.26-.9-2C261-38.24,262.26-39,263.59-37Z" transform="translate(-162.97 72.23)"/><path class="cls-124" d="M316-53.47c-.48,2.15-1.67,3.15-3.7,3-1.85-.14-3-1.18-3-3a3.16,3.16,0,0,1,3.39-3.17A3.48,3.48,0,0,1,316-53.47Z" transform="translate(-162.97 72.23)"/><path class="cls-132" d="M442.82,11a2.07,2.07,0,0,0,.5,0q0,4.93,0,9.88a2.59,2.59,0,0,0-.48,0C442.83,17.56,442.82,14.29,442.82,11Z" transform="translate(-162.97 72.23)"/><path class="cls-117" d="M172.06,480.45c.43-3.74-.89-7.59.75-11.25v11.24C172.56,480.78,172.31,480.78,172.06,480.45Z" transform="translate(-162.97 72.23)"/><path class="cls-128" d="M172.06,480.45h.75c-.38,3,.8,6.11-.75,9v-9Z" transform="translate(-162.97 72.23)"/><path class="cls-46" d="M313.26,40.32q54.51,0,109,0c7,0,12.78,2.28,15.19,9.17,2.5,7.17,2.73,14.49-2.56,20.88-3.33,4-8,5-12.82,5q-108.64.06-217.3,0c-8.4,0-14.58-4-16.15-10.67-2.1-9-.86-17.67,6-22a17.46,17.46,0,0,1,9.64-2.42Q258.75,40.35,313.26,40.32Z" transform="translate(-162.97 72.23)"/><path class="cls-46" d="M313.26,114.37q-54.31,0-108.64,0c-8.09,0-14.32-3.89-15.93-10.47-2.15-8.75-1.09-17.9,6.06-22.25a15.88,15.88,0,0,1,8.53-2.32q110.14,0,220.3,0c7.77,0,13.31,4.56,14.83,12.16a24.33,24.33,0,0,1-.66,13.29c-2.25,6.21-7.89,9.58-15.84,9.59Z" transform="translate(-162.97 72.23)"/><path class="cls-46" d="M312.89,201.42q54.87,0,109.76,0c8.47,0,14.38,5.12,15.42,13.22,1.42,11-2.39,18.39-10.71,20.9a16.38,16.38,0,0,1-4.81.5H202.65c-9.29,0-15.27-6.18-15.55-15.51-.22-7.59,1.09-14.2,8.73-17.9,2.48-1.2,5-1.22,7.67-1.22Z" transform="translate(-162.97 72.23)"/><path class="cls-46" d="M313.27,195.6c-36.34,0-72.67-.2-109,.13-9.61.09-16.77-6.79-16.46-16.58.31-10,3.27-15.31,10.7-17.63a15.65,15.65,0,0,1,4.8-.55q110.13,0,220.27,0c8.88,0,15.08,6.13,15.29,15,0,1.62,0,3.25,0,4.87-.27,8.72-6.35,14.75-15.07,14.76Q368.52,195.64,313.27,195.6Z" transform="translate(-162.97 72.23)"/><path class="cls-46" d="M313.32,119.05H422c8.22,0,13.29,3.06,15.78,9.51,2.89,7.45,1.14,16.94-3.93,21.63-3.69,3.4-8.25,3.89-12.92,3.9q-42.7,0-85.42,0-64.82,0-129.63,0c-4.66,0-9-.63-12.95-3.82-5.79-4.72-6.09-16.09-3.82-22,2.34-6.1,7.63-9.21,15.6-9.21Z" transform="translate(-162.97 72.23)"/><path class="cls-133" d="M308.48,386.19c-20.88.28-36.88-8.09-45.68-27.46-13.41-29.55,8-63.08,40.54-64.31,12.66-.48,24.86.6,35.71,8.19,15.08,10.54,22.8,29.66,18.78,47.19-4.39,19.1-18.87,32.71-37.75,35.73A97.83,97.83,0,0,1,308.48,386.19Z" transform="translate(-162.97 72.23)"/><path class="cls-124" d="M311.68,10.56h8.65l0,.93A13.33,13.33,0,0,1,311.68,10.56Z" transform="translate(-162.97 72.23)"/><path class="cls-124" d="M311.69,20a14.5,14.5,0,0,1,8.65.05A12.91,12.91,0,0,1,311.69,20Z" transform="translate(-162.97 72.23)"/><path class="cls-124" d="M320.33,15.48a13.32,13.32,0,0,1-8.66.12C314.52,14.41,317.43,14.8,320.33,15.48Z" transform="translate(-162.97 72.23)"/><path class="cls-124" d="M310.64,14.43c-1,.93-1.55,2.34-3,2.47-.39,0-1.28-.95-1.2-1.11.65-1.36,2.9-.34,3.34-2.17Z" transform="translate(-162.97 72.23)"/><path class="cls-124" d="M310.67,9.87c-1.06,1.06-1.62,2.56-3.26,2.53-1.07,0-.87-2.23-.49-1.92C308.53,11.78,309.13,9.07,310.67,9.87Z" transform="translate(-162.97 72.23)"/><path class="cls-124" d="M308.09,21.3A1.73,1.73,0,0,1,307,19.7c0-.75.32-1.11,1.06-1.12s1.13.23,1.15,1A1.65,1.65,0,0,1,308.09,21.3Z" transform="translate(-162.97 72.23)"/><path class="cls-134" d="M312.79-54.84c.78.15,1.45.52,1.43,1.38,0,1.05-.79,1.47-1.75,1.41A1.38,1.38,0,0,1,311-53.41C311.05-54.46,311.83-54.81,312.79-54.84Z" transform="translate(-162.97 72.23)"/><path class="cls-124" d="M302.69,56.22V48.8c1.79,3.19,1.13,6.47,1.28,9.69,0,.54-.2,1.16-.73,1.06a2.55,2.55,0,0,1-1.5-1A42.94,42.94,0,0,0,296.51,52v7.48l-1.16,0a29.3,29.3,0,0,1-.07-10.23c.23-1.39,1.65-.06,2.12.59,1.52,2.09,2.88,4.28,4.31,6.44Z" transform="translate(-162.97 72.23)"/><path class="cls-124" d="M331.94,48.54c3,0,5.19,2.56,5,5.86a5.7,5.7,0,0,1-5.43,5.39c-2.64-.09-5.14-2.95-5-5.79C326.62,50.57,328.67,48.51,331.94,48.54Z" transform="translate(-162.97 72.23)"/><path class="cls-124" d="M320.17,52.7c-2-2.26-3.36-5-6.29-2.4-1.93,1.69-2.38,5.28-.53,7,2.44,2.27,4.65,1,6.71-1-.58,2.6-2.18,3.89-4.78,3.41a5.13,5.13,0,0,1-4.4-5.58c.13-2.29.5-5.23,3.75-5.56C317.13,48.35,320.06,47.88,320.17,52.7Z" transform="translate(-162.97 72.23)"/><path class="cls-124" d="M307.32,59.5V48.87l.69,0V59.47Z" transform="translate(-162.97 72.23)"/><path class="cls-124" d="M291.59,59.46V48.85c1.43,3.53,1.19,7.07,1,10.61Z" transform="translate(-162.97 72.23)"/><path class="cls-124" d="M324,48.88c1.23,3.49.9,7,0,10.64Z" transform="translate(-162.97 72.23)"/><path class="cls-124" d="M399.94,94.26c1.49,1.44,2.74.68,2.89-.87.32-3.28,2.73-2.25,4.16-2,2.36.51.86,2.27.54,3.55a4.51,4.51,0,0,1-5.12,3.81c-1.09,0-2.27-.28-3.27.43-2,1.44-3.45,1-4.76-1.13-1.2-2-1.11-3,1-4.39,1.42-.89.79-3.95,3.52-4.1,1,1.37-.63,3.43,1.06,4.7Z" transform="translate(-162.97 72.23)"/><path class="cls-124" d="M400,94.31c0-1.24.05-2.49,0-3.73-.15-2.26.87-3.19,3.1-3.06a8.75,8.75,0,0,0,3.25-.47c1-.33,1.78-2.42,3.08-.89a10.14,10.14,0,0,1,2.33,4.14c.34,1.55-1.45,2.29-2.5,1.93-4.82-1.67-4.76-1.76-7.89,1.66-.27.3-.91.25-1.38.37Z" transform="translate(-162.97 72.23)"/><path class="cls-124" d="M249,99.51a33.32,33.32,0,0,0-4.4-.7c-2.78,0-3.91-2-4.78-4-1.07-2.51.34-4.72,1.82-6.48,1.32-1.58,3.59-.9,5.32-.59,2.33.41,3.73,5.39,2.32,8C248.59,96.9,247.84,98,249,99.51Z" transform="translate(-162.97 72.23)"/><path class="cls-124" d="M354.84,92.93c.9-2-1.8-5.63,3.18-5.46,3.9.13,5.65,1.31,5.91,5.81.17,3-2.58,5.32-5.66,5.53C352.78,99.19,355.88,95,354.84,92.93Z" transform="translate(-162.97 72.23)"/><path class="cls-124" d="M292,99.21c-5.06-4.54-6.67-4.55-8.94-.66-.36-1.4,2.07-10,3-10.57,1.29-.77,1.78.14,2.15,1.12.61,1.6,1.16,3.22,1.75,4.82S291.07,96.85,292,99.21Z" transform="translate(-162.97 72.23)"/><path class="cls-124" d="M332.47,99.39c-4.78-4.74-6.3-4.75-9.81-1a101.15,101.15,0,0,1,3.68-10c.72-1.51,1.88-.42,2.34.78C329.84,92.17,331,95.27,332.47,99.39Z" transform="translate(-162.97 72.23)"/><path class="cls-124" d="M365.4,98.38c1.17-3.36,2.14-6.81,3.61-10,.69-1.49,1.92-.55,2.38.65,1.2,3.13,2.3,6.3,3.6,9.86-5.31-4.19-6.57-4.19-8.63-.32Z" transform="translate(-162.97 72.23)"/><path class="cls-124" d="M253.86,87.15c1.08,2.7.68,4.82.61,6.87s.78,3.6,2.76,3.62,3.33-1.35,3.29-3.61c0-2.07,0-4.13,0-7,2.13,3.47,1.9,8.57,0,10.57-1.62,1.75-3.58,1.51-5.45.64C252.68,97.11,252.16,93,253.86,87.15Z" transform="translate(-162.97 72.23)"/><path class="cls-124" d="M352.39,87.84a15.5,15.5,0,0,1,.25,6.6c-.32,2.67-1.67,4.64-4.9,4.35-2.95-.26-4.12-1.94-4-4.71.1-2.08-.37-4.2.49-6.63,1.73,2.14.9,4.39.94,6.39,0,2.17.58,3.8,2.93,3.75,2.2,0,3.16-1.59,3.13-3.75s0-4,0-6Z" transform="translate(-162.97 72.23)"/><path class="cls-124" d="M377.06,95.51c1.29.85,2,1.3,2.7,1.79a2.23,2.23,0,0,0,3.48-.63c.9-1.61-.4-2.44-1.75-3-.22-.09-.49-.08-.72-.16-1.81-.59-3.58-1.18-3.3-3.7.14-1.29.61-2.17,2-2.23,2.15-.11,4.46-.47,5.42,2.32-.93.73-1.17.14-1.5-.4a2.38,2.38,0,0,0-3.22-1c-.63.26-1.52,1-1.49,1.5.08,1.4,1.43,1.84,2.52,2.36,4,1.89,4.83,3.36,2.92,5.39S378.45,99,377.06,95.51Z" transform="translate(-162.97 72.23)"/><path class="cls-124" d="M301.69,90.2c-1.63.23-1.48-1.13-2.22-1.51a2.6,2.6,0,0,0-3.63.7c-1.21,1.68.6,2,1.43,2.63a3.15,3.15,0,0,0,1.32.65c2,.35,3.31,1.32,3.1,3.44a2.84,2.84,0,0,1-3.05,2.66c-2,0-4.34.46-4.66-2.68,1.37-.4,1.91.94,2.82,1.38a2.27,2.27,0,0,0,3.19-.75c.81-1.28.06-2.34-1.33-2.85-.34-.13-.7-.23-1.05-.34-1.8-.6-3.61-1.13-3.36-3.66.13-1.28.54-2.23,1.92-2.28C298.31,87.51,300.71,87,301.69,90.2Z" transform="translate(-162.97 72.23)"/><path class="cls-124" d="M271.19,93.16c-1.26,1.4-4.5-1.3-4.61,2.15-.12,3.82,3.83.69,5.13,3a8.8,8.8,0,0,1-6.31,0c-.43-.17-.69-9.44-.23-9.9,1.77-1.75,3.93-.46,6.55-1-1.94,1.71-5.64-.66-5.23,3.46C266.85,94.37,269.74,91.91,271.19,93.16Z" transform="translate(-162.97 72.23)"/><path class="cls-124" d="M336.93,98.69c.37-4.38-2.74-7.21-4.24-10.94,1.42-.11,1.81.7,2.16,1.62,1.28,3.36,2.73,2.79,4.17.12a4.06,4.06,0,0,1,2.59-2.28C339.37,91.27,336.89,94.43,336.93,98.69Z" transform="translate(-162.97 72.23)"/><path class="cls-124" d="M307.82,87.71a5.22,5.22,0,0,1,1,0c1.94.73,1.31,4.43,3.68,3.9,1.32-.29,2.17-2.68,3.63-3.92-1.38,3.6-4.13,6.67-3.73,11.06C312.33,94.43,309.75,91.39,307.82,87.71Z" transform="translate(-162.97 72.23)"/><path class="cls-124" d="M280,87.83a14.06,14.06,0,0,1-.05,9.49,2.2,2.2,0,0,1-2.31,1.47,4.52,4.52,0,0,1-3.37-1.24c-.22-.2-.14-1,.11-1.35s.74-.06,1.15.3c2.87,2.48,3.48.43,3.74-2C279.48,92.29,278.92,90,280,87.83Z" transform="translate(-162.97 72.23)"/><path class="cls-124" d="M368.07,214.1c-.73,3.19.16,5.72-.71,8.11l-1,.07c0-3.42-.32-6.88.15-10.22.21-1.46,1.63-.12,2.1.52a35.19,35.19,0,0,0,5.28,6.37v-7.43h1c.84,3.28.56,6.71.21,10-.19,1.76-1.59.4-2.05-.22C371.4,219.16,370,216.89,368.07,214.1Z" transform="translate(-162.97 72.23)"/><path class="cls-124" d="M272.86,222.27a16.83,16.83,0,0,1-.94-9.52c.43-3,3.31-1.46,4.92-1.31a2.8,2.8,0,0,1,2.22,4.22c-1.73,2.61-.92,4.47.71,6.51-2.12.83-2.09-1-2.71-1.84s-.72-2.49-2.46-2.28c-2,.23-1.06,1.86-1.35,2.9Z" transform="translate(-162.97 72.23)"/><path class="cls-124" d="M312.12,222.32c-2.28.34-2.25-1.17-2.83-2s-.72-2.49-2.45-2.28c-2,.25-1.06,1.87-1.36,2.91-.12.44-.27.87-.4,1.3h-1c0-3.31-.49-6.72.17-9.9.46-2.25,3.24-1.17,4.84-1a2.85,2.85,0,0,1,2.2,4.26C309.55,218.28,310.39,220.14,312.12,222.32Z" transform="translate(-162.97 72.23)"/><path class="cls-124" d="M290.16,222.39c-2.18.18-2.08-1.45-2.73-2.37s-.74-2.15-2.31-2c-1.78.19-1.22,1.53-1.35,2.53a2.2,2.2,0,0,1-1.14,2,25.11,25.11,0,0,1,0-10.54c.44-1.7,3.38-1,5.06-.55,2,.49,2.45,2.37,2,4.23C288.69,219.66,288.63,219.64,290.16,222.39Z" transform="translate(-162.97 72.23)"/><path class="cls-124" d="M363.22,216.72c.09,2.84-2.4,5.7-5,5.78s-5.3-2.49-5.43-5.39c-.14-3.05,2-5.75,4.67-5.85C361,211.12,363.11,213.1,363.22,216.72Z" transform="translate(-162.97 72.23)"/><path class="cls-124" d="M301.38,222.14c-4.18-3.76-6.36-3.77-8.57.13-.41-1.44,2-10.08,3.06-10.6,1.31-.68,1.74.27,2.1,1.26Z" transform="translate(-162.97 72.23)"/><path class="cls-124" d="M345.66,214.47c-.55-.77-.94-1.83-1.69-2.23a2.41,2.41,0,0,0-3.25,1c-1,1.52.63,1.79,1.32,2.43a3.55,3.55,0,0,0,1.66.78c2,.4,3.25,1.44,2.95,3.54-.24,1.64-1.43,2.43-3.16,2.56-2.93.22-3.42,0-4.48-3.05,1.21.71,2.2,1.36,3.26,1.9a2,2,0,0,0,2.77-1.05,1.75,1.75,0,0,0-1.2-2.62l-1.39-.47c-1.83-.62-3.53-1.28-3.21-3.78.16-1.32.71-2.14,2.05-2.16,2.1,0,4.51-.57,5.22,2.28Z" transform="translate(-162.97 72.23)"/><path class="cls-124" d="M318.78,219.49c1.19.7,2.19,1.34,3.24,1.88a2,2,0,0,0,2.78-1,1.75,1.75,0,0,0-1.19-2.62l-1.39-.48c-1.83-.62-3.53-1.28-3.23-3.78.17-1.31.71-2.14,2.06-2.16,2.1,0,4.51-.57,5.26,2.44-1.29.79-1.26-.46-1.65-.88a2.45,2.45,0,0,0-3-.6c-.63.29-1.52,1.08-1.47,1.53.15,1.16,1.2,1.76,2.3,2.14.34.12.64.44,1,.5,2,.37,3.27,1.41,3,3.52a2.88,2.88,0,0,1-3.14,2.56C321.22,222.52,319,222.9,318.78,219.49Z" transform="translate(-162.97 72.23)"/><path class="cls-124" d="M259.3,215.24c-2-2.25-3.62-5.05-6.59-1.81a4.57,4.57,0,0,0,.12,6.71c2.07,2,4.5,1.1,6.44-1-.43,2.31-1.74,3.51-4.21,3.4s-5-2.77-5-5.51c-.07-2.92,2-5.61,4.47-5.74C258.43,211,258.84,211.34,259.3,215.24Z" transform="translate(-162.97 72.23)"/><path class="cls-124" d="M335.64,216.85c-1.55,1.16-4.15-.92-4.56,1.78-.64,4.3,3.82,1.09,5.08,3.4a8.72,8.72,0,0,1-6.32-.05c-.43-.19-.63-9.62-.18-10,1.88-1.47,4-.51,6.22-.65-1.45,1.65-5.1-1.06-4.92,3.06C331.13,218.28,334.51,215.42,335.64,216.85Z" transform="translate(-162.97 72.23)"/><path class="cls-124" d="M268.58,211.25c-1.84,1.63-5.12-.89-5.09,3s3.3,1.31,4.66,2.56c-1.16,1.48-4.57-1.27-4.59,2.27,0,3.76,3.93.54,5.11,3-2.21.56-4.27.85-6.32-.12-.41-.19-.61-9.53-.17-9.91C264,210.46,266.14,211.58,268.58,211.25Z" transform="translate(-162.97 72.23)"/><path class="cls-124" d="M350.16,211.57v10.61l-.66,0V211.6Z" transform="translate(-162.97 72.23)"/><path class="cls-124" d="M379.09,177v-7.43h1.06a32.19,32.19,0,0,1,.15,10c-.19,1.75-1.58.45-2.05-.18-1.59-2.16-3-4.43-5.07-7.44-.15,3.35-.26,5.84-.37,8.33l-1.23.05c0-3.4-.32-6.85.15-10.18.22-1.52,1.62-.17,2.09.47,1.57,2.14,3,4.38,4.48,6.58Z" transform="translate(-162.97 72.23)"/><path class="cls-124" d="M273.86,172.82v7.43c-1.81-3.3-1.5-6.73-1.15-10,.19-1.76,1.6-.37,2.05.24,1.6,2.15,3,4.41,5,7.38l.41-8.3,1.19-.05c0,3.41.33,6.87-.15,10.22-.21,1.44-1.63.1-2.1-.54-1.52-2.09-2.89-4.29-4.32-6.44Z" transform="translate(-162.97 72.23)"/><path class="cls-124" d="M307.5,172.63c-4-3.22-5.33-3.41-7.23-.69-1.59,2.28-1,4.58.68,6.44,1.08,1.21,2.78.74,4.22.36a1.49,1.49,0,0,0,1-1.44c.11-2-2.16-.7-2.75-2.2,1.41-.78,3-1.21,4.08.15.82,1.05.34,2.73-.59,3.81a4.67,4.67,0,0,1-5.76,1.05c-2.67-1.19-3.45-4.76-2.47-8,1.1-3.67,3.93-2.82,6.39-2.72C307.12,169.43,307.12,171.24,307.5,172.63Z" transform="translate(-162.97 72.23)"/><path class="cls-124" d="M323.09,180.28a16.84,16.84,0,0,1-.94-9.52c.43-3,3.31-1.46,4.92-1.31,2.25.22,2.81,2.29,2.32,4.3-.95,3.9-1,3.88.4,6.51-1.91.75-1.88-1.06-2.5-1.92s-.72-2.49-2.46-2.29c-2,.24-1.06,1.87-1.35,2.91Z" transform="translate(-162.97 72.23)"/><path class="cls-124" d="M265.25,169.27c2.86,0,4.95,2.33,5,5.51s-2.61,5.84-5.47,5.73c-2.63-.1-5.12-3-5-5.82C259.92,171.23,262,169.22,265.25,169.27Z" transform="translate(-162.97 72.23)"/><path class="cls-124" d="M363.22,169.27c3.09,0,5.27,2.34,5.25,5.65,0,2.87-2.55,5.59-5.23,5.59s-5.23-2.7-5.25-5.58C358,171.63,360.15,169.27,363.22,169.27Z" transform="translate(-162.97 72.23)"/><path class="cls-124" d="M341.2,180.61c-5.05-4.2-6.48-4.2-8.63-.34a13.63,13.63,0,0,1,1.11-5.77c.75-1.71.33-4.8,2.45-4.87,2.4-.07,2,3.22,3,4.92S340.4,178.19,341.2,180.61Z" transform="translate(-162.97 72.23)"/><path class="cls-124" d="M311.2,169.55c.63,2.11.33,4.32.25,6.47s.94,3.28,2.66,3.35a3.11,3.11,0,0,0,3.37-3.13c.18-2.23-.34-4.54.75-6.69a12.31,12.31,0,0,1,.13,8.44c-1,2.48-2.94,2.86-5.17,2.44a3.67,3.67,0,0,1-3.17-3.94c0-2.31,0-4.62,0-6.93Z" transform="translate(-162.97 72.23)"/><path class="cls-124" d="M351.59,177c-.68,3-2.79,4.12-5.35,3.35a5.18,5.18,0,0,1-3.87-6c.44-2.35.92-5.19,4.68-5.15,2.7,0,4.41.59,5,4.57-2.44-2.62-4-5.65-7-2.39a4.6,4.6,0,0,0,0,6.72C347.14,180.32,349.57,179,351.59,177Z" transform="translate(-162.97 72.23)"/><path class="cls-124" d="M257.15,173.47c-2-2.4-3.38-5-6.29-2.41-1.9,1.71-2.32,5.34-.45,7,2.42,2.15,4.66,1.08,6.73-1-.7,2.55-2.3,3.89-4.89,3.38a5.14,5.14,0,0,1-4.34-5.63c.17-2.26.5-5.24,3.8-5.51C254.2,169.11,257.15,168.61,257.15,173.47Z" transform="translate(-162.97 72.23)"/><path class="cls-124" d="M291,175.58c-5.91-1.67-4.6,2.47-5.37,4.82l-1-.13c0-3.32-.68-6.83.21-9.88.74-2.49,3.84-.68,6.12-1.1-1.47,1.74-5-1-5,3.06C286,175.72,288.69,173.89,291,175.58Z" transform="translate(-162.97 72.23)"/><path class="cls-124" d="M295.08,180.18a21.19,21.19,0,0,1-.11-10.61C296.07,173.09,295.69,176.63,295.08,180.18Z" transform="translate(-162.97 72.23)"/><path class="cls-124" d="M355.3,180.22V169.59l.69,0v10.64Z" transform="translate(-162.97 72.23)"/><path class="cls-124" d="M355,133a22.52,22.52,0,0,1,0-2.6c.11-1-.59-2.62.86-2.87,1.86-.32,3.94-.88,5.65.71,1.08,1,1.31,2.06.22,3.2-.54.56-.33,1,0,1.6,1,1.55,1.38,3.35-.08,4.67s-3.86,1.17-5.7.65-.73-2.54-1-3.88A6.65,6.65,0,0,1,355,133Z" transform="translate(-162.97 72.23)"/><path class="cls-124" d="M251,139.34a44.24,44.24,0,0,0-5-.79c-2.77-.07-3.88-2.06-4.72-4.12-1-2.5.36-4.73,1.89-6.45,1.34-1.52,3.6-.89,5.34-.53,2.33.48,3.6,5.4,2.24,8C250.17,136.64,248.91,137.62,251,139.34Z" transform="translate(-162.97 72.23)"/><path class="cls-124" d="M297.11,132.87c.87-2.11-1.81-6,3.39-5.64,3.89.26,5.73,1.83,5.75,5.62,0,3.16-2.63,5.54-5.92,5.71C295,138.83,298.21,134.76,297.11,132.87Z" transform="translate(-162.97 72.23)"/><path class="cls-124" d="M342.17,138.41c-2.47.16-2.37-1.47-3-2.39s-.77-2.15-2.33-2c-1.78.21-1.2,1.55-1.33,2.55a2.15,2.15,0,0,1-1.16,2,25.6,25.6,0,0,1,0-10.54c.44-1.7,3.39-1,5.06-.55a2.83,2.83,0,0,1,1.89,4.16C339.51,134.26,340.36,136.15,342.17,138.41Z" transform="translate(-162.97 72.23)"/><path class="cls-124" d="M389.55,127.28a5.3,5.3,0,0,1,5.16,5.73c-.06,2.88-2.64,5.55-5.32,5.51s-5.19-2.79-5.16-5.67C384.26,129.49,386.39,127.26,389.55,127.28Z" transform="translate(-162.97 72.23)"/><path class="cls-124" d="M290.51,132.88c0,2.88-2.52,5.62-5.19,5.64s-5.25-2.66-5.3-5.54c0-3.26,2.16-5.69,5.19-5.7S290.49,129.54,290.51,132.88Z" transform="translate(-162.97 72.23)"/><path class="cls-124" d="M352.36,138.11c-4.44-3.81-6.07-3.81-9.46,0a90.11,90.11,0,0,1,3.82-10.15c.73-1.43,1.81-.08,2.23,1Q350.68,133.53,352.36,138.11Z" transform="translate(-162.97 72.23)"/><path class="cls-124" d="M364.69,138a94.18,94.18,0,0,1,3.46-9.81c.8-1.68,2-.71,2.54.72,1.13,3.06,2.27,6.12,3.51,9.46-2.3-.2-2.18-3.32-4.83-3-2.22.25-3.13,1.29-3.72,3.29Z" transform="translate(-162.97 72.23)"/><path class="cls-124" d="M262.77,127.57a11.85,11.85,0,0,1,.58,7.2c-.47,2.49-2.07,4.17-5.05,3.76-2.72-.37-3.81-1.95-3.78-4.55a28.59,28.59,0,0,1,.53-6.44c1.41,1.85,1,3.94.92,5.88-.05,2.17.5,3.94,2.79,4s3.31-1.67,3.29-4C262,131.43,261.7,129.45,262.77,127.57Z" transform="translate(-162.97 72.23)"/><path class="cls-124" d="M315.93,138.13c-2.29.46-4.37.92-6.41-.22-.41-.23-.39-9.5-.09-10,.54-.82,1.86-.9,6-.37-1.26,1.46-4.88-1.29-4.74,2.82.14,3.88,3.45,1.1,4.68,2.48-1.15,1.48-4.71-1.36-4.59,2.35S314.54,135.72,315.93,138.13Z" transform="translate(-162.97 72.23)"/><path class="cls-124" d="M238.29,127.5c-1.38,1.52-4.7-1.19-4.79,2.68-.09,4.08,3.46,1.35,4.7,2.72-1.21,1.44-4.46-1.33-4.6,2.12-.17,3.89,3.82.7,5.08,3a8.52,8.52,0,0,1-6.24.08c-.44-.16-.62-9.25-.28-9.91C232.67,127.15,233.16,127.09,238.29,127.5Z" transform="translate(-162.97 72.23)"/><path class="cls-124" d="M271,138.36c-1.09-3.27-.78-6.46-.67-9.6.09-2.48,2.26-1.26,3.51-1.44,2-.29,3.44.52,3.85,2.58.36,1.78-.35,3.91-2,3.82C272.11,133.52,271.52,135.56,271,138.36Z" transform="translate(-162.97 72.23)"/><path class="cls-124" d="M382.47,127.6a22.94,22.94,0,0,1-.35,8.68c-.67,2.43-2.2,2.46-3.95,2.1-.82-.17-2.11-.39-2.09-1.71,0-1,.54-1.32,1.34-.47.25.26.46.61.77.75,2.33,1.06,2.88-.54,3-2.25.15-2.37,0-4.76,0-7.14Z" transform="translate(-162.97 72.23)"/><path class="cls-124" d="M327.07,138.9c-.93-2.84-.62-5.09-.52-7.26.11-2.43-.18-4.19-3.18-4.19h6.68C325.6,130.06,329.55,134.94,327.07,138.9Z" transform="translate(-162.97 72.23)"/><path class="cls-124" d="M266.1,138.21V127.59c1.43,3.53,1.19,7.07,1,10.61Z" transform="translate(-162.97 72.23)"/><path class="cls-135" d="M319.08,328.16c3.82,5.57,3,11.14-2.27,15.92-4.1,3.71-9.27,3.33-14.45-1.06-4-3.42-5-10.31-2.13-14.81a1.65,1.65,0,0,1,1.47-.41c2.23,1.55,4.55-1.25,6.78.15.82.89.16,1.71-.11,2.55a1.59,1.59,0,0,0,2.57,0c-.29-.8-1-1.58-.12-2.43,2.25-.19,4.58,1.2,6.77-.35A2.17,2.17,0,0,1,319.08,328.16Z" transform="translate(-162.97 72.23)"/><path class="cls-86" d="M299.48,311c.95-5.63,7.54-8.29,13.62-5.52a5.24,5.24,0,0,1,.7,6.28c-1.68,2.43-4.1,2.45-6.65,2s-4.65.33-5.74,2.92c-.26,1.14-.17,2.38-1,3.35a.93.93,0,0,1-1.13-.15,2,2,0,0,1-.2-1.23C299.42,316.08,298.69,313.47,299.48,311Z" transform="translate(-162.97 72.23)"/><path class="cls-136" d="M313,311.8c.57-2.12,1.12-4.23.08-6.37a17.25,17.25,0,0,0,2,1.49c5.71,3,6,3.47,5.21,10-.38.54,0,1.45-.84,1.78-1.48-.41-1.28-1.89-1.86-2.87C316.94,313.5,314.57,313.13,313,311.8Z" transform="translate(-162.97 72.23)"/><path class="cls-115" d="M305.7,349.79l6.54.3c.18,1.31-.71,2.08-1.49,2.89-4.84,0-9.05,3.19-14.46,3,2.56-3,6.32-2.68,8.77-4.76.05,0,0-.23,0-.32s-.18-.16-.28-.23C304.61,349.94,304.86,349.56,305.7,349.79Z" transform="translate(-162.97 72.23)"/><path class="cls-48" d="M326.52,365.52a1.78,1.78,0,0,0-3-.58c-1.75,2-2.15,0-3-.74a1,1,0,0,1,0-1.45c1.48-2.72,3.8-1.89,6-1.44A3.08,3.08,0,0,1,326.52,365.52Z" transform="translate(-162.97 72.23)"/><path class="cls-137" d="M315.28,350.75c1.44,2.13,4.2,2.17,6,3.75a1.08,1.08,0,0,1-.08,1.59,24.29,24.29,0,0,1-8.21-2.32c.36-1.19-.06-2.7,1.43-3.42A1.29,1.29,0,0,1,315.28,350.75Z" transform="translate(-162.97 72.23)"/><path class="cls-138" d="M293.91,345.44c1.35-1.26,2.71-1.81,4.09,0a2.76,2.76,0,0,1,0,3.11l.05,0a5.6,5.6,0,0,1-4.22,0,2,2,0,0,1-.31-2Q293,345.69,293.91,345.44Z" transform="translate(-162.97 72.23)"/><path class="cls-139" d="M326.52,345.83c.78.5.67,1,0,1.56-1.49,1.64-3.07,2.07-4.83.39-.6-1.43.07-2.43,1.12-3.3C324.24,344.47,325.91,343.72,326.52,345.83Z" transform="translate(-162.97 72.23)"/><path class="cls-140" d="M326.52,365.52c0-1.4,0-2.8,0-4.21,1.36-.16,3.24-1.33,3.79.72C331.09,365,328,364.54,326.52,365.52Z" transform="translate(-162.97 72.23)"/><path class="cls-141" d="M293.57,360.44c-.29,1.23,1.61,2.57,0,3.64a4,4,0,0,1-4,.2c-1.37-.8-.54-2.47-.52-3.78C290.57,360.59,292.07,360.4,293.57,360.44Z" transform="translate(-162.97 72.23)"/><path class="cls-77" d="M307,364.18c-1.56-.11-4.06,1.61-3.82-2a1,1,0,0,1,0-1.25c.11-.6.06-1.85,1-.8s2,.59,2.85,1.1A2,2,0,0,1,307,364.18Z" transform="translate(-162.97 72.23)"/><path class="cls-142" d="M318.26,315.47c1.08.68,0,2.43,1.47,2.94,1.9,1.81,1.19,3.64,0,5.47l-.17.74c-.7,1-1.36,1.06-2-.07C317.17,321.47,316.42,318.38,318.26,315.47Z" transform="translate(-162.97 72.23)"/><path class="cls-143" d="M314.46,350.68c-.24,1.16-.13,2.48-1.49,3.09l-2.22-.79c-.27-1.36.6-2.13,1.49-2.89l1.32-.27C314.4,349.54,314.62,349.92,314.46,350.68Z" transform="translate(-162.97 72.23)"/><path class="cls-53" d="M294.85,363.87c-.2-3,1.16-3.74,3.79-2.57a1.79,1.79,0,0,1,.31,2.63C297.65,365.36,296.22,364.15,294.85,363.87Z" transform="translate(-162.97 72.23)"/><path class="cls-144" d="M300.25,319.91c.07-1.24.15-2.49.23-3.73,1.87.62,1.24,2.45,1.8,3.71a5.92,5.92,0,0,1,.07,1.11c-.4,1.62-.18,3.37-1.06,4.89a.71.71,0,0,1-1,.11l-.78-.77a16.52,16.52,0,0,1-.61-2.79A2.47,2.47,0,0,1,300.25,319.91Z" transform="translate(-162.97 72.23)"/><path class="cls-145" d="M299.42,322.93c1.27.72.32,1.52.09,2.3-1.82-2.07-3.75-4.13-.83-6.79.48.05.53.54.84.78,0,.22.08.45.13.67A2.42,2.42,0,0,0,299.42,322.93Z" transform="translate(-162.97 72.23)"/><path class="cls-146" d="M308.56,361.29a2.78,2.78,0,0,1,2.95-.08c1,1-.83,2,0,3a3.18,3.18,0,0,1-2.94-.12A1.85,1.85,0,0,1,308.56,361.29Z" transform="translate(-162.97 72.23)"/><path class="cls-147" d="M319.78,323.88c.82-1.83.09-3.65,0-5.47l.63-1.53C321.52,319.32,322.81,321.78,319.78,323.88Z" transform="translate(-162.97 72.23)"/><path class="cls-148" d="M313,361.24l3-.68c.72.33,1.29.73.81,1.65l-3.85,2A2.19,2.19,0,0,1,313,361.24Z" transform="translate(-162.97 72.23)"/><path class="cls-149" d="M294.85,363.87c1.52-.48,5.11,2.09,3.79-2.57l.81-.1c1.21.65.5,2.29,1.55,3C298.89,365.3,296.8,365.92,294.85,363.87Z" transform="translate(-162.97 72.23)"/><path class="cls-150" d="M301,364.21c-2.87.21-1-2-1.55-3l3.68-.25,0,1.25C301.79,362.18,301,362.75,301,364.21Z" transform="translate(-162.97 72.23)"/><path class="cls-151" d="M293.57,360.44c-1.9-.1-1.12,2-2.13,2.65-1.53-.17-.28-3-2.37-2.59C290.55,359,292.06,359.27,293.57,360.44Z" transform="translate(-162.97 72.23)"/><path class="cls-141" d="M316.83,362.21l-.81-1.65c1.38-.6,2.93-2.13,3.69.67a1.55,1.55,0,0,1-2.46.82A.37.37,0,0,1,316.83,362.21Z" transform="translate(-162.97 72.23)"/><path class="cls-152" d="M317.25,362.05l2.46-.82.77,1.52v1.45C319.25,363.71,317.41,364.14,317.25,362.05Z" transform="translate(-162.97 72.23)"/><path class="cls-153" d="M299.52,319.22l-.84-.78c.3-2.49-.73-5.13.8-7.49Q299.51,315.08,299.52,319.22Z" transform="translate(-162.97 72.23)"/><path class="cls-154" d="M322.78,344.75a3.59,3.59,0,0,0-.74,2.89.5.5,0,0,1,.19.58c-.08.18-.16.27-.23.27-.71,0-2.05-.13-1.93-.35.61-1.21.6-2.93,2.29-3.41Z" transform="translate(-162.97 72.23)"/><path class="cls-155" d="M313,361.24l0,3h-1.46c-1.25-1,.28-2,0-3Z" transform="translate(-162.97 72.23)"/><path class="cls-156" d="M318.27,325.25l1.34-.63c-.18,1.18-.36,2.36-.53,3.54h-1.67C316.58,326.85,316.9,325.89,318.27,325.25Z" transform="translate(-162.97 72.23)"/><path class="cls-157" d="M299.55,347.61l4.59,1.52c-.31.71-1.06.47-1.58.74l-3.05-1.44a.52.52,0,0,1-.16-.56C299.42,347.7,299.49,347.61,299.55,347.61Z" transform="translate(-162.97 72.23)"/><path class="cls-158" d="M322,348.49c0-.28,0-.56,0-.85,1.59,1.38,3,.17,4.52-.25C325.6,350.09,323.89,349.69,322,348.49Z" transform="translate(-162.97 72.23)"/><path class="cls-159" d="M293.91,345.44l-.39,1.05-3.89-.43C291.38,345.28,292.44,344.12,293.91,345.44Z" transform="translate(-162.97 72.23)"/><path class="cls-160" d="M321.18,356.09l.08-1.59,3.28,1.56C323,357.17,322.1,356.58,321.18,356.09Z" transform="translate(-162.97 72.23)"/><path class="cls-161" d="M308.56,361.29l0,2.83-1.61.06,0-2.93Z" transform="translate(-162.97 72.23)"/><path class="cls-162" d="M322.78,344.75l-.21-.09-.21.07c3.11-1.52,3.85-1.33,4.16,1.1C325.49,344.74,324.15,344.69,322.78,344.75Z" transform="translate(-162.97 72.23)"/><path class="cls-163" d="M299.55,347.61l0,.82-1.51.08V345.4Z" transform="translate(-162.97 72.23)"/><path class="cls-164" d="M302.56,349.87c.33-.66,1-.61,1.58-.74l1.56.66-.94.93Z" transform="translate(-162.97 72.23)"/><path class="cls-165" d="M314.46,350.68l-.9-.86c.88-.76,2.08-1.22,2.86-.42.57.59-.59,1-1.14,1.35Z" transform="translate(-162.97 72.23)"/><path class="cls-72" d="M293.83,348.47h4.22C296.64,350,295.24,349.72,293.83,348.47Z" transform="translate(-162.97 72.23)"/><path class="cls-159" d="M300.29,326a3.57,3.57,0,0,0,.73,0c1,.48,1.41,1.17.79,2.22l-1.58,0Z" transform="translate(-162.97 72.23)"/><path class="cls-46" d="M335.42,54.9c-.27,1.55-.78,3.59-3.88,3.41-3.35-.19-3.56-2.55-3.49-4.94s1.54-4.15,3.88-3.94S335.71,51.5,335.42,54.9Z" transform="translate(-162.97 72.23)"/><path class="cls-46" d="M248.44,93.29c-.72.58,1,4.81-2.83,1.9a.68.68,0,0,0-1.13.36c-.15.56,1.73,1.52-.32,1.71-1.32.12-2-.6-2.49-1.77-.88-2.06-1.21-4,.55-5.8,1-1,2.19-1.94,3.57-1.19C247.43,89.4,248.88,90.66,248.44,93.29Z" transform="translate(-162.97 72.23)"/><path class="cls-46" d="M362.48,93a4.85,4.85,0,0,1-.83,3c-.87,1.73-2.47,1.37-3.91,1.25-1.72-.14-1.14-1.59-1.24-2.59a6.3,6.3,0,0,1,0-2.21c.39-1.41-1.31-4,1.58-4C360.49,88.47,362.61,89.76,362.48,93Z" transform="translate(-162.97 72.23)"/><path class="cls-46" d="M287.48,89.41c-.43,2.13,1.67,3.17.2,4.63a1.42,1.42,0,0,1-2-.14C284.79,92.28,286,91.24,287.48,89.41Z" transform="translate(-162.97 72.23)"/><path class="cls-46" d="M328,89.39c-.42,2.15,1.67,3.19.21,4.65a1.44,1.44,0,0,1-2-.14C325.27,92.28,326.52,91.25,328,89.39Z" transform="translate(-162.97 72.23)"/><path class="cls-46" d="M370.26,90.21c0,1.34,2.23,2.53.47,3.9A1.75,1.75,0,0,1,369,94C367.76,92.37,369.44,91.44,370.26,90.21Z" transform="translate(-162.97 72.23)"/><path class="cls-46" d="M275.16,216.49c-2.07.23-1.87-1.27-1.89-2.66,0-1.21.4-2,1.7-1.78,1.51.24,2.85.65,2.82,2.69S276.51,216.51,275.16,216.49Z" transform="translate(-162.97 72.23)"/><path class="cls-46" d="M307.73,216.46c-2.15.32-2.24-1-2.24-2.49s.48-2.2,1.95-1.89,2.59.67,2.58,2.53S309.05,216.66,307.73,216.46Z" transform="translate(-162.97 72.23)"/><path class="cls-46" d="M285.77,216.48c-2,.29-2-1.11-2-2.57s.59-2.14,2-1.83,2.55.74,2.53,2.58S287.15,216.56,285.77,216.48Z" transform="translate(-162.97 72.23)"/><path class="cls-46" d="M358.07,221c-3.24.08-3.69-2.1-3.81-4.42-.14-2.62,1.31-4.48,3.79-4.44s3.86,2,3.66,4.57C361.53,219.05,361,221.21,358.07,221Z" transform="translate(-162.97 72.23)"/><path class="cls-46" d="M297.26,213c-.43,2.27,1.7,3.46.06,4.85-.48.41-1.7.42-2-.28C294.65,216.11,295.72,215.05,297.26,213Z" transform="translate(-162.97 72.23)"/><path class="cls-46" d="M323.52,172.08c-.13-1.41.36-2.28,1.86-2s2.77.85,2.63,2.86c-.12,1.71-1.24,1.48-2.34,1.58C323.74,174.7,323.31,173.66,323.52,172.08Z" transform="translate(-162.97 72.23)"/><path class="cls-46" d="M268.87,174.2c-.37,2.38-.39,4.68-3.56,4.84s-3.91-1.9-4-4.46,1.33-4.42,3.81-4.43S268.55,172.08,268.87,174.2Z" transform="translate(-162.97 72.23)"/><path class="cls-46" d="M367,175.09c-.36,1.87-.64,4-3.81,3.95-3.35-.09-3.65-2.38-3.65-4.8s1.42-4.18,3.76-4.1C365.8,170.24,367.07,172.12,367,175.09Z" transform="translate(-162.97 72.23)"/><path class="cls-46" d="M336.63,172c-.19,1.38,2.31,2.62.27,3.9a1.78,1.78,0,0,1-1.7-.2C334.2,174,335.59,173.06,336.63,172Z" transform="translate(-162.97 72.23)"/><path class="cls-46" d="M358.45,137c-1,.08-2-.11-2-1.9,0-1.46.64-1.89,2-1.88,1.57,0,2.85.78,3,2.12C361.66,137,360.05,137,358.45,137Z" transform="translate(-162.97 72.23)"/><path class="cls-46" d="M360.94,130c-.31,1.47-1.29,1.73-2.52,1.78-1.45.06-2-.56-1.95-2,0-1.26.51-1.94,1.77-1.72S360.71,128.5,360.94,130Z" transform="translate(-162.97 72.23)"/><path class="cls-46" d="M249.92,133.12c-.54.73.76,4.43-2.83,1.81-.28-.21-1-.36-1.1.38-.11.57,1.68,1.53-.35,1.69-1.33.11-2-.63-2.48-1.78-.88-2.07-1.19-4,.57-5.8,1-1.06,2.2-1.93,3.58-1.17C248.94,129.16,250.39,130.42,249.92,133.12Z" transform="translate(-162.97 72.23)"/><path class="cls-46" d="M304.7,133.28c-.3,1.35-.32,3.49-3,3.73-1.82.17-3.24-.06-2.95-2.45.11-.86-.14-1.77.05-2.59.34-1.39-1.26-4,1.76-3.81C303,128.35,305,129.67,304.7,133.28Z" transform="translate(-162.97 72.23)"/><path class="cls-46" d="M335.53,130.36c-.13-1.54.2-2.54,1.77-2.28s2.8.76,2.71,2.79c-.08,1.67-1.1,1.6-2.26,1.66C336,132.64,335.15,131.94,335.53,130.36Z" transform="translate(-162.97 72.23)"/><path class="cls-46" d="M393.28,132.69c-.4,2.13-.57,4.36-3.74,4.36-3.35,0-3.73-2.21-3.8-4.68s1.37-4.19,3.67-4.21C392,128.13,393.16,130.08,393.28,132.69Z" transform="translate(-162.97 72.23)"/><path class="cls-46" d="M289.07,132.7c-.4,2.12-.57,4.35-3.74,4.35-3.35,0-3.73-2.21-3.79-4.68s1.37-4.19,3.66-4.21C287.76,128.13,289,130.08,289.07,132.7Z" transform="translate(-162.97 72.23)"/><path class="cls-46" d="M347.61,129.91c.17,1.37,2.37,2.57.65,4a1.8,1.8,0,0,1-1.72-.11C345.14,132.09,347.23,131.28,347.61,129.91Z" transform="translate(-162.97 72.23)"/><path class="cls-46" d="M370,129.05c-.45,2.22,1.71,3.42,0,4.8-.5.41-1.72.41-2-.29C367.39,132.12,368.43,131.05,370,129.05Z" transform="translate(-162.97 72.23)"/><path class="cls-46" d="M271.88,130.12c.08-.43-.66-2.14,1.42-2,1.51.08,3,.46,3,2.52,0,1.62-.55,2.55-2.33,2.67C272,133.42,271.59,132.4,271.88,130.12Z" transform="translate(-162.97 72.23)"/><path class="cls-166" d="M301.81,328.19c.2-.91-.39-1.53-.79-2.22.19-1.72-.48-3.55.75-5.12,1.24-1.33,1.87,1,3,.49.45-.11,1,.31,1.31-.33-.38-.2-.74-.36-1.1-.53a9.47,9.47,0,0,0-3.24-.55c-1.48-.9.25-2.85-1.23-3.75.9-2.94,3-3.81,5.87-3.49,2.3.27,4.62.69,6.67-.89,2.7-.13,4.51,1,5.24,3.67,0,3.26,0,6.52,0,9.78l-.86,2.9c-2.15,3.05-4.42.33-6.64.14a2.52,2.52,0,0,1-.88.48,1.89,1.89,0,0,1-1.41-.41c-1.08-.06-2.27-.58-3.15.38C303.82,330.37,302.8,329.55,301.81,328.19Z" transform="translate(-162.97 72.23)"/><path class="cls-167" d="M312.26,330.38c.42.33.74,1,.28,1.19a8.39,8.39,0,0,1-5.84.2c-.5-.14-.4-1,.29-1.42a12.29,12.29,0,0,1,2.94-.6C310.69,330,311.52,330,312.26,330.38Z" transform="translate(-162.97 72.23)"/><path class="cls-168" d="M310,330.12l-3,.23c.54-.63,1.53-.92,1.49-2H310A1.19,1.19,0,0,1,310,330.12Z" transform="translate(-162.97 72.23)"/><path class="cls-169" d="M310,330.12v-1.75l.76-.08c-.06,1.1.94,1.44,1.49,2.09Z" transform="translate(-162.97 72.23)"/><path class="cls-170" d="M299.42,322.93c-.45-1.05-2.65-2.24.23-3a4,4,0,0,0,.6,0A5.57,5.57,0,0,0,299.42,322.93Z" transform="translate(-162.97 72.23)"/><path class="cls-171" d="M304.76,322.22c-1.53.72-1.77-1.39-3-1.37l-.06-.92c1.28-1.14,2.56-.95,3.84,0a11,11,0,0,0-.35,1.61A1.28,1.28,0,0,1,304.76,322.22Z" transform="translate(-162.97 72.23)"/><path class="cls-172" d="M317.28,320.08a5.29,5.29,0,0,1-5.26,2.41c-.67-.05-1.22-.29-1.36-1a.91.91,0,0,1,.64-1.17C313.25,320.08,315.21,318.44,317.28,320.08Z" transform="translate(-162.97 72.23)"/><path class="cls-173" d="M304.7,321.52c-1.26-1.36.33-1.19.85-1.59l2.16.93C307,322.64,305.8,321.78,304.7,321.52Z" transform="translate(-162.97 72.23)"/><path class="cls-169" d="M304.7,321.52c1-.14,2.17.32,3-.66,1.49.67.47,1.29-.18,1.43a11.23,11.23,0,0,1-2.77-.07Z" transform="translate(-162.97 72.23)"/></svg>