<svg id="Capa_1" data-name="Capa 1" xmlns="http://www.w3.org/2000/svg" viewBox="0 0 299.33 610.53"><defs><style>.cls-1{fill:#323334;}.cls-2{fill:#1e1f1f;}.cls-3{fill:#3b3c3d;}.cls-4{fill:#3c3d3d;}.cls-5{fill:#242526;}.cls-6{fill:#212222;}.cls-7{fill:#3f4142;}.cls-8{fill:#48494b;}.cls-9{fill:#454647;}.cls-10{fill:#3d3e3f;}.cls-11{fill:#767777;}.cls-12{fill:#424344;}.cls-13{fill:#343436;}.cls-14{fill:#8c8c8c;}.cls-15{fill:#3e4041;}.cls-16{fill:#949595;}.cls-17{fill:#828383;}.cls-18{fill:#5e5f5f;}.cls-19{fill:#252526;}.cls-20{fill:#2f2f32;}.cls-21{fill:#2c2d2f;}.cls-22{fill:#2c2d2e;}.cls-23{fill:#232325;}.cls-24{fill:#2b2b2d;}.cls-25{fill:#313133;}.cls-26{fill:#494a4b;}.cls-27{fill:#454648;}.cls-28{fill:#3f4042;}.cls-29{fill:#3a3b3c;}.cls-30{fill:#373839;}.cls-31{fill:#2a2a2b;}.cls-32{fill:#787878;}.cls-33{fill:#333435;}.cls-34{fill:#313233;}.cls-35{fill:#38383a;}.cls-36{fill:#4e4f51;}.cls-37{fill:#545556;}.cls-38{fill:#363737;}.cls-39{fill:#2f3032;}.cls-40{fill:#27272b;}.cls-41{fill:#28282c;}.cls-42{fill:#37383b;}.cls-43{fill:#343537;}.cls-44{fill:#323235;}.cls-45{fill:#2c2c2f;}.cls-46{fill:#606060;}.cls-47{fill:#242527;}.cls-48{fill:#424242;}.cls-49{fill:#4d4d4e;}.cls-50{fill:#2a2a2c;}.cls-51{fill:#27272a;}.cls-52{fill:#525252;}.cls-53{fill:#3b3b3b;}.cls-54{fill:#393a3a;}.cls-55{fill:#474848;}.cls-56{fill:#555;}.cls-57{fill:#262728;}.cls-58{fill:#242425;}.cls-59{fill:#3c3d3e;}.cls-60{fill:#2d2d30;}.cls-61{fill:#525354;}.cls-62{fill:#4f5051;}.cls-63{fill:#47474a;}.cls-64{fill:#28282a;}.cls-65{fill:#404142;}.cls-66{fill:#29292b;}.cls-67{fill:#1e1e22;}.cls-68{fill:#1a1a1b;}.cls-69{fill:#151516;}.cls-70{fill:#303031;}.cls-71{fill:#2b2b2c;}.cls-72{fill:#d6f9d9;}.cls-73{fill:#010101;}.cls-74{fill:#3d3d3d;}.cls-75{fill:#090809;}.cls-76{fill:#49504a;}.cls-77{fill:#202121;}.cls-78{fill:#191a1e;}.cls-79{fill:#151519;}.cls-80{fill:#171818;}.cls-81{fill:#e9f3ea;}.cls-82{fill:#545455;}.cls-83{fill:#060607;}.cls-84{fill:#100f0f;}.cls-85{fill:#1b1b1c;}.cls-86{fill:#6c6d6f;}.cls-87{fill:#121112;}.cls-88{fill:#101014;}.cls-89{fill:#626364;}.cls-90{fill:#3c3d3f;}.cls-91{fill:#333437;}.cls-92{fill:#242428;}.cls-93{fill:#2d2e31;}.cls-94{fill:#58595c;}.cls-95{fill:#424445;}.cls-96{fill:#4a4b4c;}.cls-97{fill:#8a948b;}.cls-98{fill:#202124;}.cls-99{fill:#626466;}.cls-100{fill:#555658;}.cls-101{fill:#5f6062;}.cls-102{fill:#19191f;}.cls-103{fill:#3f4040;}.cls-104{fill:#7e7e7e;}.cls-105{fill:#696969;}.cls-106{fill:#5b5b5b;}.cls-107{fill:#484848;}.cls-108{fill:#636364;}.cls-109{fill:#4d4e4e;}.cls-110{fill:#535454;}.cls-111{fill:#272728;}.cls-112{fill:#c3cebe;}.cls-113{fill:#fefefe;}.cls-114{fill:#030303;}.cls-115{fill:#959595;}.cls-116{fill:#e7fbe9;}.cls-117{fill:#cadec8;}.cls-118{fill:#343434;}.cls-119{fill:#313336;}.cls-120{fill:#2f3d59;}.cls-121{fill:#3b4965;}.cls-122{fill:#535353;}.cls-123{fill:#313235;}.cls-124{fill:#93bc78;}.cls-125{fill:#88b46a;}.cls-126{fill:#80b060;}.cls-127{fill:#96bd7c;}.cls-128{fill:#7caf58;}.cls-129{fill:#5d9d31;}.cls-130{fill:#549825;}.cls-131{fill:#4a9119;}.cls-132{fill:#529623;}.cls-133{fill:#85b368;}.cls-134{fill:#181818;}.cls-135{fill:#ebebeb;}.cls-136{fill:#dedede;}.cls-137{fill:#0d0d0d;}.cls-138{fill:#5e5e5e;}.cls-139{fill:#e2e2e2;}.cls-140{fill:#d5d5d5;}.cls-141{fill:#989898;}.cls-142{fill:#e8e8e8;}.cls-143{fill:#121212;}.cls-144{fill:#9a9a9a;}.cls-145{fill:#6c6c6c;}.cls-146{fill:#b4b4b4;}.cls-147{fill:#717171;}.cls-148{fill:#c8c8c8;}.cls-149{fill:#454545;}.cls-150{fill:#4d4d4d;}.cls-151{fill:#3a3a3a;}.cls-152{fill:#0e0d0d;}.cls-153{fill:#76ab51;}.cls-154{fill:#fbfcfa;}.cls-155{fill:#fbfcfb;}.cls-156{fill:#fdfdfd;}.cls-157{fill:#f4f4f4;}.cls-158{fill:#757575;}.cls-159{fill:#434343;}</style></defs><path class="cls-1" d="M447,97.81a1,1,0,0,1,0,.67c-.78,1.41-.38,2.94-.38,4.41q0,87.71,0,175.42c0,1.35.28,2.73,0,3.36,0-.52,0-1.75,0-3q0-88.09,0-176.18c0-1.34-.35-2.75.36-4,1,1.89.45,3.91.45,5.86q0,196.88,0,393.74c0,5.34.57,10.71-.35,16a2.71,2.71,0,0,1-1-1.83c-.16-3.56-.75-7.15.55-10.65.06-19.15,0-38.31,0-57.46q0-78.92,0-157.84,0,78.87,0,157.75c-.08,19.22.16,38.45-.12,57.68a1.83,1.83,0,0,1-2.67.08c-1.38-2-.86-4.36-.86-6.56q0-106.08,0-212.16,0-93,0-185.92c0-12-1.28-23.91-.65-35.85,1.16-21.83.31-43.66.83-65.48a3.4,3.4,0,0,1,.53-1.34A1.36,1.36,0,0,1,444.82-6c1.81.47,2.15,1.84,2.15,3.46,0,15.58.64,31.21-.29,46.74-.43,7.1-1.27,14.32-1.66,21.45-.47,8.38-.07,16.86.15,24.3.12-8-.52-17.07,0-26.09.08-1.32-.23-3.14,1.7-3.77A4,4,0,0,1,448,63.55c-1.57,9.84,0,19.68-.15,29.52A9.78,9.78,0,0,1,447,97.81Z" transform="translate(-149.26 58.27)"/><path class="cls-2" d="M446.78,512.53c.1.53.21,1.05.31,1.57l-.11,1.3c-.85,1.26,0,2.79-.65,4.09l-2.28,7.15c-1,2.08-2,4.15-3,6.19C433.88,545,423,551.72,409.17,552c-31.31.55-62.64.18-94,.19a4.33,4.33,0,0,1-3.18-.78c-4.83-.81-9.7-.17-14.54-.35-1.9-.08-2.82-.48-1-2.21a28.33,28.33,0,0,1,8.16-.73h99.08c2,0,4,.07,6-.11,9.73-1.66,18.16-5.68,24.47-13.53,3.91-4,5.19-9.42,7.89-14.07,1.89-.88,2.37-2.51,2.54-4.43C444.71,514.51,444.39,512.58,446.78,512.53Z" transform="translate(-149.26 58.27)"/><path class="cls-3" d="M295.56-58.1l84.57-.13c9.48,0,19-.11,28.44,0,15.57.27,31.22,11.53,35.56,25.38-.21,1.69.07,3.56-1.65,4.73-2.88-1-2.06-4.44-4-6.12C432.89-43.87,425-50.72,413.82-53a59.18,59.18,0,0,0-11.45-1.22c-10.2-.09-20.4.36-30.59-.24-2.61-1.49-5.45-1.14-8.27-1-4.26.2-8.58-.53-12.79.71a3.85,3.85,0,0,1-1.21-.26,10.52,10.52,0,0,0-5.45-1c-10.44.67-20.88.22-31.31.17-4.79,0-9.57-.32-14.37-.09C297-55.84,295.59-56.2,295.56-58.1Z" transform="translate(-149.26 58.27)"/><path class="cls-4" d="M151.46,517c-1.07-2.77-.63-5.67-.63-8.51q0-177.42,0-354.83c0-3.41.45-6.89-1.36-10.06.63-2.06,0-4.19.41-6.26.4-1.81,0-3.65.29-5.46.14-1,.09-2.53,1.87-1.28.86,1.64.6,3.42.6,5.15q0,57.48,0,115c0,1.47-.39,3,.51,4.38,1.28,5.62,2.06,11.25-.42,16.78-1.67-2.08-.49-4.5-.73-6.74-.21-2,0-4-.16-6,.59,4.18-.47,8.44.44,12.6a1.89,1.89,0,0,1,.46,1.23c-.06,14-.47,28.07.22,42.1a2.27,2.27,0,0,1-.77,3.06c-.58,10.08-.08,20.17-.28,30.25,0,1.32.41,2.71,0,3.41.17-10.72-.11-22,.14-33.27,1.24-.88,1.48.24,1.73,1a14.55,14.55,0,0,1,.34,4.37c0,.68,0,1.36,0,2,0,2.46,0,4.92,0,7.38,0,.69,0,1.39,0,2.08q0,19.78,0,39.57c-.23,2.33.52,4.78-.82,7a.85.85,0,0,1-1.22-.05c-.29-8,0-16-.15-22.75.32,8-.08,17.19.52,26.47.69,10.7.18,21.47.15,32.21,0,4.36.33,8.74-.64,13.06-.05.24,0,.49-.27.64.32.09.42,0,.32-.27a1.45,1.45,0,0,1,0-.75,2.81,2.81,0,0,1,1.29-2.11c1.62,2,2.05,11.47.6,13.5-.27.38-.65.15-1,.07a6.1,6.1,0,0,1-.38-.6c-.24-.33-.25-.27-.22.13.63,8.31.25,16.63.29,24.95.05,11.8,0,23.6,0,35.4-.09,4.73.44,9.47-.37,14.18A2.19,2.19,0,0,1,151.46,517Z" transform="translate(-149.26 58.27)"/><path class="cls-5" d="M411,548.4c-1.24,1.28-2.83.72-4.26.72q-51.94,0-103.91,0c-2.18,0-4.36,1.21-6.54.08-1.75,1.26-3.78,1.09-5.78,1.09-20.1,0-40.22-.18-60.32.1-9.44.13-18.93-.63-28.35.95a20.63,20.63,0,0,1-7.07-.33c-3.63-.69-7.28.37-10.94.33-16.62-2.5-31.51-18.29-32.37-34.34h.33c1.92-.12,2.19,1.61,3,2.72,1.35,1.86,1.77,4.26,3.42,6a96.91,96.91,0,0,0,5.37,8.09c5.92,6.74,12.85,11.76,21.94,13.29a28.1,28.1,0,0,0,4.83.34q48.67,0,97.35,0,57.68,0,115.33,0c2,0,4-.08,6,.09A3,3,0,0,1,411,548.4Z" transform="translate(-149.26 58.27)"/><path class="cls-6" d="M183.83,551.29l-.24-.71c4.2.52,8.24-2.54,12.63-.3,2.49,1.27,5.63.69,8-.21,5.14-1.93,10.27-.19,15.38-.71a75.41,75.41,0,0,1,7.72-.26c23,.08,46,0,69,0-.67,1.67.48,1.5,1.49,1.49,3.59,0,7.18,0,10.76,0,1.19,0,2.51-.4,3.49.71-40.24,1-80.48.81-120.73.76a4.9,4.9,0,0,1-.74-.11c-1.73-.7-3.64.2-5.37-.58Z" transform="translate(-149.26 58.27)"/><path class="cls-7" d="M295.56-58.1A2.46,2.46,0,0,0,298-56.73c15.27-1,30.56.94,45.84-.32,2-.16,4.85-.72,6.41,1.83-1.55,1.49-3.52,1-5.34,1q-26.19,0-52.37,0c-.67,0-1.36,0-2,0-3.36-.1-6.72.08-10.07-.13a5.53,5.53,0,0,1-1.13-.23c-1.18.21-2.07-2.35-3.44-.35a2.8,2.8,0,0,1-1.62.14c-4.74-1.67-9.49-.93-14.23,0a4.18,4.18,0,0,1-1.22-.17c-4-1.34-8.13-.56-12.16-.65-12-.27-24.09-.6-36.14-.17-3.72.14-7.38-1.08-11.16-.49a2.22,2.22,0,0,1-2.76-1.89h84c2.73,1,5.47.17,8.2,0Z" transform="translate(-149.26 58.27)"/><path class="cls-8" d="M155.05-35.11c6-12.48,15.76-20.1,29.54-22.35,1.41,1,4.2-.63,4.59,2.38a3.79,3.79,0,0,1-1.75,1.19c-12.53,2.34-22.27,8.53-28,20.27-.51,1-.85,2.43-2.47,2.4C155.61-32.18,155.52-33.74,155.05-35.11Z" transform="translate(-149.26 58.27)"/><path class="cls-9" d="M189.09-55.22c-1.16-.83-2.31-1.52-3.87-1.08s-.75-.59-.63-1.16a.41.41,0,0,1,.59-.06c1.48-.74,3.15.09,4.64-.57h6.78a5.81,5.81,0,0,0,4.54.81c4.53-.78,9,.56,13.69.3,10.09-.56,20.26.2,30.39.22,3.56,0,7.08,1.18,10.69.11a3.56,3.56,0,0,1,3.65,1.44c-1.31,1.32-3,1-4.59,1q-30.65,0-61.3,0C192.09-54.18,190.39-53.9,189.09-55.22Z" transform="translate(-149.26 58.27)"/><path class="cls-10" d="M149.47,63.2c2.68-9.36.83-18.93,1.34-28.39-2.09-3.68-.71-7.37-.05-11.06a5.79,5.79,0,0,0,.1-4.51c-.09-.42-.16-.83-.21-1.26,1.18-7.67.31-15.4.61-23.09a1.15,1.15,0,0,1,.78-1,1.83,1.83,0,0,1,1.87.49c-.11,6.31,1.16,12.52.56,19-.49,5.19.5,10.64,0,16-.32,3.61-.34,7.22-.38,10.83,0,1.48.21,3-.79,4.33-.72.3-1.16.11-1.25-.7-.14.4.1.74.17,1.11.79,4,.27,8.11.37,12.17.08,3.32,0,6.64.24,10a1.53,1.53,0,0,1-.69,1C149.3,67.48,150.22,64.87,149.47,63.2Z" transform="translate(-149.26 58.27)"/><path class="cls-11" d="M447,97.81c.59-9-.82-18-.94-27,0-3.55,2.41-6.89.69-10.49-1.85-4.45-.86-9-.53-13.55.07-1,.37-1.93.37-2.93q0-23.51,0-47a5,5,0,0,0-.31-2.19c-.92-3.08-.32-6.23-.44-9.35.11-2.36-.68-4.88,1.25-6.91.89,1.63.55,3.42.55,5.14,0,20.37-.05,40.73,0,61.1.08,16.3,1.1,32.58.85,48.88C448.53,95.2,448.61,96.75,447,97.81Z" transform="translate(-149.26 58.27)"/><path class="cls-12" d="M151.6-5.74q0,12.43,0,24.85c-2-.33-2.07-1.55-1.45-3.1,1.12-1.14.7-2.58.71-3.9,0-9.94-.08-19.88.06-29.82.09-6.07.94-12,4.18-17.4a4,4,0,0,1,1.8,3.88c0,.16-.08.31-.11.47-.66,1.35-.47,2.81-.57,4.24a8.41,8.41,0,0,1-.24,1.49,11,11,0,0,0-.38,3.52,4.19,4.19,0,0,1-.14,1.81c-.62,1.32-.13,1.67,1.13,1.54a4.41,4.41,0,0,1,0,4,2.36,2.36,0,0,1-1.42.94c-.51.12-1.05.17-1.57.26-1.59.65-.84,2.06-1,3.15C152.41-8.43,152.77-6.91,151.6-5.74Z" transform="translate(-149.26 58.27)"/><path class="cls-13" d="M447.11-21.62q-.15,3.48-.28,7a1.89,1.89,0,0,1-2.68,1,2,2,0,0,1-.71-.8,8.37,8.37,0,0,1-.39-2.72c0-.55,0-1.1,0-1.66,0-1.66.18-3.36-.59-4.94-.47-1.51-1.26-3,.06-4.5.58-1.51.35-3.32,1.65-4.57A28.09,28.09,0,0,1,447.11-21.62Z" transform="translate(-149.26 58.27)"/><path class="cls-14" d="M149.47,63.2l2.14,4.55c1.9,3.11,1.21,6.55.76,9.75a82.58,82.58,0,0,0-1.27,13.59c0,1.38.33,3.08-1.6,3.71Z" transform="translate(-149.26 58.27)"/><path class="cls-15" d="M149.5,94.8c1.62-4.55.07-9.38,1.29-14,1.12-4.25.74-8.68.82-13h.74c2.13,3.87,1.3,8.12.86,12-.82,7.48-.3,14.93-.56,22.39-.06,1.6.19,3.25-.5,4.79a.9.9,0,0,1-1.19.49C150.46,103.25,151.63,98.84,149.5,94.8Z" transform="translate(-149.26 58.27)"/><path class="cls-16" d="M150.15,137.54c-.22,2,.6,4.12-.67,6q0-15.44,0-30.86a1.23,1.23,0,0,1,1.07.53,6.72,6.72,0,0,1,.74,2.43,20.43,20.43,0,0,1,0,9.49C150.58,129.23,150.51,133.4,150.15,137.54Z" transform="translate(-149.26 58.27)"/><path class="cls-17" d="M150.1,16a3.07,3.07,0,0,0,1.45,3.1,2.53,2.53,0,0,0,.1.67,4.61,4.61,0,0,1-.05,3.73c-.78,3.73-2.06,7.43-.79,11.3-.37-.32-1-.6-1.07-1C149,27.89,149.84,22,150.1,16Z" transform="translate(-149.26 58.27)"/><path class="cls-3" d="M288.77-58.1c-2.73.2-5.47,2.46-8.2,0Z" transform="translate(-149.26 58.27)"/><path class="cls-18" d="M150,112.84a5.08,5.08,0,0,0-.52-.15c-.79-2.1.81-3.53,1.49-5.22l.61.07c1,.87.92,2,.66,3.11a4,4,0,0,1-1.74,2Z" transform="translate(-149.26 58.27)"/><path class="cls-19" d="M441.05,532.83a11.78,11.78,0,0,1,3-6.19A11.39,11.39,0,0,1,441.05,532.83Z" transform="translate(-149.26 58.27)"/><path class="cls-5" d="M185.19,551.44c1.8.14,3.69-.62,5.37.58C188.74,552.15,186.91,552.36,185.19,551.44Z" transform="translate(-149.26 58.27)"/><path class="cls-8" d="M189.82-58.09c-1.43,1.14-3.08.46-4.64.57A8,8,0,0,1,189.82-58.09Z" transform="translate(-149.26 58.27)"/><path class="cls-19" d="M446.33,519.49c0-1.4-.63-2.89.65-4.09A6.51,6.51,0,0,1,446.33,519.49Z" transform="translate(-149.26 58.27)"/><path class="cls-9" d="M444-5l0,506.86-.66.31c-.92.05-1.29-.56-1.58-1.28a26.93,26.93,0,0,1-.29-6.34q0-123,0-246.08,0-107.49,0-215c0-2.24-.08-4.49.12-6.73.52-2.12,1-4.24.19-6.4a16.52,16.52,0,0,1,0-5.74c.87-3.65.55-7.33.26-11a4.61,4.61,0,0,1,0-1.23c.68-2.36-.27-4.94,1-7.23A.75.75,0,0,1,444-5Z" transform="translate(-149.26 58.27)"/><path class="cls-20" d="M444-5h-.75a1.57,1.57,0,0,0-.73,1.47c.1,8.86-.46,17.7-.17,26.55a25.52,25.52,0,0,0-.61,6.69q0,46.36,0,92.74V279.94q0,84.84,0,169.68c0,1.74.81,3.8-1.12,5.17-2.37-2.19-1-5.07-1.4-7.63.09-6.48-.15-13,0-19.43.05-5.5,0-11,0-16.51q0-7.2,0-14.4,0-17.22,0-34.46,0-190.26,0-380.5a15.21,15.21,0,0,0-.29-4.41,39.18,39.18,0,0,0-2.39-8c-.86-2.94-3.36-5-4.4-7.8-.12-.33-.22-.67-.31-1-.12-2-3.39-2.94-2-5.53,3.82,1.49,5.35,5.15,7.67,8.07a36.83,36.83,0,0,1,2.07,3.49c2.14,5.61,4.08,11.26,3.75,17.4A2.33,2.33,0,0,0,444-14v0a7.52,7.52,0,0,1,0,8.23Z" transform="translate(-149.26 58.27)"/><path class="cls-21" d="M447,98.47v185l-.62.06c-.05-1-.14-1.91-.14-2.86q0-89.16,0-178.31c0-1.31-.5-2.78.74-3.88Z" transform="translate(-149.26 58.27)"/><path class="cls-21" d="M446.23,444.17V285.91c1.07.65.7,1.43.7,2q0,76.82,0,153.61c0,.88-.08,1.75-.13,2.62C446.61,444.5,446.42,444.5,446.23,444.17Z" transform="translate(-149.26 58.27)"/><path class="cls-22" d="M446.83-5.75q0,33-.05,66.07c-2.1,10-1.48,20-.83,30.07.12,1.82.52,3.6-.13,5.41-1.49-.33-1.05-1.4-1.07-2.15-.15-8.8-.08-17.59-.64-26.4a80.35,80.35,0,0,1,.77-18.73c3-17,.42-34.05,1.37-51a4,4,0,0,0-1.52-3.21A1.43,1.43,0,0,1,446.83-5.75Z" transform="translate(-149.26 58.27)"/><path class="cls-19" d="M446.78,512.53c-1.73.88-1.19,2.51-1.31,3.92-.17,2-.44,3.9-3,4.21-1-1.42-.13-2.77.14-4.15a14.08,14.08,0,0,1,.68-1.41c.53-1.4,1.21-2.8,0-4.21a3.57,3.57,0,0,1-.72-1.49c.37-2.51-.22-5.2,1.36-7.5h2.24c.24-.36.44-.36.59.06Z" transform="translate(-149.26 58.27)"/><path class="cls-21" d="M446.81,502a2.88,2.88,0,0,0-.59-.06q0-28.87,0-57.73h.58Z" transform="translate(-149.26 58.27)"/><path class="cls-23" d="M446.83-5.75l-2.1,0H444V-14l2.85-.68Z" transform="translate(-149.26 58.27)"/><path class="cls-24" d="M411,548.4h-1.52c-1.29-.72-2.69-.36-4-.36q-59.07,0-118.13,0-47.65,0-95.31-.07c-1.21,0-3.08,1.18-3.76-1.09,2-1.61,4.31-1,6.49-1q105.21,0,210.41,0a22.79,22.79,0,0,0,6-.29c2.72-.87,5.44-1.75,8.22-2.43,3.82-.35,6.64-2.56,9.36-5,1.64-1.48,2.81-3.54,5.14-4.18.64,0,.92.49,1.16,1C428.7,542.45,420.86,547.23,411,548.4Z" transform="translate(-149.26 58.27)"/><path class="cls-25" d="M435,534.89l-.75-.74c-.43-1.1.19-2,.72-2.78a34.59,34.59,0,0,0,5.85-18.69,3.49,3.49,0,0,1,.8-2.43.89.89,0,0,1,1-.08c1.11,1.71.71,3.59.59,5.43v.55l-.75,4.51C440.55,525.7,438.7,530.79,435,534.89Z" transform="translate(-149.26 58.27)"/><path class="cls-26" d="M438.74-33.48c-2.45-4.18-5-8.31-9-11.21A4,4,0,0,1,427-45.78c-5.48-4-11.74-5.93-18.42-6.69-9.4-.46-18.8-.07-28.2-.2a44.69,44.69,0,0,1-5.55-.18c-1.85-.81-4.06-.18-5.79-1.45,0-2.14,1.23-1.17,2.2-.92,10.87,0,21.74-.1,32.6,0,11.68.13,22,3.68,30,12.67a31.86,31.86,0,0,1,5.65,8.29C439.78-33.44,439.41-33.31,438.74-33.48Z" transform="translate(-149.26 58.27)"/><path class="cls-26" d="M291.79-55.22H351c5.3-1.29,10.69-.18,16-.56a1.06,1.06,0,0,1,1.14,1.46c-1.26,1.09-2.82.89-4.29.89q-33.7,0-67.42,0C294.79-53.46,292.64-52.76,291.79-55.22Z" transform="translate(-149.26 58.27)"/><path class="cls-7" d="M368.26-54.47c-3.29-1.58-6.79-.46-10.18-.72-2.34-.17-4.71,0-7.06,0,1.65-1.71,4-1.51,5.85-1.35a69.51,69.51,0,0,0,10.41-.14,4.46,4.46,0,0,1,4,1.49c-.82,0-1.71-.13-2.25.75A.6.6,0,0,1,368.26-54.47Z" transform="translate(-149.26 58.27)"/><path class="cls-9" d="M438.74-33.48l.74-.75c1.92,1.54,1.38,4.31,3,6-.26,1.59.5,3,.75,4.5,1,1.65-.26,3.61.74,5.26V-17c-1,.43.49,2.48-1.49,2.25C442.78-21.29,441.08-27.45,438.74-33.48Z" transform="translate(-149.26 58.27)"/><path class="cls-27" d="M153.1,334.69v-1.5a15.12,15.12,0,0,0,0-7.5V324.2c.77-1.68.48-3.46.33-5.15-1.29-14.56-.68-29.15-.48-43.71.07-5.32.85-10.7.47-16-1.46-20.67,0-41.37-.84-62a5.71,5.71,0,0,1-.14-1.36c.7-8.31.38-16.62.2-24.92a7.47,7.47,0,0,0-.47-1.13,4.76,4.76,0,0,1-.08-2.31c1.31-2.11.56-4.31.29-6.5a12.62,12.62,0,0,1,.18-3.13c.53-5.68,0-11.37.29-17.05.07-1.55-.68-3.64,1.82-4.23,1.52,1.94.78,4.23,1,6.37q0,175.77,0,351.56c0,2.23.3,4.5-.42,6.69a1.38,1.38,0,0,1-1,.82c-1.58-.93-1.33-2.54-1.43-4-.73-11.2-.27-22.41-.32-33.62,0-6.22-.15-12.44-.06-18.65,0-1.33-.38-2.78.73-3.92.09-.09.25-.16.26-.26a46.62,46.62,0,0,0-.26-13.24c-1.48-3.57-.54-7.31-.65-10.95-.33-10.78,0-21.57-.09-32.36a4.29,4.29,0,0,1,.74-3.18v-6.75c.79-1.66.35-3.42.36-5.13q.07-15.85,0-31.72C153.47,337.12,153.81,335.84,153.1,334.69Z" transform="translate(-149.26 58.27)"/><path class="cls-28" d="M153.1,196.72c1.15,1,.73,2.32.73,3.51q0,40.78,0,81.57,0,19.26,0,38.51c0,1.31.49,2.78-.73,3.89-.33-2,.75-4.16-.75-6-.21-.16-.28-.33-.21-.49s.14-.25.21-.25c.06-.5.83-1,0-1.5-.33-8.54-.28-17.08-.34-25.62,0-6-.27-11.93.34-17.87v-.75h0a37.06,37.06,0,0,0,0-16.5c-.09-6.2-.58-12.39-.29-18.58.15-3.37-.35-6.71-.07-10.07a20.55,20.55,0,0,0,.11-7.5,4.34,4.34,0,0,1,.17-1.3c.19-5.72,0-11.43.1-17.14C152.39,199.3,152,197.86,153.1,196.72Z" transform="translate(-149.26 58.27)"/><path class="cls-29" d="M153.1,441.92c.56,20-.59,40,.74,60a1.6,1.6,0,0,1-2.23,0V436.19C153.62,438.15,152.91,440.15,153.1,441.92Z" transform="translate(-149.26 58.27)"/><path class="cls-30" d="M152.35,218.47v.75a13.31,13.31,0,0,1,0,6.75c.84,7.51-.76,15.08.65,22.61.39,2.1-.4,4.41-.65,6.63-1.55-.84-.7-2.28-.7-3.39q-.1-60.93-.08-121.86l.39-.3a1.81,1.81,0,0,1,1,0,1.64,1.64,0,0,1,.66.72,5.68,5.68,0,0,1,.14,3c-.06.33-.14.65-.23,1a8.48,8.48,0,0,0-.06,4.47c-.78,2,.26,4.14-.27,6.19-.17,5.5.06,11-.45,16.5.28,2,.9,4.08-.37,6v2.24c.88,1.06.73,2.33.73,3.56,0,6.95.06,13.89,0,20.84-.05.72-.34,1.4-.33,2.13C152.48,203.65,153.18,211.07,152.35,218.47Z" transform="translate(-149.26 58.27)"/><path class="cls-31" d="M151.61,501.92h3a1.36,1.36,0,0,1,1.16-.33,1.55,1.55,0,0,1,.91.81,14.83,14.83,0,0,1,.06,7.28c-2.4,2.8-.65,5.81-.41,8.75-.28,2.61,2.53,4.71,1.27,7.48-2.91-2.35-2.87-6.61-5.8-8.95Z" transform="translate(-149.26 58.27)"/><path class="cls-30" d="M152.35,429.92v4.38l-.54,0V355.87h.54v26.07c.8,2.44.34,4.94.34,7.41,0,12.93.07,25.86,0,38.78A3,3,0,0,1,152.35,429.92Z" transform="translate(-149.26 58.27)"/><path class="cls-30" d="M152.35,272.46c.32,7.88.53,15.82.21,23.64-.26,6.63,1.73,13.28-.21,19.85-.93-.73-.74-1.78-.74-2.75q0-19,0-38C151.61,274.23,151.42,273.18,152.35,272.46Z" transform="translate(-149.26 58.27)"/><path class="cls-29" d="M152.35,429.92v-48h.75c0,11.13-.08,22.26,0,33.38.05,4.37.56,8.74,0,13.11A1.52,1.52,0,0,1,152.35,429.92Z" transform="translate(-149.26 58.27)"/><path class="cls-28" d="M153.1,334.69c.93.73.74,1.77.74,2.75q0,17.49,0,35c0,1,.19,2-.74,2.74Z" transform="translate(-149.26 58.27)"/><path class="cls-30" d="M152.35,317.45V353.4c-1.2-.82-.72-1.8-.72-2.61q-.06-14.93,0-29.85C151.62,319.75,151.21,318.42,152.35,317.45Z" transform="translate(-149.26 58.27)"/><path class="cls-32" d="M150.15,137.54c0-5-.46-9.92.58-14.86a17.44,17.44,0,0,0-.46-7.75,2,2,0,0,1,2.06,1.52c.14,4.52,1.27,9.11-.77,13.51h0C149.81,132.24,151.84,135.24,150.15,137.54Z" transform="translate(-149.26 58.27)"/><path class="cls-30" d="M152.35,271.71c-1.73-4.41-.13-8.93,0-13.4v13.4Z" transform="translate(-149.26 58.27)"/><path class="cls-28" d="M153.1,325.69a8.45,8.45,0,0,1,0,7.5Z" transform="translate(-149.26 58.27)"/><path class="cls-33" d="M188.32,546.92c1.25,1.25,2.84.7,4.27.7q47.35,0,94.7,0c.25.16.33.33.25.49s-.16.25-.25.25c-31.56,0-63.13-.16-94.69.09-12.92.1-22.69-5.3-30.5-15.09.24-.46.49-.93,1.11-1,2.26.84,3,3.31,4.91,4.54a34.29,34.29,0,0,0,17.18,8.81C186.37,546,187.54,545.93,188.32,546.92Z" transform="translate(-149.26 58.27)"/><path class="cls-34" d="M287.29,548.39v-.74q59,0,117.93,0c1.43,0,3-.57,4.26.72Z" transform="translate(-149.26 58.27)"/><path class="cls-35" d="M162.85,532.65l-.75.74-4.51-7.49c-.48-2.58-2.32-4.76-2.24-7.5.63-.38.07-1.62,1.18-1.65a2.45,2.45,0,0,1,1.27,2.13A30.31,30.31,0,0,0,162,529.56C162.54,530.47,163.32,531.41,162.85,532.65Z" transform="translate(-149.26 58.27)"/><path class="cls-36" d="M368.26-54.47H369c1.74.29,3.66-.68,5.25.74-1.06,1.15-2.49,1-3.84,1-34,0-68.09.07-102.13,0a11.7,11.7,0,0,1-1.86-.17,17.33,17.33,0,0,0-5.91-.54q-33.63,0-67.24,0c-1.93,0-4,.53-5.7-1a1.56,1.56,0,0,1,1.51-.74H260.3a33.56,33.56,0,0,1,14.25,0h1.5a2.91,2.91,0,0,1,3,0h0a33.66,33.66,0,0,0,11.24,0h1.5c1.24,1.29,2.83.72,4.26.72Q332.16-54.44,368.26-54.47Z" transform="translate(-149.26 58.27)"/><path class="cls-9" d="M274.55-55.22H260.3C265.05-57.16,269.8-57.61,274.55-55.22Z" transform="translate(-149.26 58.27)"/><path class="cls-26" d="M290.29-55.22a17.72,17.72,0,0,1-11.24,0Z" transform="translate(-149.26 58.27)"/><path class="cls-9" d="M279.05-55.22h-3C277.05-57.5,278.05-55.7,279.05-55.22Z" transform="translate(-149.26 58.27)"/><path class="cls-37" d="M187.58-54.48q37.23,0,74.46,0c1.43,0,3-.57,4.26.71-1.68,1.57-3.77,1-5.71,1q-34.8.06-69.6,0a14.86,14.86,0,0,0-4.36.28,10.8,10.8,0,0,1-1.11.32c-13.11,2.29-27.07,13.94-28.78,32.69a1.85,1.85,0,0,1-.69.87c-1.2.83-.23,2.44-1.43,3.57-1.58-2.26.73-4.46,0-6.54.92-1.11-.13-2.62.75-3.75v-1.49c.8-1.41.23-3.26,1.5-4.51h0c1.28-1.1,1.65-2.73,2.42-4.13C165.46-46.54,174.84-53,187.58-54.48Z" transform="translate(-149.26 58.27)"/><path class="cls-15" d="M153.1,44.51c.25-8.45,1.06-16.94.57-25.35-.4-6.74,1-13.5-.52-20.2a6.15,6.15,0,0,1,.7-4.69l.71-.13a2.61,2.61,0,0,1,.81,1.18c.63,10.3.3,20.63.23,30.94-.07,11.55.2,23.1.06,34.65,0,2.36,0,4.72,0,7.09,0,1.63,0,3.27-.14,4.9a6.54,6.54,0,0,1-.25,1.39c-.82,9.06-.12,18.15-.39,27.21-.07,2.45.57,5-.76,7.32a.86.86,0,0,1-1.27,0c-.74-1.27-.5-2.68-.48-4,.1-8.46-.11-16.92.3-25.38.46-9.7-.54-19.41-.37-29.12C152.34,48.35,151.9,46.31,153.1,44.51Z" transform="translate(-149.26 58.27)"/><path class="cls-38" d="M153.1,44.51V109a3.92,3.92,0,0,1,1,2.72q.14,7.8,0,15.58a3.42,3.42,0,0,1-1,2.7h-.75c-.82-3.5-.13-7.05-.37-10.56-.09-1.33.31-2.69-.31-4a3.53,3.53,0,0,1-.65-1.15,3.76,3.76,0,0,1,.53-3.14c0-1.21,0-2.42,0-3.63-.49-13.28.86-26.52.78-39.79-1.54-6.26-.43-12.63-.73-18.94-.11-2.35,0-4.72,0-7.46C152.81,42.33,151.88,44,153.1,44.51Z" transform="translate(-149.26 58.27)"/><path class="cls-39" d="M153.1-14l1.49,0c1.37,2.89,2.06,5.71-.74,8.23h-1.5C152.6-8.48,151.68-11.34,153.1-14Z" transform="translate(-149.26 58.27)"/><path class="cls-40" d="M153.1-14c-.25,2.75.63,5.6-.75,8.25h-.75c0-2.37,0-4.74,0-7.11C151.54-14,151.94-14.48,153.1-14Z" transform="translate(-149.26 58.27)"/><path class="cls-12" d="M151.6,23.51c0-1.24,0-2.49.05-3.73A2.56,2.56,0,0,1,151.6,23.51Z" transform="translate(-149.26 58.27)"/><path class="cls-41" d="M156.05-18.51c0-.24,0-.47.07-.71,2.43.86,1.74,3,1.75,4.68.07,13.55,0,27.1,0,40.65,0,6.46,0,12.93,0,19.39,0,1.6.23,3.25-.69,4.73a.88.88,0,0,1-1.29.18c-1.3-5.13-.67-10.39-.63-15.56.08-13.44,0-26.88.06-40.32.29-2.84-.65-5.78.73-8.53Z" transform="translate(-149.26 58.27)"/><path class="cls-42" d="M156.07-14v8.3a1.21,1.21,0,0,1-.73.4,1.09,1.09,0,0,1-.72-.43h-.76c1.38-2.65.51-5.49.74-8.23Z" transform="translate(-149.26 58.27)"/><path class="cls-8" d="M156.85-31.23a7.15,7.15,0,0,1-1.5,4.51C155.85-28.22,154.13-30.46,156.85-31.23Z" transform="translate(-149.26 58.27)"/><path class="cls-8" d="M155.35-25.23c-.18,1.27.49,2.7-.75,3.75C154.78-22.74,154.1-24.18,155.35-25.23Z" transform="translate(-149.26 58.27)"/><path class="cls-3" d="M444-18.47c-1.42-1.59-.46-3.51-.74-5.26C444.66-22.14,443.7-20.22,444-18.47Z" transform="translate(-149.26 58.27)"/><path class="cls-3" d="M442.48-14.73c.5-.75,1-1.5,1.49-2.25v3A1.5,1.5,0,0,1,442.48-14.73Z" transform="translate(-149.26 58.27)"/><path class="cls-18" d="M151.58,114.27a6,6,0,0,0,0,.73c.21.21.27.4.16.56s-.19.23-.28.23l-1.24-.86c-.09-.7-.19-1.4-.28-2.09l.21-.16C151.53,112.45,151,113.87,151.58,114.27Z" transform="translate(-149.26 58.27)"/><path class="cls-15" d="M151.58,114.27l-1.38-1.59c-.07-1,.48-1.39,1.35-1.51Z" transform="translate(-149.26 58.27)"/><path class="cls-43" d="M441.73,22.77c0-8.21,0-16.42,0-24.63,0-1.3-.51-2.77.75-3.86a20.73,20.73,0,0,1,0,8.23v.76a36.52,36.52,0,0,1,0,11.24v6a8.53,8.53,0,0,1,0,5.24l0,222.7c-.56.24-.91.07-1.06-.52-.1-15.34,0-30.68,0-46v-79.4q0-47.86,0-95.71C441.38,25.46,441.05,24.06,441.73,22.77Z" transform="translate(-149.26 58.27)"/><path class="cls-44" d="M441.74,248.46h.73q0,126.72,0,253.44a.94.94,0,0,1-1.25-.44,9.38,9.38,0,0,1-.56-4.42c0-12.62-.28-25.24,0-37.85,1.49-59.7.2-119.41.65-179.1,0-9.33,0-18.65,0-28C441.39,250.89,441.06,249.62,441.74,248.46Z" transform="translate(-149.26 58.27)"/><path class="cls-45" d="M441.74,501.9H444a29,29,0,0,1-.75,8.25l-.36.28-.38-.26v0C440.19,507.58,440.72,504.76,441.74,501.9Z" transform="translate(-149.26 58.27)"/><path class="cls-9" d="M442.49,14.51V3.27A17.86,17.86,0,0,1,442.49,14.51Z" transform="translate(-149.26 58.27)"/><path class="cls-9" d="M442.49,2.51c0-2.74,0-5.49,0-8.23l.73.74C442.89-2.49,444,.14,442.49,2.51Z" transform="translate(-149.26 58.27)"/><path class="cls-9" d="M442.49,25.76V20.52A4.38,4.38,0,0,1,442.49,25.76Z" transform="translate(-149.26 58.27)"/><path class="cls-46" d="M440.21-19.23q0,93.45,0,186.9,0,97.38-.05,194.77c-.79,2.92-.1,5.9-.38,8.84-.09.9.67,2.39-1.25,2.4a3.06,3.06,0,0,1-.68-1.25c-.45-5.62-.26-11.24-.26-16.85q0-185.85,0-371.7A43.49,43.49,0,0,0,436-28.29c-.06-1.16-.59-2.53,1.24-2.88,1.07,2.63,2.31,5.21,2.33,8.14C440.32-21.87,439.34-20.38,440.21-19.23Z" transform="translate(-149.26 58.27)"/><path class="cls-47" d="M441.74,501.9c.66,2.71-.3,5.57.74,8.25-1.58,2.1-.42,4.55-.86,6.82a39.88,39.88,0,0,1-7.39,17.18c-3.25,2.22-5.35,5.77-8.86,7.69-1.71.93-3.3,2.19-5.42,2,1.12-3,4.36-3.38,6.34-5.31,4.92-4.23,7.73-9.74,9.57-15.83,1.93-3.46.93-7.63,2.7-11.11.32-.32,1.14.19,1.07-.13-.93-4.66-.16-9.36-.46-14q0-12,0-24c0-4.85,0-9.7,0-14.54,0-1.46-.2-3,1.05-4.19,1.32-1.38.71-3.1.71-4.65Q441,365,441,280c.24-.34.48-.35.72,0Q441.74,390.93,441.74,501.9Z" transform="translate(-149.26 58.27)"/><path class="cls-24" d="M185.34-52.91l.75-.11c1.39-.61,2.86-.19,4.28-.31q107.37,0,214.74,0c1.48,0,3-.33,4.44.32,7.77.22,14.39,3.25,20.18,8.31,0,2.31,3,2.88,3,5.22-3-.33-4.57-3.31-7.47-3.78a8.67,8.67,0,0,0-4.56-4.26,36.82,36.82,0,0,0-16.29-3.57Q298.6-51,192.8-51c-2.35,0-4.76.36-7-.66A.88.88,0,0,1,185.34-52.91Z" transform="translate(-149.26 58.27)"/><path class="cls-48" d="M440.21,427.66v19.5a1.23,1.23,0,0,1-1.78-.11,51.3,51.3,0,0,1-1.11-15,39.51,39.51,0,0,0,.26-4.29c-.23-1.25-1-.79-.49-.89.1,0,.18,0,.18.12,0,1.55,1.6,3.45-.95,4.46a5,5,0,0,1-.88-3.34q0-19.29,0-38.58c0-1.73-.25-3.5.56-5.16,1.06-1.23,2-1.39,2.7.34a6.49,6.49,0,0,1,.31,2.56c-.13,7.65.78,15.28.47,22.93,0,4.54,0,9.07,0,13.61C439.5,425.11,439.23,426.51,440.21,427.66Z" transform="translate(-149.26 58.27)"/><path class="cls-45" d="M441.73,22.77v99.72c-.25.33-.49.35-.74,0q0-47.93,0-95.85C441,25.34,440.51,23.87,441.73,22.77Z" transform="translate(-149.26 58.27)"/><path class="cls-49" d="M438.73,410.42c.51-8.26-1.2-16.46-.76-24.73,0-1,.24-2.19-1.46-1.52-.24-.28-.62-.5-.65-.89-.55-7.4-1-14.79.28-22.17,2.24-1.19,2.11.45,2.2,1.84.22,3.33-.44,6.68.39,10q0,.38,0,.75c1,1.16.73,2.59.73,3.94,0,5.11,0,10.23,0,15.35,0,1.35-.27,2.77.71,3.95v14.24C439.35,411.64,439.15,410.82,438.73,410.42Z" transform="translate(-149.26 58.27)"/><path class="cls-50" d="M441,122.5h.74q0,39.75,0,79.48c-.24.34-.48.34-.72,0Q441,162.23,441,122.5Z" transform="translate(-149.26 58.27)"/><path class="cls-51" d="M441,202h.72q0,23.25,0,46.49,0,15.75,0,31.5H441Z" transform="translate(-149.26 58.27)"/><path class="cls-52" d="M440.2,396.92c-2.06-.37-1.43-2-1.44-3.25-.05-6.66,0-13.33,0-20,1.5-2.1.42-4.48.75-6.71.22-1.52-.56-3.19.72-4.53Z" transform="translate(-149.26 58.27)"/><path class="cls-53" d="M438.73,447.17h1.48l0,7.52q0,9.36,0,18.73a1.31,1.31,0,0,1-1.91-.39c-1.27-4.22-.48-8.56-.68-12.83-.14-3.08,0-6.16,0-9.24C437.64,449.59,437.62,448.21,438.73,447.17Z" transform="translate(-149.26 58.27)"/><path class="cls-49" d="M437.19-31.17c-.88.52-.66,1.39-.7,2.18.48,2.72,1.17,5.43.23,8.18a1,1,0,0,1-1.13.16c-1.79-2.19-1.63-5-2.29-7.51,0-2.66-1.46-5-1.59-7.62,0-1-1.09-2.55,1-2.91C433.94-36,436.37-34.07,437.19-31.17Z" transform="translate(-149.26 58.27)"/><path class="cls-54" d="M432.71-38.69c-.73,2.31.24,4.42.85,6.54a9.76,9.76,0,0,1,.67,3.92c-.12,0-.33.09-.35.05-2.71-4.59-6.06-8.86-7.17-14.25.32-2,1.45-.88,2.08-.42,1.39,1,2.64,2.24,3.94,3.38Z" transform="translate(-149.26 58.27)"/><path class="cls-55" d="M438.73,410.42l1.47.74q0,8.25,0,16.5c-2.06-.36-1.44-2-1.45-3.23C438.7,419.76,438.73,415.09,438.73,410.42Z" transform="translate(-149.26 58.27)"/><path class="cls-56" d="M440.21-19.23c-1.22-1.09-.58-2.51-.69-3.8C440.65-21.93,440.12-20.52,440.21-19.23Z" transform="translate(-149.26 58.27)"/><path class="cls-45" d="M444,515.4l-.74.75h0a10.67,10.67,0,0,1,0-6h0l.75.75A6.09,6.09,0,0,1,444,515.4Z" transform="translate(-149.26 58.27)"/><path class="cls-57" d="M444,515.4v-4.5C446,512.4,444.56,513.9,444,515.4Z" transform="translate(-149.26 58.27)"/><path d="M426.71-42.43a118.89,118.89,0,0,1,7.52,14.2c.52,2.49,1,5,1.54,7.48,1.49,1.85,1,4.06,1,6.14q0,67.46,0,134.92c0,77.33.33,154.66-.19,232-.18,25.33-.23,50.66-.51,76,1.64,26.37.11,52.77.83,79.14a51.16,51.16,0,0,1-.2,8.21c-1.46,8.7-5.2,16.45-10,23.75L420,543.87l-7.46,2.27c-1.16.68-2.44.35-3.66.35q-109.87,0-219.75,0a28.65,28.65,0,0,1-16.69-5.63,8,8,0,0,1-3.23-4c-2.25-4.94-5-9.67-6.67-14.87a27.94,27.94,0,0,1-1.6-10.29c.31-23.7.08-47.4.14-71.09.23-7-.4-14.09.35-21.11a2.29,2.29,0,0,1,.8-1c1.15-1.54.3-3.27.31-4.88q.1-24.57,0-49.16,0-188,0-376.07c0-2.62,0-5.24,0-7.86.1-3.66,1.94-7,1.75-10.77-.14-2.92,1.44-5.23,2.85-7.56a40.37,40.37,0,0,0,3.8-7.25c3.81-4.37,8.86-6.22,14.39-7.1q55.05,0,110.1-.08c36.83,0,73.65,0,110.47-.06a35,35,0,0,1,13.42,2.81C422.67-48.14,426.16-46.77,426.71-42.43Z" transform="translate(-149.26 58.27)"/><path class="cls-58" d="M169.61,535.64c3.86,8.27,11.61,10.14,19.36,10.36,17.83.5,35.69.17,53.54.17l170,0c-1.36,1.36-3.08.73-4.63.73q-109.77.06-219.54,0a30.51,30.51,0,0,1-21-9.77c-.34-.85.1-1.38.76-1.82A1.41,1.41,0,0,1,169.61,535.64Z" transform="translate(-149.26 58.27)"/><path class="cls-59" d="M443.22,510.16v6c-1.48-1.84-.42-4-.73-6Z" transform="translate(-149.26 58.27)"/><path class="cls-60" d="M409.55-53,189.74-53c-.18-.19-.22-.35-.12-.49s.17-.18.25-.18l76.43,0h108c10.46,0,20.92,0,31.38,0C407-53.68,408.4-54.12,409.55-53Z" transform="translate(-149.26 58.27)"/><path class="cls-61" d="M155.35,501.91h-.75q0-179.58,0-359.17a.93.93,0,0,1,1.24.45c.74,1.53.55,3.18.55,4.79q0,174.29,0,348.55C156.4,498.37,156.74,500.32,155.35,501.91Z" transform="translate(-149.26 58.27)"/><path class="cls-62" d="M155.35,142.74h-.74c0-2,0-4,0-6-1.73-2.91-.24-6.1-.76-9.12a13.8,13.8,0,0,1,0-4.71c.3-15.54.51-31.07.4-46.61a4.14,4.14,0,0,1,.36-2.54c0-.25,0-.49,0-.74,2.45.84,1.75,3,1.76,4.67.08,11.82,0,23.64,0,35.47,0,8.33,0,16.67,0,25C156.38,139.74,156.67,141.44,155.35,142.74Z" transform="translate(-149.26 58.27)"/><path class="cls-28" d="M154.59,127v9.74c-1.56,3.41-.36,7-.74,10.51-.42,3.74.9,7.59-.75,11.24a56.63,56.63,0,0,1,0-14.25,7.82,7.82,0,0,1,0-6,6.13,6.13,0,0,1,0-4.5h0c.78-1.62.19-3.34.39-5C153.59,128,153.14,126.89,154.59,127Z" transform="translate(-149.26 58.27)"/><path class="cls-28" d="M152.35,196v-1.5c.86-5.65.12-11.34.4-17,.12-2.58-.43-5.18.35-7.73.81.62.75,1.52.75,2.39,0,6.87,0,13.75,0,20.62a6.55,6.55,0,0,1-.76,3.23Q152.73,196.48,152.35,196Z" transform="translate(-149.26 58.27)"/><path class="cls-3" d="M153.1,169.73c0,7,0,13.92,0,20.88,0,1.3.49,2.76-.73,3.86q0-12.37,0-24.75Z" transform="translate(-149.26 58.27)"/><path class="cls-3" d="M152.35,196h.75v.75c0,6.09,0,12.17,0,18.26,0,1.19.41,2.52-.73,3.49Z" transform="translate(-149.26 58.27)"/><path class="cls-3" d="M153.1,144.23v17.25q-.37.53-.75,0c0-4.59,0-9.17,0-13.76C152.38,146.53,152,145.21,153.1,144.23Z" transform="translate(-149.26 58.27)"/><path class="cls-28" d="M152.35,161.48h.75c.57,2.1,2.22,4.34-.74,6Q152.34,164.48,152.35,161.48Z" transform="translate(-149.26 58.27)"/><path class="cls-3" d="M152.35,226v-6.75A6.78,6.78,0,0,1,152.35,226Z" transform="translate(-149.26 58.27)"/><path class="cls-3" d="M154.59,127c-1.86,2,.38,4.8-1.49,6.75V109h.75c.8,3.65.13,7.35.37,11,.09,1.33-.36,2.71.37,4A2.49,2.49,0,0,0,154.59,127Z" transform="translate(-149.26 58.27)"/><path class="cls-3" d="M151.51,115.79l.12-.79c1.64,4.93.27,10,.72,15l-.79,0Q151.55,122.88,151.51,115.79Z" transform="translate(-149.26 58.27)"/><path class="cls-3" d="M153.1,133.74v4.5A3.4,3.4,0,0,1,153.1,133.74Z" transform="translate(-149.26 58.27)"/><path class="cls-63" d="M155.35,142.74q0-32.75,0-65.47c0-1.43.57-3-.71-4.26,0-1.5,0-3,0-4.51.73-1.29.37-2.69.37-4q0-33.07,0-66.15c0-1.35-.34-2.74.34-4a5.77,5.77,0,0,1,.72,0q0,28.11.08,56.22c1.57,2,1,4.32,1,6.51q0,94.93,0,189.88,0,62.61,0,125.22,0,44.6,0,89.21c0,11.86,0,23.72,0,35.58,0,1.7.37,3.54-1,5a6.11,6.11,0,0,1-.74,0Z" transform="translate(-149.26 58.27)"/><path class="cls-64" d="M156.09,501.88l0-40.48a.91.91,0,0,1,1.22.46,6.12,6.12,0,0,1,.52,2.92q0,23.39,0,46.78a7.16,7.16,0,0,1-.23,1.85c-.27.71-.61,1.33-1.49,1.36a3.68,3.68,0,0,1-.07-4.58Z" transform="translate(-149.26 58.27)"/><path class="cls-65" d="M156.08,510.19l0,4.45a4.35,4.35,0,0,1-.78,3.76c-.3-2-.5-4.12-.94-6.13C154.07,510.71,154.74,510.25,156.08,510.19Z" transform="translate(-149.26 58.27)"/><path class="cls-66" d="M156.11,516.89c0-.75,0-1.5,0-2.25l.72-.74a.75.75,0,0,1,1,0,3,3,0,0,1,.5,1c.26,3.56,1.67,6.84,2.47,10.27.09.36.49-.15.78-.16,1,.12,1.37.87,1.82,1.57,1.23,3.22,3.8,5.75,4.71,9.13l-.75,1.5c-2.16-.84-2.62-3.38-4.49-4.5C159.22,528,157.66,522.44,156.11,516.89Z" transform="translate(-149.26 58.27)"/><path class="cls-60" d="M157.59,513.9h-.74q0-26.25,0-52.5c-.66-1.3-.33-2.7-.33-4q0-42.57,0-85.15,0-62.61,0-125.22,0-96,0-192c0-1.48-.3-3,.29-4.44q0-33.31,0-66.62c0-1.09.32-2.28-.71-3.15,0-14.34,11.94-29.54,26-33,1.08-.27,2.17-.48,3.26-.72,0,.25,0,.5,0,.75-3.49,1.25-7,2.34-10.23,4.32-1.32.82-3,1.32-3.36,3.2-2.45,2.68-5.18,5.12-7.11,8.26a36.81,36.81,0,0,0-5.9,20.17q.13,183.11.05,366.19c0,13.12-.19,26.24-.11,39.36.24,10.22-.13,20.45,0,30.67,0,5,0,10.06,0,15.09,0,5.22,0,10.45,0,15.67,0,3.5,0,7,0,10.52q0,3.84,0,7.68c0,3.75,0,7.51,0,11.26,0,5.49,0,11,0,16.46,0,4.34,0,8.68,0,13C158.62,511.18,158.83,512.73,157.59,513.9Z" transform="translate(-149.26 58.27)"/><path class="cls-26" d="M189.87-53.7a5,5,0,0,1-.13.67h-3.65C187.18-54.19,188.59-53.57,189.87-53.7Z" transform="translate(-149.26 58.27)"/><path class="cls-62" d="M155.34-5.72q0,35.16,0,70.33c0,1.31.5,2.78-.73,3.89q0-37.11,0-74.23Z" transform="translate(-149.26 58.27)"/><path class="cls-28" d="M154.59,124c-1.69-4.93-.28-10-.74-15,0-10.45,0-20.91,0-31.36,0-1.31-.49-2.77.73-3.88Q154.59,98.88,154.59,124Z" transform="translate(-149.26 58.27)"/><path class="cls-67" d="M156.79,50.55V247c-.21.33-.42.31-.61,0q0-77-.07-154.09,0-21.18,0-42.36A3.54,3.54,0,0,1,156.79,50.55Z" transform="translate(-149.26 58.27)"/><path class="cls-52" d="M436.46-20.69c.07-2.76-.67-5.53,0-8.3,2.05,3.72,2.19,7.85,2.2,11.9q.07,195,0,390c-1.57-2.79-.37-5.82-.75-8.72-.16-1.24.59-2.89-1.48-3.28-.73-1.29-.36-2.69-.36-4q0-186.75,0-373.52C436.13-18,435.81-19.38,436.46-20.69Z" transform="translate(-149.26 58.27)"/><path class="cls-68" d="M435.73,516.89l0-88.5c.25-.32.48-.29.7,0v3c1.31,3.06,1,6.35,1.06,9.52.16,9.22.1,18.45,0,27.66-.14,9.46.68,18.95-.91,28.37.53-1.5-.15-3.2.93-5.43,2.74,4.85.62,9.69,1.8,14-.05,2.05.66,4.18-.64,6.09,0,4.14-.23,8.23-2.25,12C434.76,521.56,435.28,519.22,435.73,516.89Z" transform="translate(-149.26 58.27)"/><path class="cls-69" d="M435.73,516.89l.75,6.75a31.52,31.52,0,0,1-9.75,15.75c.14-1,0-2.18.48-2.87C431.62,530.64,433.66,523.77,435.73,516.89Z" transform="translate(-149.26 58.27)"/><path class="cls-70" d="M438.74,473.41h1.49v24.74c-2-.17-1.4-1.91-1.86-3-1-5.6-.73-11.25-.74-16.9a8.7,8.7,0,0,1,.62-4.33C438.41,473.74,438.57,473.57,438.74,473.41Z" transform="translate(-149.26 58.27)"/><path class="cls-71" d="M438.73,495.9l1.5,2.25v15.69c-1.27-.29-.44-1.89-1.5-2.19v-6A27.36,27.36,0,0,1,438.73,495.9Z" transform="translate(-149.26 58.27)"/><path class="cls-70" d="M436.48,428.42c-.23,0-.47,0-.7,0L435.72-14c0-2.25,0-4.5,0-6.75l.69.06q0,188,0,376c0,1.87,0,3.75,0,5.62q0,11.63,0,23.24Z" transform="translate(-149.26 58.27)"/><path class="cls-70" d="M436.49,468.9q0-18.73,0-37.48c1.61-1.45.06-3.61,1.57-5.87-.59,7.7,1.07,14.61.68,21.62q0,13.11,0,26.24h0c-2-.13-1.36-1.68-1.45-2.76-.12-1.34.58-2.63.29-4,0-.5-.58-.18-.08-.21.08,0,.13.12.08.36C437.38,467.59,438.19,468.89,436.49,468.9Z" transform="translate(-149.26 58.27)"/><path class="cls-72" d="M429.75,14.47c1.13,1,.62,2.34.62,3.5q0,229,0,458c0,2.91-.83,3.44-3.55,3.43q-127.6-.1-255.21,0c-3.28,0-3.48-1.2-3.48-3.84q.09-210.27.07-420.55c0-6,0-12,0-18a1.08,1.08,0,0,1,.88-.45,1.31,1.31,0,0,1,.82.58c.33,1.54,1,3.06.13,4.63,0,2.67-1.22,5.51,1,7.9,1.44.69,3,.43,4.44.43q123.57,0,247.14,0c1.8,0,3.8.55,5.25-1.16.79-1.53.6-3.18.6-4.79q0-10.3,0-20.62c0-6.34,0-6.42-6.55-6.36-8.74.08-17.48-.06-26.22,0q-95.76.11-191.53,0a31.47,31.47,0,0,0-4.12,0,4.24,4.24,0,0,1-2.82-.81c-.65-.39-1.48-.82-1.4-1.61s.94-.66,1.57-.66H425.69C427,14.16,428.44,13.87,429.75,14.47Z" transform="translate(-149.26 58.27)"/><path class="cls-73" d="M162.85,418.67h-.7a3.46,3.46,0,0,1-1.06-2.69c-.07-1.13-.05-2.25-.05-3.38q0-215.07,0-430.16c0-1.35,0-2.71.11-4.06a7.59,7.59,0,0,1,.21-1.25c.5-1.62.88-3.27,1.35-4.9.36-1.25.6-2.67,2.32-2.86,1.15,3.54-1.16,6.57-1.44,9.91-.74,1.41-.36,2.94-.36,4.41q0,190.46,0,380.9,0,25,0,50.05C163.19,416,163.54,417.38,162.85,418.67Z" transform="translate(-149.26 58.27)"/><path class="cls-74" d="M162-18.52c0,1.75.12,3.5.12,5.24q0,214.11,0,428.21c0,1.25,0,2.5.07,3.74l-.12,21.7a.82.82,0,0,1-1.18-.4c-1.31-4.23-.34-8.57-.53-12.85-.11-2.34,0-4.69,0-7-.12-7,.1-14,0-21-.25-13.74.07-27.48,0-41.22-.36-123-.07-246.08-.15-369.11,0-2.23-.3-4.51.64-6.66A1.15,1.15,0,0,1,162-18.52Z" transform="translate(-149.26 58.27)"/><path class="cls-75" d="M162.85,364.69q0-190.39,0-380.78c0-1.55-.64-3.27.71-4.63V364.69C163.35,365,163.1,365,162.85,364.69Z" transform="translate(-149.26 58.27)"/><path class="cls-58" d="M299-23q11.79,0,23.56,0c1.62,0,3.56-.21,3.65,2.11.11,2.65-2,2.37-3.73,2.37H276.83a7.49,7.49,0,0,1-1.5,0c-1.53-.35-3.59-.41-3.42-2.59.15-1.94,1.94-1.88,3.5-1.87C283.26-23,291.12-23,299-23Z" transform="translate(-149.26 58.27)"/><path class="cls-76" d="M429.75,14.47c-3.61,0-7.23.11-10.85.11H200.18a6.78,6.78,0,0,0-1.86,0c-.45.14-1.43-.73-1.3.51,0,.32.75.55,1.15.83-1.69,2.29-3.42.35-5.14.05a24.81,24.81,0,0,0-11,.06,5,5,0,0,1-4,.37c-1.38-1.12-3-.85-4.64-.93s-3.28.34-4.55-1c1.18-1.05,2.62-.61,3.94-.61q126.53,0,253.06,0C427.14,13.85,428.58,13.38,429.75,14.47Z" transform="translate(-149.26 58.27)"/><path class="cls-77" d="M161.36,440.43a3.79,3.79,0,0,0,.67-.06q0,32,.06,64c0,6.21-.43,12.46,1.51,18.51-1.11,1.08.52,2.72-.76,3.76l-1.49-1.51c-2.58-3.09-2.44-7-2.81-10.61-.45-4.33.39-8.67.46-13,0-.75.25-1.94,1.48-1.64.64.16.46,1,.39,1.33-1.35-8.63-.29-17.6-.59-26.55-.12-10,0-20.09,0-30.13C160.3,443.07,160.14,441.57,161.36,440.43Z" transform="translate(-149.26 58.27)"/><path class="cls-78" d="M280.56,525.14a21.86,21.86,0,0,1,5.52-26.84,8.56,8.56,0,0,1,1.95-.93c.6,1.4-.56,2.56-.54,3.88-3.5,4.94-6.4,10.09-6,16.45a12.72,12.72,0,0,0,0,5C281.76,523.59,282.45,525,280.56,525.14Z" transform="translate(-149.26 58.27)"/><path class="cls-79" d="M280.56,525.14c.79-2.5-1.4-5,0-7.51,1.25-.15,1.36.87,1.61,1.66,2.62,8,7.66,13,16.52,13.22a3.2,3.2,0,0,1,2.09.72c.31.68-.06,1.08-.58,1.42a44.92,44.92,0,0,1-6.21,1C287.69,534.48,283.69,530.37,280.56,525.14Z" transform="translate(-149.26 58.27)"/><path class="cls-80" d="M250.56-26.73c3.2,1.57,3.56,4.43,2.82,7.33a5.23,5.23,0,0,1-5,3.83c-2.55.15-4.64-.83-5.3-3.65C243.56-24.71,245.09-26.24,250.56-26.73Z" transform="translate(-149.26 58.27)"/><path class="cls-81" d="M168.82,14.46c2.67,0,5.34.17,8,.12,1.33,0,1.37.47.88,1.43-.65,1.29-1.91,1.81-3.11,2.39A4.32,4.32,0,0,0,172,21.51a5.24,5.24,0,0,1-.55,1.37,4.3,4.3,0,0,0-1.39,3,1.61,1.61,0,0,1-.46.87,1,1,0,0,1-1.33-.29C168.43,22.44,167.41,18.39,168.82,14.46Z" transform="translate(-149.26 58.27)"/><path class="cls-82" d="M165-30.63c-1.9,2.22-1.46,5.32-2.88,7.72-1.94-4.5,0-8.56,1.44-12.67.33-.94,1.09-1.64,1.5-2.54,1.23-3.19,3.79-5,6.67-6.52-1,3.69-3.7,6.51-5.25,9.92C165.91-33.4,165-32.18,165-30.63Z" transform="translate(-149.26 58.27)"/><path class="cls-83" d="M162.85,364.69h.74q0,26.82,0,53.66c0,.34-.05.9-.22,1-.48.17-.43-.34-.52-.64Z" transform="translate(-149.26 58.27)"/><path class="cls-84" d="M298.89-44c2.83.31,4.58,1.68,4.82,4.41.2,2.3-2.44,4.76-4.85,4.59a4.47,4.47,0,0,1-4.44-4.56A4.64,4.64,0,0,1,298.89-44Z" transform="translate(-149.26 58.27)"/><path class="cls-85" d="M162.84,526.65c.6-1.18-1.81-3,.76-3.76q3,6.38,6,12.75h-1.52A22.42,22.42,0,0,1,162.84,526.65Z" transform="translate(-149.26 58.27)"/><path class="cls-86" d="M316.64,526.1c-1.23,3-3.79,4.74-6.3,6.52-1.78.19-1.93-.07-1.39-2.38,1.87-2.53,3.72-5.1,6.44-6.83C316.85,523.82,317.15,524.78,316.64,526.1Z" transform="translate(-149.26 58.27)"/><path class="cls-87" d="M250.56-26.73a10.22,10.22,0,0,0-7.51,7.51,5,5,0,0,1,.93-6.59C246-27.81,248.13-28.14,250.56-26.73Z" transform="translate(-149.26 58.27)"/><path class="cls-88" d="M318.79,509.4c.93,3,2.41,5.86.8,9-.67-.69-1.26-1.89-2.21-.2-.27.48-.81.34-1.2,0-.89-2.64-.22-5.27,0-7.91A2.08,2.08,0,0,1,318.79,509.4Z" transform="translate(-149.26 58.27)"/><path class="cls-89" d="M306.85,495.81c1.92,1.38,4.51,1.74,5.92,3.89.56.94.71,1.82-.4,2.5a12.18,12.18,0,0,1-7.46-4.78C305.08,496.31,305.58,495.59,306.85,495.81Z" transform="translate(-149.26 58.27)"/><path class="cls-90" d="M306.85,495.81l-1.68,1.72c-2.33,1.29-4.46.26-6.6-.61-.78-1.11-.41-2,.6-2.68a2.91,2.91,0,0,1,2.43.12C303.25,495.22,305.28,494.65,306.85,495.81Z" transform="translate(-149.26 58.27)"/><path class="cls-91" d="M294,535.67c1.64-2,3.91-1.47,6-1.53,1.17.83,3,.17,3.89,1.6A15,15,0,0,1,294,535.67Z" transform="translate(-149.26 58.27)"/><path class="cls-92" d="M287.34,500.44c-1-1.3.6-2,.69-3.06a8.42,8.42,0,0,1,4.51-2.22c.38.84-1,2.31.93,2.61A7.21,7.21,0,0,1,287.34,500.44Z" transform="translate(-149.26 58.27)"/><path class="cls-93" d="M316.58,518.45a3.79,3.79,0,0,0,.45-.54c.52-1,.05-3,1.56-2.82,1.76.22.57,2.21,1,3.34-.18,1,.26,2.2-.8,3-.9-.32-2-.09-2.66-1.08A1.59,1.59,0,0,1,316.58,518.45Z" transform="translate(-149.26 58.27)"/><path class="cls-94" d="M309.22,533.5a6.56,6.56,0,0,1-3.09,1.46c-1.27.42-2.5.76-2.72-1.2a3.4,3.4,0,0,1,3.83-2.26C308.19,531.87,308.57,532.82,309.22,533.5Z" transform="translate(-149.26 58.27)"/><path class="cls-95" d="M303.79,533.39c.06,1.6,1.29,1.45,2.34,1.57-.57.73-1.41.7-2.21.78-1.31-.5-3.39.87-3.89-1.6l.78-.73A2,2,0,0,1,303.79,533.39Z" transform="translate(-149.26 58.27)"/><path class="cls-93" d="M293.3,497.41c-3,.19-1.2-1.26-.76-2.25a6.23,6.23,0,0,1,3.73-.78c.07.15.13.3.19.45.1,1-1.75,1.27-.88,2.52A1.47,1.47,0,0,1,293.3,497.41Z" transform="translate(-149.26 58.27)"/><path class="cls-96" d="M316.43,520.56c1-.24,2.18-1.11,2.36.85-1,1.06-.3,2.78-1.5,3.76a13.8,13.8,0,0,0-1.92-2.51C315.18,521.69,315.09,520.76,316.43,520.56Z" transform="translate(-149.26 58.27)"/><path class="cls-97" d="M168.22,26.44l1.32-.08a1.75,1.75,0,0,1,.47,1.17c-.62,3.12.76,6.48-1.13,9.45l-.31.12h-.33Q168.24,31.76,168.22,26.44Z" transform="translate(-149.26 58.27)"/><path class="cls-98" d="M318.79,509.4l-2.24.74a1.64,1.64,0,0,1-1.11-2.14,5.77,5.77,0,0,1,1.9-2.41A4.84,4.84,0,0,1,318.79,509.4Z" transform="translate(-149.26 58.27)"/><path class="cls-43" d="M317.34,505.59c-.07,1.08,0,2.25-1.58,2.33s-1.24-1-1.24-1.89a2.57,2.57,0,0,1,2-1.77C317.15,504.44,317.26,505,317.34,505.59Z" transform="translate(-149.26 58.27)"/><path class="cls-27" d="M316.47,504.26l-1.57,1.47c-1.41,0-1.82-.8-1.79-2A2.41,2.41,0,0,1,315,502C316.11,502.34,315.58,503.77,316.47,504.26Z" transform="translate(-149.26 58.27)"/><path class="cls-99" d="M309.22,533.5a1.69,1.69,0,0,1-1.74-1.75c.08-1.48.81-2,2.23-1.52,0,.86-1.37,2.06.63,2.39C310.23,533.25,309.74,533.4,309.22,533.5Z" transform="translate(-149.26 58.27)"/><path class="cls-100" d="M315,502a2.71,2.71,0,0,1-1.61,1.48c-1,0-1.56-.47-1.44-1.54.94-.5.85-1.4.85-2.26C313.51,500.47,314.24,501.25,315,502Z" transform="translate(-149.26 58.27)"/><path class="cls-93" d="M301.6,494.36l-2.3.06c-1,.59-2,.95-3,0l0-.05A4.79,4.79,0,0,1,301.6,494.36Z" transform="translate(-149.26 58.27)"/><path class="cls-101" d="M315.62,522.8c1.52.11,1.7,1.16,1.67,2.37l-.65.93a2.72,2.72,0,0,0-1.51-2.43C314.78,523.09,315.09,522.88,315.62,522.8Z" transform="translate(-149.26 58.27)"/><path class="cls-102" d="M156.17,247h.61q0,62.6,0,125.19c-.21.34-.42.36-.64,0Q156.17,309.57,156.17,247Z" transform="translate(-149.26 58.27)"/><path class="cls-67" d="M156.15,372.18h.65l0,89.23h-.69Q156.16,416.79,156.15,372.18Z" transform="translate(-149.26 58.27)"/><path class="cls-38" d="M161.34,474.9v27.69c-1.32-.28-.29-1.6-1.42-2.23,0,8.41-1.59,16.7,1.43,24.78-.25,1.49-.68.9-1.07.08a23.53,23.53,0,0,1-2.67-10.58c.88-3.66.1-7.37.42-11.05.65-3,.18-6.08.32-9.12,0-3.49,0-7,0-10.47a6.16,6.16,0,0,1,.17-1.29c.5-2.58.16-5.18.28-7.77.07-1.42-.08-2.93,1.39-3.9C161.62,472.19,160.4,473.83,161.34,474.9Z" transform="translate(-149.26 58.27)"/><path class="cls-103" d="M158.35,503.41c-.42,3.73.88,7.57-.74,11.23,0-.25,0-.49,0-.74l0-17.25a.66.66,0,0,1,1,.33C158.6,499.12,159.07,501.29,158.35,503.41Z" transform="translate(-149.26 58.27)"/><path class="cls-104" d="M165.09-38.12a46.83,46.83,0,0,0-2.94,15.21,1.93,1.93,0,0,1-.12.67c-.78,1.17.14,2.62-.63,3.79q0,87.53,0,175,0,100.65-.05,201.3c-.71-.09-.84.08-.82.9.22,9-.5,17.92-.39,26.89,0,1.44.84,4.16-2.46,3.72q-.07-71.39-.13-142.79,0-131.18-.07-262.34C157.43-24.14,159.32-31.75,165.09-38.12Z" transform="translate(-149.26 58.27)"/><path class="cls-105" d="M157.64,389.41c1.87-.28,1.48-1.77,1.43-2.92-.46-10.21.94-20.37.82-31.11l1.42,2.52q0,20.61,0,41.22c-1.26.94-.69,2.29-.67,3.44a96.67,96.67,0,0,1-.81,13.71c-.78,1.26.12,3.48-2.19,3.88Z" transform="translate(-149.26 58.27)"/><path class="cls-106" d="M157.62,450.9V435.15c.74-1.41.19-2.92.37-4.37.1-.78-.2-1.9,1.27-1.62a3.37,3.37,0,0,1,.81,1.81,85.33,85.33,0,0,1-.14,12.89,17.54,17.54,0,0,0-.62,4.32C159.21,449.32,159.37,450.74,157.62,450.9Z" transform="translate(-149.26 58.27)"/><path class="cls-107" d="M158.35,496.65h-.73q0-8.25,0-16.5c.79-2.61.15-5.28.39-7.91.07-.78-.4-2.12,1.31-1.64.11,4.19.51,8.39-.21,12.56h0c-.86,3.63-.16,7.31-.39,11C158.64,495,158.93,495.88,158.35,496.65Z" transform="translate(-149.26 58.27)"/><path class="cls-108" d="M159.09,429.17c-1.78,1.67.29,4.3-1.47,6q0-7.5,0-15c1.38-.89,0-2.85,1.47-3.73A16.8,16.8,0,0,1,159.09,429.17Z" transform="translate(-149.26 58.27)"/><path class="cls-109" d="M159.1,470.41c-1.46,1.7-.46,3.74-.75,5.6-.21,1.38.52,2.94-.74,4.14q0-5.64,0-11.26c.81-2.42.16-4.92.37-7.37,0-.64-.12-1.33.51-1.8a1.1,1.1,0,0,1,1.11.62C160.33,463.74,160.94,467.14,159.1,470.41Z" transform="translate(-149.26 58.27)"/><path class="cls-56" d="M158.35,459.92v1.49q-.36.51-.72,0c0-3.5,0-7,0-10.51,1.83-2-.38-4.79,1.47-6.74a2.91,2.91,0,0,1,1,2.33C160,451,159.93,455.57,158.35,459.92Z" transform="translate(-149.26 58.27)"/><path class="cls-110" d="M157.63,461.41h.72c-.33,2.49.75,5.11-.73,7.48Q157.62,465.16,157.63,461.41Z" transform="translate(-149.26 58.27)"/><path class="cls-111" d="M436.49,468.9c1.16-.65.37-2,1.16-3,1,2.5-.61,5.28,1.08,7.53v32.25c-1.56-2.8-.43-5.84-.73-8.75a11.5,11.5,0,0,0-.63-4l-.24,5h-.64Z" transform="translate(-149.26 58.27)"/><path class="cls-112" d="M384,130.72c14.73,1.2,25.36,8.76,32.71,21.27a42.37,42.37,0,0,1,5.56,22.18c-.13,26.86-.51,53.73.09,80.58a43.66,43.66,0,0,1-36.72,44.5,24.48,24.48,0,0,1-3.73.2q-82.65,0-165.28,0c-18.6,0-37.08-16.53-39.66-35a74.32,74.32,0,0,1-.64-10.41c0-26.87.17-53.73-.07-80.59A43.08,43.08,0,0,1,210.47,131a29.06,29.06,0,0,1,4.09-.29c1.18-.63,2.45-.33,3.68-.33q81,0,162.1,0C381.57,130.39,382.84,130.09,384,130.72Z" transform="translate(-149.26 58.27)"/><path class="cls-113" d="M199.52,16.84c1-1.32,2.54-.81,3.84-.81q111.09,0,222.19-.09c3.24,0,4.3.74,4.21,4.13-.25,10.11-.14,20.23-.16,30.35-1.13.83-2.42.43-3.63.43q-126.71,0-253.41,0c-1.21,0-2.5.38-3.64-.41.27-3.23-.83-6.55.62-9.7,2.67,1,3.47,3.85,5.55,5.41a4.12,4.12,0,0,0,2.42,1.31,13.21,13.21,0,0,1,3.45.85,46.62,46.62,0,0,0,12.87.13,30,30,0,0,0,3.08-.74A17.12,17.12,0,0,0,203,42.83a6,6,0,0,0,1.91-3.31,12.41,12.41,0,0,0,.41-2.63c0-3.12,0-6.23,0-9.34a10.1,10.1,0,0,0-1.63-5C202.86,20.2,199.87,19.47,199.52,16.84Z" transform="translate(-149.26 58.27)"/><path class="cls-114" d="M299.66,356.64c-14,0-28-.09-42,.08-2.88,0-3.51-.78-3.44-3.53.19-7.61.13-15.23,0-22.84,0-2.14.31-3,2.8-3q42.87.15,85.76,0c2.38,0,2.91.68,2.87,2.93-.13,7.87-.15,15.74,0,23.6.06,2.45-.83,2.85-3,2.84C328.37,356.6,314,356.64,299.66,356.64Z" transform="translate(-149.26 58.27)"/><path class="cls-115" d="M180.16,48.25c-1.06,1-2.08.14-3.12-.08-.73-.55-1.3-1.42-2.41-1.24-2.46-1.44-3.64-3.93-5.09-6.19.43-1.21-1.28-2.45.05-3.64a29.57,29.57,0,0,1-.05-9.71v-1a.62.62,0,0,1,0-.5,5.6,5.6,0,0,1,1.57-3.44l.1-1.26c.75-1.36,2.13-2.22,2.86-3.59,1.38-.14,2.17-1.67,3.66-1.56a6,6,0,0,0,3.95-.8,46.92,46.92,0,0,1,11.84,0c1.5.64,2.94,1.59,4.67.76l1.35.88c1.81,1.45,4.19,2.4,4.56,5.13,1.29,1.44.95,3.48,1.85,5.07.22,3.54-.38,7.11.32,10.63.39,1-.31,1.63-.72,2.37-1,.63-.75,2.29-2.11,2.63-.13,3.86-3.72,4.06-6,5.66-1.59.23-3.19.41-4.78.66C188.49,48.62,184.24,49.85,180.16,48.25Z" transform="translate(-149.26 58.27)"/><path class="cls-116" d="M168.92,50.44q32.21,0,64.42.06H424.73c1.62,0,3.25,0,4.87-.08-.87,1.37-2.26.81-3.42.81q-126.9,0-253.81,0C171.19,51.23,169.83,51.74,168.92,50.44Z" transform="translate(-149.26 58.27)"/><path class="cls-117" d="M384,130.72H214.56c1.12-1.18,2.58-.71,3.9-.71q80.82,0,161.66,0C381.44,130,382.9,129.54,384,130.72Z" transform="translate(-149.26 58.27)"/><path class="cls-114" d="M288.58,90.2c-1,3.1-1.86,5.88-2.88,8.58-.4,1-.88,2.14-2.58,2-1.51-.09-1.7-.71-2-1.92-.46-1.73-1.46-3.31-2-5-.3-1-.43-1.91-1.39-2.45-.53,1.61-3.49.76-3.2,3.27.17,1.48,0,3,0,4.49,0,1-.29,1.57-1.47,1.57s-1.57-.35-1.55-1.49c0-2.62,0-5.24,0-7.86,0-.72.53-1.51,1-1.1,1.73,1.61,3.24-.11,4.83-.13,3.89,0,4.46.58,5.69,7.18C285.5,95.57,282.83,89.92,288.58,90.2Z" transform="translate(-149.26 58.27)"/><path class="cls-114" d="M257.42,90.73c-1.25.14-2.26.84-3.14-.47a2.74,2.74,0,0,0-3.4-1.31,1.46,1.46,0,0,0-1,1.78c.51,1.44,1.85,1.53,3.17,1.82,2,.45,4,1.1,4.31,3.76a3.79,3.79,0,0,1-2.54,4.12c-2.54.75-5.37.86-7.67-1.23-.8-.73-1.58-1.75-.9-2.53A1.65,1.65,0,0,1,249,97c.41.85,1.14.91,1.71,1.2,1.32.68,2.87.71,3.47-.89.72-1.93-1.17-2.25-2.3-2.44-2.29-.41-4.43-1-5-3.48-.41-1.82-.34-3.72,2.09-4.43,2.76-.81,5.33-.82,7.43,1.45A8.86,8.86,0,0,1,257.42,90.73Z" transform="translate(-149.26 58.27)"/><path class="cls-114" d="M269.46,96.25c-2.22,0-4.07,0-5.92,0-.65,0-1.69-.3-1.63.84a1.56,1.56,0,0,0,1.52,1.37,4.43,4.43,0,0,0,2.47-.5c.77-.39,2.13-.74,2.5.4s-1,2.06-1.66,2.12c-2.22.21-4.75,1.21-6.55-1a6.14,6.14,0,0,1-.42-7.46c1.43-2.48,3.87-2,6-1.61C268.45,90.9,268.42,93.65,269.46,96.25Z" transform="translate(-149.26 58.27)"/><path class="cls-114" d="M316.35,90.25c3.68,0,5.41,1.63,5.43,5.21,0,3.39-1.72,5.21-5.07,5.28-3.55.09-5.45-1.76-5.43-5.29S313,90.27,316.35,90.25Z" transform="translate(-149.26 58.27)"/><path class="cls-114" d="M330.53,97.6c-2-.71-3.55-1.23-5.09-1.8-1.37-.5-2.33-1.64-1.94-3s.92-2.84,3-2.64c2.24.22,4.85-.63,5.8,2.58-1.93,1.7-4.19-2.63-6.19.74A23.71,23.71,0,0,0,330,94.7c1.77.21,2.91,1.15,2.89,2.75a3.52,3.52,0,0,1-2.76,3.12c-2.48.52-5.12.51-7.13-2.1C325.41,96.52,327.87,99.9,330.53,97.6Z" transform="translate(-149.26 58.27)"/><path class="cls-114" d="M300.42,90.33c.88.07,1.91-.4,2.76.43s1.93,1.75,1.2,2.79a1.77,1.77,0,0,1-2.83-.22,1.9,1.9,0,0,0-3.3,0,3.78,3.78,0,0,0,.09,4.5c.85,1,2.16,1.31,3.29-.23a1.66,1.66,0,0,1,2.77,0c.6,1.1-.32,1.89-1.48,2.5a5.58,5.58,0,0,1-6.5-.47c-1.89-1.59-2.17-4-1.23-6.38S297.72,89.62,300.42,90.33Z" transform="translate(-149.26 58.27)"/><path class="cls-114" d="M309.78,95.21c0,1.13,0,2.25,0,3.37s.26,2.26-1.59,2.2c-1.59,0-1.4-1-1.4-2,0-2.24,0-4.49,0-6.74,0-1.16.17-1.84,1.61-1.82,1.59,0,1.39,1,1.4,2S309.78,94.21,309.78,95.21Z" transform="translate(-149.26 58.27)"/><path class="cls-114" d="M293.28,95.52c0,1.37,0,2.75,0,4.12,0,1.07-.7,1.1-1.5,1.11s-1.47-.13-1.46-1.16V91.35c0-1.06.7-1.1,1.51-1.11s1.47.14,1.46,1.16C293.27,92.77,293.28,94.15,293.28,95.52Z" transform="translate(-149.26 58.27)"/><path class="cls-114" d="M291.42,85.74c1,.05,1.78.56,1.78,1.51a1.58,1.58,0,0,1-1.78,1.49c-1,0-1.78-.55-1.78-1.49S290.43,85.79,291.42,85.74Z" transform="translate(-149.26 58.27)"/><path class="cls-114" d="M308.16,85.76c.79.11,1.62.58,1.53,1.57a1.59,1.59,0,0,1-1.87,1.4c-1-.07-1.77-.59-1.69-1.57S307,85.71,308.16,85.76Z" transform="translate(-149.26 58.27)"/><path class="cls-118" d="M169.54,27.39c0,3.24,0,6.47.05,9.71a1.24,1.24,0,0,1-.71-.12C169.23,33.79,168,30.49,169.54,27.39Z" transform="translate(-149.26 58.27)"/><path class="cls-56" d="M161.4-18.45c0-1.3-.48-2.68.63-3.79l0,3.72Z" transform="translate(-149.26 58.27)"/><path class="cls-110" d="M158.35,459.92c-.41-5.29,1.24-10.47.74-15.76q0-6.75,0-13.49c.81-2.78.16-5.64.4-8.44.09-1.06-.49-2.86,1.8-2.06l.06,20.26c0,1.25,0,2.49,0,3.74-1.49,2.53-.49,5.29-.73,7.94s.19,5.43-1.51,7.81Z" transform="translate(-149.26 58.27)"/><path class="cls-56" d="M161.3,420.17c-2.06.41-1.28,2.06-1.45,3.29-.34,2.4.74,4.94-.75,7.21,0-.5,0-1,0-1.5q0-6.37,0-12.75c0-5.68,1.16-11.3.78-17-.14-2.14.9-.37,1.42-.29Z" transform="translate(-149.26 58.27)"/><path d="M193.5,15.2H181.66A21.47,21.47,0,0,1,193.5,15.2Z" transform="translate(-149.26 58.27)"/><path class="cls-74" d="M159.1,459.92c.15-4.55,1.16-9.05.76-13.63-.09-1.08.19-2,1.48-2.12V474.9c-1.21-.63-.28-2.13-1.23-3-1,3.77.78,7.68-1,11.26V459.92Z" transform="translate(-149.26 58.27)"/><path d="M315.62,522.8l-.49.87c-1.25,2.64-3.53,4.43-5.42,6.56l-2.23,1.52-3.69,1.64-3,0c-11.61-.12-15.64-3.27-20.25-15.78-.37-6.77,2.39-12.3,6.78-17.19l6-3c.83,0,1.7.06,2.3-.73a2.09,2.09,0,0,1,2.95-.06l6.62.91C307.44,499,310,500,311.92,502l1.44,1.54a3.56,3.56,0,0,0,1.55,2.23c.13.79,0,1.68.85,2.19.26.74.52,1.48.79,2.22,1.1,2.77-.23,5.54,0,8.31l-.15,2.11C315.66,521.13,315.79,522,315.62,522.8Z" transform="translate(-149.26 58.27)"/><path class="cls-119" d="M250.61-22.28c1.73-.66,1.49.57,1.44,1.54-.1,1.91-1.47,2.78-3,3.35s-1.61-1.05-2.2-1.84A39.68,39.68,0,0,0,250.61-22.28Z" transform="translate(-149.26 58.27)"/><path class="cls-120" d="M250.61-22.28c0,2.64-1.75,3-3.78,3.05-1.54-1-2.21-2.13-.76-3.72,1.31,1.34,2.54.17,3.8-.11Z" transform="translate(-149.26 58.27)"/><path class="cls-121" d="M249.87-23.06c-.69,1.1-1.33,2.39-2.91,2.15-1.12-.17-.82-1.26-.89-2C247.3-24.28,248.55-25,249.87-23.06Z" transform="translate(-149.26 58.27)"/><path class="cls-122" d="M174.05,17.57c0,2-1.55,2.67-2.86,3.59C171.38,19.36,172.7,18.46,174.05,17.57Z" transform="translate(-149.26 58.27)"/><path class="cls-106" d="M171.09,22.42c-.58,1.12-.47,2.56-1.57,3.44C168.76,24.12,169,22.84,171.09,22.42Z" transform="translate(-149.26 58.27)"/><path class="cls-114" d="M299-36.42c-2.22-.27-3.55-1.25-3.4-3.33a3.17,3.17,0,0,1,3.23-3,3.18,3.18,0,0,1,3.35,3.23C302.22-37.37,300.7-36.62,299-36.42Z" transform="translate(-149.26 58.27)"/><path class="cls-123" d="M298.55,496.62l-2.95.06c-1.67-1.35,1-1.33.71-2.25h3Z" transform="translate(-149.26 58.27)"/><path class="cls-103" d="M158.35,494.41c.42-3.74-.9-7.59.75-11.25,0,3.75,0,7.5,0,11.24C158.84,494.74,158.6,494.74,158.35,494.41Z" transform="translate(-149.26 58.27)"/><path class="cls-74" d="M158.35,494.41h.74c-.37,3,.81,6.11-.74,9v-9Z" transform="translate(-149.26 58.27)"/><path class="cls-124" d="M206.4,226.05c4.29-1.68,8.72-.58,13.09-.63,1.14,0,1.09,1.19,1.1,2,0,3.48,0,6.95,0,10.43,0,1-.1,2.24-1.42,2.17-4.25-.24-8.58,1-12.75-.69a3.78,3.78,0,0,1,1-.64c2.78-.54,5.6-.13,8.39-.3.84-.05,2,.62,2.45-.75a25.39,25.39,0,0,1-.27-6.27c.15-2.76-1.11-3.73-3.74-3.65a19.82,19.82,0,0,1-6.6-.39A2.61,2.61,0,0,1,206.4,226.05Z" transform="translate(-149.26 58.27)"/><path class="cls-125" d="M206.39,198.29c4.29-1.71,8.73-.51,13.1-.68a.92.92,0,0,1,.95,1c-.17,4.36,1,8.8-.68,13.09a2.63,2.63,0,0,1-1.33-1.28c-.72-2.43-.37-4.93-.42-7.4,0-2-.91-2.9-2.94-2.94-2.47,0-5,.3-7.4-.42A2.63,2.63,0,0,1,206.39,198.29Z" transform="translate(-149.26 58.27)"/><path class="cls-126" d="M219.75,172.82c1.71,4.28.5,8.72.67,13.09a.92.92,0,0,1-1,1c-4.35-.18-8.78,1.06-13.05-.71a2.52,2.52,0,0,1,1.27-1.32c2.43-.72,4.92-.37,7.39-.42,2,0,2.9-.91,2.94-2.93.05-2.46-.3-5,.4-7.39A2.52,2.52,0,0,1,219.75,172.82Z" transform="translate(-149.26 58.27)"/><path class="cls-114" d="M252.91,236.55c-2,.57.1,2.85-2.33,4,0-3.54-.39-6.81.17-9.91.26-1.41,2.89-1,4.19-.76,2.72.49,2.83,3,2.24,5s-2.07,3.37-4.36,1.57c.36-.35-.09.09.25-.28.85-.95,2.4-1.51,1.88-3.25-.1-.35-.44-.75-.77-.62-1.74.73-.8,2.32-1,3.53A2.5,2.5,0,0,1,252.91,236.55Z" transform="translate(-149.26 58.27)"/><path class="cls-114" d="M272.28,180.23c-1.15,1.21-2.24.91-3.42,0-1.56-1.24-1.18-3-.95-4.45.18-1.19,1.36-2.63,2.53-2.17,2.57,1,2.59-1,3.41-3.22,1.17,3.84.78,6.88.57,9.8-.14,1.88-1.47-.16-2.22.15-.45-.81-.13-1.69-.22-2.53s-.1-1.52-1-1.71a.63.63,0,0,0-.61.32,1.67,1.67,0,0,0,.12,2.05C270.94,179.14,271.76,179.54,272.28,180.23Z" transform="translate(-149.26 58.27)"/><path class="cls-114" d="M272.28,157c-1.15,1.21-2.24.9-3.42,0-1.56-1.25-1.18-3-.95-4.46.18-1.19,1.36-2.62,2.53-2.16,2.57,1,2.59-1,3.41-3.22,1.17,3.83.78,6.87.57,9.8-.14,1.88-1.47-.16-2.22.15-.45-.82-.13-1.69-.22-2.53s-.1-1.52-1-1.71a.62.62,0,0,0-.61.31,1.67,1.67,0,0,0,.12,2.05C270.94,155.9,271.76,156.3,272.28,157Z" transform="translate(-149.26 58.27)"/><path class="cls-114" d="M274.53,264.22c-1.15,1.2-2.24.9-3.42,0-1.56-1.24-1.18-2.95-.95-4.45.18-1.19,1.36-2.63,2.53-2.16,2.57,1,2.59-1,3.41-3.23,1.17,3.84.78,6.88.57,9.8-.14,1.88-1.47-.15-2.23.15-.44-.81-.12-1.69-.21-2.53s-.1-1.52-1-1.71a.63.63,0,0,0-.61.32,1.68,1.68,0,0,0,.11,2.05C273.19,263.12,274,263.52,274.53,264.22Z" transform="translate(-149.26 58.27)"/><path class="cls-127" d="M220.5,267.14a26.22,26.22,0,0,1-14.14,0,2.79,2.79,0,0,1,1.31-1.36,19.33,19.33,0,0,1,6.6-.41c2.67.08,3.79-1,3.76-3.68,0-2.41-.55-4.94.82-7.23a.81.81,0,0,1,1.16,0C220.61,258.7,219.67,263,220.5,267.14Z" transform="translate(-149.26 58.27)"/><path class="cls-128" d="M220.42,146.56v13.35c-4.33.94-8.72.25-13.07.37a.79.79,0,0,1-.39-1.11c2-1.59,4.42-.88,6.67-1a16.92,16.92,0,0,0,4-.33,8.74,8.74,0,0,0,0-9.19c-3.46-1-7.21.69-10.55-1.23a.79.79,0,0,1,.23-1.16C211.65,146.28,216.06,145.61,220.42,146.56Z" transform="translate(-149.26 58.27)"/><path class="cls-114" d="M290.53,171.26c3-.31,4.27.84,3.15,3.63-.36.89-.27,1.36.3,1.89,1.15,1.08,1,2.05,0,3.19-1.41,1.61-3.22,1-4.86.94-1.81-.08-.95-1.68-1-2.62-.14-1.47.07-3-.06-4.45C287.84,171.78,288.44,170.71,290.53,171.26Z" transform="translate(-149.26 58.27)"/><path class="cls-114" d="M282.26,155.36c-.92,3-2.88,2.62-4.32,2.13-1.93-.66-2.08-2.54-1.89-4.37a2.84,2.84,0,0,1,2.81-2.86c2.93-.18,3.39,2,3.92,4.33-1.12,0-2.1.07-3.08.15-.68.06-1.53-.33-2,.48a1.18,1.18,0,0,0,.22,1,1.71,1.71,0,0,0,2.29.59A18.25,18.25,0,0,0,282.26,155.36Z" transform="translate(-149.26 58.27)"/><path class="cls-114" d="M319,155.23c-.94,3.17-2.9,2.75-4.34,2.26-1.93-.65-2.08-2.53-1.9-4.36a2.84,2.84,0,0,1,2.81-2.87c2.92-.19,3.41,2,3.92,4.32-1,0-1.84.06-2.69.16s-1.78-.42-2.38.46c-.33.49.11.93.48,1.26a1.68,1.68,0,0,0,2.6-.11C317.81,156.07,318.17,155.86,319,155.23Z" transform="translate(-149.26 58.27)"/><path class="cls-114" d="M282.84,177.81c-1,.06-1.9.07-2.75.18s-1.78-.42-2.38.45c-.32.48.1.93.47,1.27a1.72,1.72,0,0,0,2.61-.1c.27-.24.51-.85,1.27-.37-.7,2.4-2.67,2-4.11,1.5-1.93-.65-2.08-2.53-1.91-4.36a2.86,2.86,0,0,1,2.81-2.87C281.83,173.26,282.21,175.54,282.84,177.81Z" transform="translate(-149.26 58.27)"/><path class="cls-114" d="M238.39,262.36c1.41,2.77,2.88,1.9,4.62.18-.2,2.92-2.1,2.58-3.49,2.34-2-.36-2.53-2-2.49-3.92s.79-3.19,2.61-3.45c2.87-.41,3.6,1.7,4.09,4C242.17,262.53,240.34,261.49,238.39,262.36Z" transform="translate(-149.26 58.27)"/><path class="cls-114" d="M263.28,154.43c-2,.69-3.69-.33-5,.79-.4.33.09.89.46,1.24,1.46,1.4,2.5-.13,4.1-1.21-.92,3.14-2.89,2.73-4.33,2.25-1.93-.65-2.08-2.53-1.91-4.36a2.84,2.84,0,0,1,2.8-2.87C262.27,150.07,262.77,152.25,263.28,154.43Z" transform="translate(-149.26 58.27)"/><path class="cls-114" d="M268.54,234.21a25,25,0,0,0-2.93,0c-.75.1-1.82-.56-2.18.66-.08.26.21.68.42.95a1.69,1.69,0,0,0,2.33.34,14.63,14.63,0,0,0,1.72-1.45c-.48,2.95-2.34,2.69-3.72,2.38-2.24-.49-2.54-2.35-2.39-4.37a2.88,2.88,0,0,1,2.68-3C267.37,229.44,268,231.57,268.54,234.21Z" transform="translate(-149.26 58.27)"/><path class="cls-114" d="M263,178.28c-1.25,3.34-3.14,3-4.63,2.41-1.92-.74-2-2.65-1.76-4.45a2.86,2.86,0,0,1,2.91-2.75c2.77-.14,3.08,2.07,3.84,3.88-.91,1-2,.43-2.87.61s-1.78-.46-2.26.6c-.1.22.12.71.34,1a1.69,1.69,0,0,0,2.59.22Z" transform="translate(-149.26 58.27)"/><path class="cls-114" d="M245.52,205.72c-1.42,0-2.28-.07-3.13,0s-1.81-.53-2.2.66c-.08.24.2.67.41.94a1.69,1.69,0,0,0,2.33.36,12.25,12.25,0,0,0,1.7-1.43c-.43,2.93-2.3,2.66-3.68,2.36-2.24-.48-2.54-2.33-2.4-4.35a2.9,2.9,0,0,1,2.66-3C244.13,200.92,244.6,203.21,245.52,205.72Z" transform="translate(-149.26 58.27)"/><path class="cls-114" d="M237.39,202.31c-2.52-1-4-4.39-6.28-1.43a4.53,4.53,0,0,0-.06,5.79c2,2.47,3.88.46,6-1.55-.46,3.6-2.45,3.86-4.54,3.56-2.67-.37-3.58-2.47-3.61-4.79s.91-4.39,3.51-4.88C234.55,198.6,236.33,199.19,237.39,202.31Z" transform="translate(-149.26 58.27)"/><path class="cls-114" d="M236.67,178.13c-.26,2.87-2.25,3.13-4.36,2.8-2.5-.39-3.3-2.47-3.43-4.59-.13-2.33.79-4.5,3.32-5,2.05-.44,4.19-.24,4.93,3.13-2.29-1.23-4.37-4.35-6.35-.89-.93,1.62-1.24,3.94.37,5.52C233.21,181.07,235,179.72,236.67,178.13Z" transform="translate(-149.26 58.27)"/><path class="cls-114" d="M295.12,154.75c-.21,3-2.24,3.26-4.34,2.93-2.5-.38-3.3-2.47-3.42-4.58-.13-2.34.79-4.5,3.32-5,2.05-.43,4.19-.23,4.93,3.12-2.29-1.19-4.35-4.35-6.35-.89-.94,1.63-1.25,4,.36,5.51C291.62,157.72,293.49,156.83,295.12,154.75Z" transform="translate(-149.26 58.27)"/><path class="cls-114" d="M237,151.18c-2.13-.9-3.6-4.25-5.89-1.29a4.52,4.52,0,0,0-.05,5.79c2,2.49,3.86.44,6-1.49-.46,3.57-2.47,3.81-4.56,3.5-2.65-.39-3.57-2.5-3.58-4.81s.92-4.43,3.54-4.85C234.49,147.7,236.53,147.93,237,151.18Z" transform="translate(-149.26 58.27)"/><path class="cls-114" d="M295.71,175.44c1.2-1.88,2.54-2.77,4.59-1.31,1.14.81,2,5.9.93,6.44a4.68,4.68,0,0,1-4.88-.07c-1.6-1.18-.77-2.26.71-3.39.89-.68,3.52.25,2.65-1.87C298.6,172.53,297.3,176.19,295.71,175.44Z" transform="translate(-149.26 58.27)"/><path class="cls-114" d="M316.4,175.85c1.44-2.12,2.76-3.25,4.71-1.86,2.38,1.68,1.77,4.42,1.11,6.41-.43,1.3-2.88.58-4.42.43a1.53,1.53,0,0,1-1.25-1.6c0-1.16,1.15-1.45,1.59-2.12.71-1.07,3.64.29,2.51-2S318.37,175.7,316.4,175.85Z" transform="translate(-149.26 58.27)"/><path class="cls-114" d="M249.73,203.47c1.41-2,2.73-3.14,4.69-1.71,2.35,1.71,1.75,4.43,1.06,6.41-.45,1.26-2.9.57-4.43.39a1.51,1.51,0,0,1-1.22-1.61c0-1.17,1.23-1.45,1.61-2.09.67-1.14,3.67.3,2.47-2S251.63,203.55,249.73,203.47Z" transform="translate(-149.26 58.27)"/><path class="cls-114" d="M261.83,259.48c1.45-1.88,2.92-3.05,4.92-1.18s1.39,4.29.68,6.18c-.44,1.2-2.69.41-4.12.4a1.55,1.55,0,0,1-1.46-1.42c-.18-1.35,1.22-1.68,1.64-2.42.65-1.14,3.74.43,2.37-2C264.59,256.73,263.62,260,261.83,259.48Z" transform="translate(-149.26 58.27)"/><path class="cls-114" d="M297.24,152.2c1.16-1.9,2.52-2.78,4.57-1.31,1.14.81,1.95,5.89.92,6.44a4.72,4.72,0,0,1-4.88-.07c-1.6-1.19-.78-2.26.71-3.39.89-.68,3.51.25,2.65-1.87C300.1,149.29,298.8,153,297.24,152.2Z" transform="translate(-149.26 58.27)"/><path class="cls-114" d="M295.54,231.89c1.31-1.92,2.63-3,4.58-1.67,2.38,1.69,1.78,4.43,1.11,6.42-.43,1.31-2.88.57-4.42.43a1.52,1.52,0,0,1-1.25-1.59c0-1.17,1.13-1.46,1.58-2.13.72-1.07,3.64.29,2.52-2S297.39,232.05,295.54,231.89Z" transform="translate(-149.26 58.27)"/><path class="cls-114" d="M314.29,231.85c1.31-1.88,2.64-3,4.6-1.6,2.35,1.71,1.75,4.43,1.06,6.41-.44,1.27-2.89.58-4.43.39a1.52,1.52,0,0,1-1.22-1.61c0-1.17,1.24-1.45,1.61-2.09.67-1.13,3.67.31,2.47-2S316.12,232.13,314.29,231.85Z" transform="translate(-149.26 58.27)"/><path class="cls-114" d="M276.79,231.79c1.47-1.92,2.89-3.11,4.92-1.28s1.4,4.29.75,6.19c-.42,1.26-2.68.44-4.11.44a1.58,1.58,0,0,1-1.53-1.74c0-1.17,1.33-1.45,1.64-2.05.6-1.2,3.69.33,2.42-2S278.62,232.19,276.79,231.79Z" transform="translate(-149.26 58.27)"/><path class="cls-114" d="M305.29,148.4c.82,1,.63,2.85,2.92,1.92,1.45-.59,2.67.83,3,2.12.39,1.76.48,3.69-1.42,5-1.42.94-2.75-.09-4.11-.14-.69,0-.32-1-.33-1.56C305.26,153.27,305.29,150.84,305.29,148.4Z" transform="translate(-149.26 58.27)"/><path class="cls-114" d="M241.89,157.75c-2.47-.08-3.37-1.45-3.35-3.82,0-2.18.81-3.67,3.1-3.65a3.3,3.3,0,0,1,3.59,3.62C245.13,155.78,244.66,157.9,241.89,157.75Z" transform="translate(-149.26 58.27)"/><path class="cls-114" d="M238.57,177.24c-.15-2.19.72-3.69,3-3.71a3.31,3.31,0,0,1,3.65,3.56c0,1.91-.54,3.93-3.27,3.9C239.42,181,238.46,179.6,238.57,177.24Z" transform="translate(-149.26 58.27)"/><path class="cls-114" d="M330.85,157.75c-2.4-.27-3.18-1.73-3.1-4.05s1-3.6,3.32-3.42a3.34,3.34,0,0,1,3.38,3.84C334.27,156.07,333.63,158.07,330.85,157.75Z" transform="translate(-149.26 58.27)"/><path class="cls-114" d="M309,171.65c.81,1,.63,2.84,2.92,1.92,1.45-.59,2.67.83,3,2.11.39,1.76.48,3.7-1.43,5-1.42.94-2.74-.09-4.1-.14-.69,0-.32-1-.33-1.55C309,176.52,309,174.08,309,171.65Z" transform="translate(-149.26 58.27)"/><path class="cls-114" d="M281.39,265c-2.41-.27-3.2-1.73-3.12-4s1-3.6,3.31-3.43a3.35,3.35,0,0,1,3.4,3.83C284.8,263.3,284.14,265.27,281.39,265Z" transform="translate(-149.26 58.27)"/><path class="cls-114" d="M241,230.65c2.15-.67,4.68-1.72,6.47-.4,2.14,1.57.31,4.35,1.16,7.1a2.55,2.55,0,0,1-1-2.55c-.09-1.62.54-4.05-1.83-4-1.84.05-1,2.36-1.17,3.72-.12.89.24,1.91-.8,3-1.13-1.52-.62-3-.68-4.36s-.23-2.76-2.2-2.58Z" transform="translate(-149.26 58.27)"/><path class="cls-114" d="M273.56,231.55c-1.1-.83-2.57.3-3.62-1.11,1.91-1.4,3.95-.44,6.17-.7-.85,2.76-3.63,3.94-4.22,6.58l3.84.34-.05.42h-5.92Z" transform="translate(-149.26 58.27)"/><path class="cls-129" d="M219.79,254.32l-.75.17c-2,1.61-4.49,1.13-6.76,1-3-.11-4.24,1-4.13,4,.09,2.26.6,4.7-1,6.77l-.81.81c0-3.72,0-7.45-.11-11.17-.06-1.77.6-2.4,2.36-2.34,3.72.11,7.44.08,11.17.1.2.12.27.25.21.37S219.86,254.32,219.79,254.32Z" transform="translate(-149.26 58.27)"/><path class="cls-130" d="M206.39,198.29l.73.74c1.73,2.3,1,5,1.06,7.51.06,2.35,1,3.27,3.34,3.33,2.53.07,5.21-.67,7.51,1.07l.73.72c-3.71,0-7.43,0-11.13.11-1.77.06-2.42-.58-2.36-2.35C206.39,205.71,206.36,202,206.39,198.29Z" transform="translate(-149.26 58.27)"/><path class="cls-131" d="M207.08,185.48l-.67.67c0-3.71,0-7.42-.11-11.13-.06-1.77.54-2.4,2.32-2.34,3.71.13,7.42.1,11.13.14l-.73.7c-2.19,1.68-4.76,1.07-7.16,1-2.74,0-3.71,1.1-3.69,3.76C208.19,180.74,208.78,183.31,207.08,185.48Z" transform="translate(-149.26 58.27)"/><path class="cls-114" d="M229.57,265c0-2.53,0-4.56,0-6.59,0-1.65-.56-3.64,2.4-3.25,1.71.22,3.55-.27,3.63,2.44.07,2.36-.36,4.07-3.18,3.57C229.26,260.63,230.89,263.54,229.57,265Z" transform="translate(-149.26 58.27)"/><path class="cls-114" d="M252.25,265.36c-2.49-6.51-1.86-9.68,2.34-10.72C252,257.84,253.44,261.64,252.25,265.36Z" transform="translate(-149.26 58.27)"/><path class="cls-114" d="M262.46,202.92c-.42.54-.71.08-.88-.09-.8-.85-1.59-1.22-2.4-.08-1.12,1.59.69,1.6,1.26,1.86,1.09.48,2.44.69,2.54,2.07a2,2,0,0,1-1.8,1.92c-1.45.2-3.27.73-3.86-1.62.78-.47,1,.26,1.41.54,1.14.83,2.26.63,2.79-.54.82-1.81-1.11-.92-1.66-1.43-.83-.78-2.72-.69-2.4-2.3a3.21,3.21,0,0,1,2.05-1.91C260.77,201,262.25,201,262.46,202.92Z" transform="translate(-149.26 58.27)"/><path class="cls-114" d="M309.47,234.73c-1.55,3.27-3.52,2.93-5.11,1.81-2-1.42-1.95-3.71-.62-5.53,1.76-2.42,3.59-1.28,5.92.68-2.22.28-4.21-2.38-5.44.77-.61,1.58.21,2.38.77,3.23C306.27,237.6,307.59,235.76,309.47,234.73Z" transform="translate(-149.26 58.27)"/><path class="cls-114" d="M252.08,153a13.91,13.91,0,0,1-.19-2.93c.07-.51.26-1.85,1.26-1.06.41.32,1.81.91,1,2-1.16,1.56,0,3.41-.63,4.91-.47,1.16,1.95.92.7,1.66-.95.57-1.92-.34-2.07-1.44A21.33,21.33,0,0,1,252.08,153Z" transform="translate(-149.26 58.27)"/><path class="cls-114" d="M254.64,180.79c-1.71.42-2.41-.31-2.58-1.79-.18-1.69.33-3.4-.39-5.09-.17-.42.45-1.37.94-1.81.33-.3,1,.12.93.71s1.94.32.41,1.87C252.91,175.74,252.78,178.77,254.64,180.79Z" transform="translate(-149.26 58.27)"/><path class="cls-114" d="M246.78,201.31c1.45,5.57,1.07,8.13-1.68,10.66C246.87,208.21,245.38,204.61,246.78,201.31Z" transform="translate(-149.26 58.27)"/><path class="cls-114" d="M322.57,237.1a16.75,16.75,0,0,1,0-9.54A18.37,18.37,0,0,1,322.57,237.1Z" transform="translate(-149.26 58.27)"/><path class="cls-114" d="M324.46,148.1a12.92,12.92,0,0,1,0,9.55Z" transform="translate(-149.26 58.27)"/><path class="cls-114" d="M259.56,255.32a16.62,16.62,0,0,1,0,9.53A16.46,16.46,0,0,1,259.56,255.32Z" transform="translate(-149.26 58.27)"/><path class="cls-114" d="M320.41,157.62c-.12-3.18-.43-6.37.95-9.54v9.54Z" transform="translate(-149.26 58.27)"/><path class="cls-114" d="M293.9,232.68c-3.32-.5-5.23.44-5.1,4a69,69,0,0,1,.05-7.61c.42-3.71,3.3-.16,4.58-1.64-.92,1.66-4.34-.72-3.92,3C289.86,233.48,292.42,231.06,293.9,232.68Z" transform="translate(-149.26 58.27)"/><path class="cls-114" d="M248.37,257.81c-4.14,1.26-1.3,5.07-3.06,7.47-1.35-2.56-.94-5-.51-7.24C245,256.83,247,258.5,248.37,257.81Z" transform="translate(-149.26 58.27)"/><path class="cls-114" d="M306.63,173.66c-4,1.43-1.05,5.35-3.05,8a17.27,17.27,0,0,1-.28-7.73C303.34,173.68,305.47,173.74,306.63,173.66Z" transform="translate(-149.26 58.27)"/><path class="cls-114" d="M249.86,173.84c-4.13,1.27-1.34,5.1-3.09,7.71a12.19,12.19,0,0,1-.45-7.56C246.51,173.07,248.48,174.35,249.86,173.84Z" transform="translate(-149.26 58.27)"/><path class="cls-114" d="M250,150.72c-4.21,1.17-1.52,4.85-3.09,7.35-1.52-2.51-1-5-.6-7.17C246.5,149.8,248.51,150.67,250,150.72Z" transform="translate(-149.26 58.27)"/><path class="cls-114" d="M240.89,230.56c-1.75,1.92-.13,4.53-1.43,7.09-1.58-2.59-1.06-5.06-.7-7.23.28-1.69,1.41.24,2.2.22Z" transform="translate(-149.26 58.27)"/><path class="cls-114" d="M255.86,257.57a13.48,13.48,0,0,1,0,8.37A11.38,11.38,0,0,1,255.86,257.57Z" transform="translate(-149.26 58.27)"/><path class="cls-114" d="M235.64,229.82a10.42,10.42,0,0,1,0,7.3A9,9,0,0,1,235.64,229.82Z" transform="translate(-149.26 58.27)"/><path class="cls-114" d="M259.5,237.13c-.72-2.47-1-4.92.23-7.3C260.2,232.29,260.66,234.74,259.5,237.13Z" transform="translate(-149.26 58.27)"/><path class="cls-114" d="M311.33,237.11c-1.19-2.41-.63-4.85-.29-7.3C312.45,232.18,312.08,234.64,311.33,237.11Z" transform="translate(-149.26 58.27)"/><path class="cls-114" d="M233.14,236.64c-5.07,1.06-5.07,1.06-5.07-3.67v-5.79c1.12,1.92.77,3.28.71,4.56C228.65,234.75,228.47,237.61,233.14,236.64Z" transform="translate(-149.26 58.27)"/><path class="cls-124" d="M220.42,146.56l-13.45,0c-.2.24-.38.25-.55,0A25.81,25.81,0,0,1,220.42,146.56Z" transform="translate(-149.26 58.27)"/><path class="cls-124" d="M207,159.86l13.47,0a25.69,25.69,0,0,1-14,0C206.58,159.63,206.76,159.61,207,159.86Z" transform="translate(-149.26 58.27)"/><path class="cls-132" d="M207,239.33a2.5,2.5,0,0,1-.55,0q0-6.66,0-13.32l.77.76c1.79,3.72,1,7.58.63,11.43A3.67,3.67,0,0,1,207,239.33Z" transform="translate(-149.26 58.27)"/><path class="cls-133" d="M219.79,254.32c0-.18,0-.37,0-.56,1.68,4.39.42,8.93.72,13.38C219.05,262.94,220.27,258.58,219.79,254.32Z" transform="translate(-149.26 58.27)"/><path class="cls-132" d="M207,159.86l-.27,0h-.28q0-6.66,0-13.33a1.7,1.7,0,0,1,.55,0c.06.24.11.48.17.73a14.22,14.22,0,0,1,0,11.82C207.07,159.38,207,159.62,207,159.86Z" transform="translate(-149.26 58.27)"/><path class="cls-114" d="M360,28.16a28.81,28.81,0,0,0,0,3.5c.18,1.39,1.25,1.6,2.48,1.62,1.4,0,1.28-.91,1.21-1.75-.29-3.34,2.27-2,3.56-1.91,1.71.08,1.94,1.29,1.35,3-1,2.77-2.28,4.81-5.66,4.45a4.42,4.42,0,0,0-2.46.48c-3.06,1.44-4.85.4-5.55-3a2.9,2.9,0,0,1,0-1C358,33.1,357.21,29.08,360,28.16Z" transform="translate(-149.26 58.27)"/><path class="cls-134" d="M408,28c1.08,2.13.35,4-.83,5.82-.61,1.69-2.05,2.29-3.61,2.74a3.93,3.93,0,0,1-3.08-1.73l-1.56-1.59c-.76-2.11-1.88-4.24.32-6.19a3.86,3.86,0,0,1,2.6.44,2.18,2.18,0,0,0,3,0C406,27,407.15,26.57,408,28Z" transform="translate(-149.26 58.27)"/><path class="cls-114" d="M261.06,30.31c0,2.39.06,4.8,0,7.19s.81,3.87,3.55,4.06,3.66-1.53,3.93-3.73c.3-2.49-.31-5.06.83-7.52.67,3.46,1.4,7-.06,10.37-1.15,2.7-3.72,2.34-6,2.32s-3.29-2-3.51-3.63a26.52,26.52,0,0,1,.13-9.06Z" transform="translate(-149.26 58.27)"/><path class="cls-114" d="M362.51,32.55c-2.57-.85-1.82-2.92-1.63-4.43.16-1.3,1.68-1.47,2.88-1.61a9.78,9.78,0,0,0,2.9-.33c3.46-1.58,4.45-1.09,5.63,2.32.45,1.33-.48,1.42-.91,1.95s-1.14.87-1.64-.18c-1.36-2.86-4-1.46-5.93-1.34S363.7,31.36,362.51,32.55Z" transform="translate(-149.26 58.27)"/><path class="cls-114" d="M297.84,41.47c-.78,2.12-2.59,1.74-4.06,1.36a2.41,2.41,0,0,1-1.94-2.44c.23-1.85,2-2,3.24-2.91,1.06-.76,3.85.79,3.11-1.67-.54-1.79-2.7-1.26-4.21-.6A1.11,1.11,0,0,1,292.5,35c1.29-2.14,3.46-2,5.3-1.62s2.12,2.19,2.22,3.83a31.11,31.11,0,0,1,0,3.74c0,.67.43,1.57-.52,2-1.23.49-.67-1.55-1.77-1.32-.64-.59-.53-2-2-1.81C295.81,41.15,297.43,40.6,297.84,41.47Z" transform="translate(-149.26 58.27)"/><path class="cls-114" d="M322.6,38.36c-.15,2.82-1.43,4.63-4.67,4.66s-4.1-2.24-4.35-4.76a4.35,4.35,0,0,1,4.45-5C321.23,33.32,322.55,35.16,322.6,38.36Z" transform="translate(-149.26 58.27)"/><path class="cls-135" d="M402,27.84c-.8,0-1.77.68-2.27-.56a1.89,1.89,0,0,1-.35-2.18,4.37,4.37,0,0,1,2.85-1.62,9.41,9.41,0,0,0,4.28-2c.58-.5.82-1.32,1.54-1.69,1.51,2.77.59,5.52-.07,8.27-1-1-2,.23-3,.06A4.1,4.1,0,0,1,402,27.84Z" transform="translate(-149.26 58.27)"/><path class="cls-136" d="M407.9,39.24c1.35.74.29,1.53.06,2.31a2.7,2.7,0,0,1-1.36.84A10.47,10.47,0,0,1,403,43c-1.34.1-2.71-1.25-4,.09l0,0c-1.88.23-3.73.34-5.14-1.28,1.05-1.54,3.24-1,4.36-2.46.48-.66,1-1.31,1.93-1.25a23,23,0,0,0,3.21-.11c.74.07,1.46.34,2.21.36C406.5,38.26,407.45,38.16,407.9,39.24Z" transform="translate(-149.26 58.27)"/><path class="cls-114" d="M279.27,35.86A18.94,18.94,0,0,0,276,34.45a1.76,1.76,0,0,0-2.2,1.1c-.33,1.14.52,1.17,1.38,1.57,1.25.59,3.25.15,3.68,1.92.32,1.29.76,3-1.3,3.58s-4.07,1-5.66-1.1c-.36-.47-.05-.7.17-.88s.69-.36.88-.25c.61.35,1,1.31,1.8,1.08s2.37.94,2.74-.91c.31-1.49-1.12-1.59-1.83-1.81-1.58-.5-3.65-.06-3.42-2.79.08-1,0-2.22,1.12-2.49C275.46,33,277.6,32.77,279.27,35.86Z" transform="translate(-149.26 58.27)"/><path class="cls-114" d="M288.79,33.31c1.13,2.94.74,6,.65,9,0,1.14-1,.23-1.58.28-2.21.21-4.91,1.44-5.66-1.76-.56-2.38-.11-5,.33-7.52,1.57,1.65.91,3.61,1,5.41s.38,2.92,2.45,2.84c1.89-.08,2.07-1.28,2.11-2.79C288.12,36.92,287.68,35.07,288.79,33.31Z" transform="translate(-149.26 58.27)"/><path class="cls-137" d="M398.9,19c2.86-3.23,5.57-1.37,8.3.23.87,1.38-.23,1.67-1.13,2.07a7.42,7.42,0,0,1-1.69.19c-1.42,0-2.87-.17-4.18.62a1.57,1.57,0,0,1-1.09,0C398,21.12,398.49,20,398.9,19Z" transform="translate(-149.26 58.27)"/><path class="cls-138" d="M180.16,48.25l13.48.07c.3.29.81.34.91.84-4.42,1.14-8.9.43-13.36.43C180.41,49.59,180.31,48.85,180.16,48.25Z" transform="translate(-149.26 58.27)"/><path class="cls-114" d="M307.56,33.88c-5.59,1.41-1.55,6.56-4,9.75a21.26,21.26,0,0,1-.3-9.49C303.5,32.76,306,33.5,307.56,33.88Z" transform="translate(-149.26 58.27)"/><path class="cls-114" d="M311.33,42.93a17.48,17.48,0,0,1-.06-9.62C312.32,36.5,312,39.72,311.33,42.93Z" transform="translate(-149.26 58.27)"/><path class="cls-139" d="M403.37,36.18l3.79-2.34c.16.91.35,1.22,1.32.49a1.53,1.53,0,0,1,2.62.85c.42,1.78-1.31.89-2,1.32a7.55,7.55,0,0,1-1.74.57c-.65-.55-1.21-.07-1.79.16a3,3,0,0,1-.94.15l-.46-.12A1.51,1.51,0,0,1,403.37,36.18Z" transform="translate(-149.26 58.27)"/><path class="cls-140" d="M400.25,38.53l-2,.73c.21-1.23-1.17-1.48-1.46-2.4-.19-1.23.7-1.28,1.53-1.39l.67.08c.76.7,2.41-.21,2.63,1.46A1.46,1.46,0,0,1,400.25,38.53Z" transform="translate(-149.26 58.27)"/><path class="cls-141" d="M398.9,19c.51.93-.6,2.28.78,3,1,.66,2.9.26,2.85,2.27l-2.78.93a1.08,1.08,0,0,1-1.14-.15c-1.14-1.67-.91-3.44-.36-5.23Z" transform="translate(-149.26 58.27)"/><path class="cls-142" d="M398.71,25.19l1-.06c0,.72,0,1.44,0,2.15-2.72,1.66-.58,4-.83,6-2.21-2-1.3-4.39-.7-6.71C398,25.94,397.45,25.24,398.71,25.19Z" transform="translate(-149.26 58.27)"/><path class="cls-143" d="M206.25,37.67c-1.48-3.65-.41-7.43-.55-11.15l.47,0Z" transform="translate(-149.26 58.27)"/><path class="cls-144" d="M402.87,42.17l3.64-.64a4.23,4.23,0,0,1,0,2.15c-2.2-.41-4.59.93-6.65-.74C400.66,41.83,402,42.91,402.87,42.17Z" transform="translate(-149.26 58.27)"/><path class="cls-145" d="M393.88,41.72,399,43C397.1,43.41,394.88,45,393.88,41.72Z" transform="translate(-149.26 58.27)"/><path class="cls-145" d="M412.47,42.29c-1.15,2.78-3.48.89-5.23,1.33a1.38,1.38,0,0,1,1.22-1.7C409.79,42.06,411.2,41.49,412.47,42.29Z" transform="translate(-149.26 58.27)"/><path class="cls-142" d="M401.23,36.84,399,35.55l1.49-.7c1.33-.34,2,.73,2.9,1.33l.91.65A1.85,1.85,0,0,1,401.23,36.84Z" transform="translate(-149.26 58.27)"/><path class="cls-146" d="M398.31,35.47l-1.53,1.4c-.71-.68-2.07-1.29-.7-2.41C397.22,33.52,398.05,34.06,398.31,35.47Z" transform="translate(-149.26 58.27)"/><path class="cls-135" d="M398.71,25.19c-.17.45-.33.91-.5,1.36a7,7,0,0,1,0-6.79A14.63,14.63,0,0,0,398.71,25.19Z" transform="translate(-149.26 58.27)"/><path class="cls-147" d="M402.87,42.17c-.76,1.19-2,.62-3,.77L399,43C399.77,40.49,401.45,41.9,402.87,42.17Z" transform="translate(-149.26 58.27)"/><path class="cls-148" d="M405,37c.83-.94,1.63-1.09,2.37.1-.68.94,1,1.28.54,2.17-.77-.68-1.61-.11-2.41-.15A2.81,2.81,0,0,1,405,37Z" transform="translate(-149.26 58.27)"/><path class="cls-149" d="M206.17,26.55l-.24,0-.23-.06c-1.24-1.26-1.2-3-1.62-4.55C206.29,22.81,205.23,25.14,206.17,26.55Z" transform="translate(-149.26 58.27)"/><path class="cls-150" d="M203.42,42.67c.87-.74.23-2.7,2.11-2.63C205.2,41.22,205.21,42.67,203.42,42.67Z" transform="translate(-149.26 58.27)"/><path class="cls-151" d="M405.74,20.51c.76-.13,1.44-.36,1.46-1.32l.86.56c-.16.84.37,1.92-.84,2.39C406.1,22.17,405.45,21.77,405.74,20.51Z" transform="translate(-149.26 58.27)"/><path class="cls-114" d="M311,29.54c1.07,0,1.09.59,1.06,1.21s-.1,1.1-.72.93a5,5,0,0,1-1.4-1Z" transform="translate(-149.26 58.27)"/><path class="cls-56" d="M408,42.23l-.77,1.39-.34.14-.36-.08c-.53-.71-.79-1.43,0-2.15l1.45,0,0,0c.3.11.41.24.34.4S408.1,42.23,408,42.23Z" transform="translate(-149.26 58.27)"/><path class="cls-148" d="M408,42.23a1.8,1.8,0,0,1-.09-.65c1.54.06,3.25-.92,4.55.71Z" transform="translate(-149.26 58.27)"/><path class="cls-138" d="M174.63,46.93c1.48-.9,2.15-.21,2.41,1.24A3.26,3.26,0,0,1,174.63,46.93Z" transform="translate(-149.26 58.27)"/><path class="cls-48" d="M194.55,49.16l-.91-.84c1.26.2,2.53-.84,3.79,0C196.67,49.3,195.56,49.07,194.55,49.16Z" transform="translate(-149.26 58.27)"/><path class="cls-113" d="M316.85,345.27c-1.84-3.71-3.52-.31-5,0-.23-.25-.41-.39-.39-.42,1-1.84,1.09-5.34,2.81-5.29C316.83,339.59,315.82,343.16,316.85,345.27Z" transform="translate(-149.26 58.27)"/><path class="cls-113" d="M280.15,345.07c-2.85-2.13-2.85-2.13-4.08-.3,1-1.73-2.16-5.22,1.75-5.45C283.44,339,278.2,343.53,280.15,345.07Z" transform="translate(-149.26 58.27)"/><path class="cls-113" d="M289.05,341.16c1.49.42,3.34.78,3.36,2.83,0,.75-1,1.13-2,1.24-1.77.21-2.58-.47-2.88-2.1,1-.36,1.29.26,1.72.64s1.23,1.18,1.71.12c.35-.75-.58-.77-1.06-1.08-1-.64-2.93-1.13-1.43-2.83,1.21-1.39,2.69-1.21,4,.4C291.3,341.1,289.69,338.65,289.05,341.16Z" transform="translate(-149.26 58.27)"/><path class="cls-113" d="M300,345.33c1.12-2.26-2.1-5.78,1.82-6,5.62-.32.43,4.19,2.33,5.54C302.55,346.71,302,338.46,300,345.33Z" transform="translate(-149.26 58.27)"/><path class="cls-113" d="M323.83,344.87c-1.66,1.36-2.38-4.8-4.17-.05.47-1.89-1.64-5,1.17-5.46C326.93,338.36,321.72,343.56,323.83,344.87Z" transform="translate(-149.26 58.27)"/><path class="cls-113" d="M305.4,339.26c2.79-.08,1.5,2.79,3.29,3.45.69-1.11.44-2.91,1.94-3.56.2.17.38.29.37.32-.9,1.87-.59,5.38-2.48,5.39C306.3,344.88,306.5,341.4,305.4,339.26Z" transform="translate(-149.26 58.27)"/><path class="cls-113" d="M294.78,343.51c.4,1.71,2.18.22,2.68,1.48-1.91.36-3.67.86-3.48-2.29.13-2.27-.16-4.41,3.27-3.31-.39,1.25-2-.09-2.42,1.19.27,1.8,2.31.11,2.92,1.44C297.5,343.9,295.5,342.24,294.78,343.51Z" transform="translate(-149.26 58.27)"/><path class="cls-113" d="M285.51,339.4c-.66,1.11-2,0-2.67,1.09,0,2,2.63,0,2.94,1.92-.59,1.12-2.35,0-3,1,.35,1.8,2.19.29,2.67,1.56-1.14.09-2.75.91-3.24-.44a7.56,7.56,0,0,1,0-4.75C282.71,338.48,284.32,339.27,285.51,339.4Z" transform="translate(-149.26 58.27)"/><path class="cls-114" d="M194.9,36.31a14.42,14.42,0,0,1-8.65,0A13,13,0,0,1,194.9,36.31Z" transform="translate(-149.26 58.27)"/><path class="cls-114" d="M186.27,27.33a13.32,13.32,0,0,1,8.66-.12C192.08,28.4,189.17,28,186.27,27.33Z" transform="translate(-149.26 58.27)"/><path class="cls-114" d="M194.92,31.66c-2.87,1.26-5.76.75-8.67.25C189.09,30.65,192,31,194.92,31.66Z" transform="translate(-149.26 58.27)"/><path class="cls-114" d="M184.28,29.64a7.79,7.79,0,0,1,.8,1.09,14.62,14.62,0,0,1-2.71,2.4c-.55.33-1.21-.47-1.35-1-.31-1.12.36-1.19,1.24-.85C183.75,31.87,183.57,30.32,184.28,29.64Z" transform="translate(-149.26 58.27)"/><path class="cls-114" d="M186.09,25.72C184,27,183.67,29,181.84,28.47c-.61-.16-1.5-1.82-.43-1.65C182.93,27.06,183.67,25.86,186.09,25.72Z" transform="translate(-149.26 58.27)"/><path class="cls-114" d="M183.8,36.13c-.12.66-.41,1.41-1.24,1.28a1.38,1.38,0,0,1-.95-1.4c0-.95.41-1.28,1.31-1.21S183.82,35.42,183.8,36.13Z" transform="translate(-149.26 58.27)"/><path class="cls-72" d="M261.59,93.86c1.88-1.75,3.21-2,4.69,0Z" transform="translate(-149.26 58.27)"/><path class="cls-72" d="M318.74,95.57c-.23,1-.06,2.79-2.24,2.9s-2.23-1.37-2.24-3,.11-3,2.25-3C318.31,92.48,318.89,93.45,318.74,95.57Z" transform="translate(-149.26 58.27)"/><path class="cls-152" d="M300.54-39.66a1.44,1.44,0,0,1-1.27,1.54,1.49,1.49,0,0,1-1.94-1.18c-.18-.84.45-1.36,1.23-1.53A1.61,1.61,0,0,1,300.54-39.66Z" transform="translate(-149.26 58.27)"/><path class="cls-113" d="M207.13,238.62l0-11.81.74-.05c11.81-.18,11.81-.18,11.11,11.92A33.92,33.92,0,0,1,207.13,238.62Z" transform="translate(-149.26 58.27)"/><path class="cls-153" d="M207.13,238.62l11.89.06c-2.28,1.62-4.86.46-7.29.71a36.08,36.08,0,0,1-4.76-.06C207,239.1,207.08,238.86,207.13,238.62Z" transform="translate(-149.26 58.27)"/><path class="cls-154" d="M219,210.94c-3.91-.19-9.15,1.74-11.35-.77-1.93-2.19-.51-7.31-.56-11.14C222.15,199.07,219,195.91,219,210.94Z" transform="translate(-149.26 58.27)"/><path class="cls-155" d="M207.08,185.48c.21-3.93-1.72-9.18.78-11.39,2.17-1.93,7.32-.51,11.16-.57.07,3.21.08,6.43.24,9.63.09,1.91-.61,2.7-2.56,2.6C213.5,185.58,210.28,185.56,207.08,185.48Z" transform="translate(-149.26 58.27)"/><path class="cls-112" d="M252.91,236.55a7.4,7.4,0,0,1-.9-2.34c-.08-1.53.4-2.78,1.7-3.33.58-.24,1.54.26,2.18,1.17,1.07,1.5.14,2.48-.43,3.57s-1.67.83-2.64.85Z" transform="translate(-149.26 58.27)"/><path class="cls-112" d="M272.28,180.23c-1.26.06-2.29-.06-3-1.44a3,3,0,0,1,.12-3.28c.43-.67,1.35-1.25,2-.9a3,3,0,0,1,1.7,3,5.93,5.93,0,0,1-.9,2.7Z" transform="translate(-149.26 58.27)"/><path class="cls-112" d="M272.28,157c-1.26,0-2.29-.06-3-1.45a2.93,2.93,0,0,1,.12-3.27c.43-.67,1.35-1.25,2-.9a3,3,0,0,1,1.7,3,6,6,0,0,1-.9,2.71Z" transform="translate(-149.26 58.27)"/><path class="cls-112" d="M274.53,264.22c-1.26,0-2.29-.07-3-1.45a2.93,2.93,0,0,1,.12-3.28c.43-.67,1.35-1.24,2-.9a3,3,0,0,1,1.7,3,6.05,6.05,0,0,1-.9,2.7Z" transform="translate(-149.26 58.27)"/><path class="cls-156" d="M207.17,266.36c.05-3.82-1.37-8.93.54-11.12,2.2-2.51,7.42-.59,11.33-.75C219.65,266.92,219.65,266.92,207.17,266.36Z" transform="translate(-149.26 58.27)"/><path class="cls-113" d="M207.13,159.15c0-3.94,0-7.88,0-11.82l11.87-.08a36.43,36.43,0,0,1,0,12Z" transform="translate(-149.26 58.27)"/><path class="cls-124" d="M219.05,159.22q0-6,0-12A17.82,17.82,0,0,1,219.05,159.22Z" transform="translate(-149.26 58.27)"/><path class="cls-112" d="M290.5,176.48c1.76,0,3,.43,2.71,2-.23,1.35-1.63,1.53-2.81,1.71-1.75.26-1.54-.95-1.63-2.08C288.64,176.45,289.6,176.33,290.5,176.48Z" transform="translate(-149.26 58.27)"/><path class="cls-112" d="M293.13,173.91c-.84,1-1.51,1.92-3,1.85-2-.1-1.18-1.48-1.3-2.41-.21-1.6,1-1.41,1.93-1.35C292,172.07,292.51,173.07,293.13,173.91Z" transform="translate(-149.26 58.27)"/><path class="cls-112" d="M281.89,152.82c-1.86.41-3.08.88-4.19-.07-.32-.28.07-.75.58-1C279.69,150.92,280.47,151.63,281.89,152.82Z" transform="translate(-149.26 58.27)"/><path class="cls-112" d="M318.37,153c-1.69.26-2.9.7-3.92-.16-.3-.24-.06-.8.52-1.06C316.28,151.15,317.27,151.27,318.37,153Z" transform="translate(-149.26 58.27)"/><path class="cls-112" d="M281.78,175.92a6.63,6.63,0,0,1-4.4.34C278.68,174.09,279.92,174.43,281.78,175.92Z" transform="translate(-149.26 58.27)"/><path class="cls-112" d="M242.91,260c-1.86.41-3.08.89-4.19-.07-.33-.28.06-.74.57-1C240.7,258.16,241.49,258.85,242.91,260Z" transform="translate(-149.26 58.27)"/><path class="cls-112" d="M257.71,152.87c1.11-1.44,2-1.79,3.36-1.15.54.26.91.75.58,1C260.54,153.7,259.32,153.23,257.71,152.87Z" transform="translate(-149.26 58.27)"/><path class="cls-112" d="M265.11,232.72c-.58-.19-1.62.4-1.69-.72s1.36-.71,1.8-1.41c.37.75,1.9.3,1.7,1.49C266.76,233,265.78,232.6,265.11,232.72Z" transform="translate(-149.26 58.27)"/><path class="cls-112" d="M257.71,176.12c1.11-1.44,2-1.8,3.36-1.15.54.25.91.74.58,1C260.54,177,259.32,176.47,257.71,176.12Z" transform="translate(-149.26 58.27)"/><path class="cls-112" d="M242,204.27c-.73-.22-1.77.35-1.83-.77s1.33-.73,1.8-1.38c.39.73,1.9.26,1.71,1.48S242.46,203.92,242,204.27Z" transform="translate(-149.26 58.27)"/><path class="cls-112" d="M299,177.81c1.2-.76,1,.2,1,.64a1.74,1.74,0,0,1-1.85,1.77c-.87.05-1.75-.67-1.66-1.08C296.79,177.87,298.16,178.05,299,177.81Z" transform="translate(-149.26 58.27)"/><path class="cls-112" d="M320.82,177.2c.4,2-.12,2.82-1.63,3-.87.11-1.76-.6-1.68-1C317.84,177.5,319.83,178.36,320.82,177.2Z" transform="translate(-149.26 58.27)"/><path class="cls-112" d="M254.12,205.14c.43,1.68,0,2.67-1.78,2.81-.69.06-1.44-.42-1.42-.87C251,205,253.14,206.12,254.12,205.14Z" transform="translate(-149.26 58.27)"/><path class="cls-112" d="M266.07,261.23c.46,1.83,0,2.72-1.54,3-.85.14-1.77-.48-1.7-1C263,261.45,265.06,262.34,266.07,261.23Z" transform="translate(-149.26 58.27)"/><path class="cls-112" d="M301.34,154c.38,1.89-.13,2.77-1.64,3-.87.12-1.77-.61-1.68-1C298.36,154.29,300.3,155.06,301.34,154Z" transform="translate(-149.26 58.27)"/><path class="cls-112" d="M299.8,233.48c.46,1.83,0,2.72-1.53,3-.85.14-1.77-.48-1.71-1C296.78,233.7,298.8,234.6,299.8,233.48Z" transform="translate(-149.26 58.27)"/><path class="cls-112" d="M318.56,233.48c.43,1.85-.07,2.74-1.57,3-.86.14-1.77-.52-1.7-1C315.54,233.72,317.56,234.59,318.56,233.48Z" transform="translate(-149.26 58.27)"/><path class="cls-112" d="M281.16,233.54c.27,1.92-.25,2.81-1.79,2.91-.85.06-1.73-.68-1.61-1.1C278.22,233.82,280,234.46,281.16,233.54Z" transform="translate(-149.26 58.27)"/><path class="cls-112" d="M310.54,154.08a2.46,2.46,0,0,1-2.23,2.71c-1.27,0-2.27-1.17-2.28-2.78a2.56,2.56,0,0,1,2.22-2.84C309.54,151.14,310.56,152.37,310.54,154.08Z" transform="translate(-149.26 58.27)"/><path class="cls-112" d="M243.8,153.93c.06,1.64-.06,3.1-2,3s-2.34-1.87-2.35-3.13a2.59,2.59,0,0,1,2.52-2.54A1.93,1.93,0,0,1,243.8,153.93Z" transform="translate(-149.26 58.27)"/><path class="cls-112" d="M243.8,177c0,1.53.13,3.05-1.76,3.16s-2.4-1.75-2.55-3a2.49,2.49,0,0,1,2.35-2.65A1.81,1.81,0,0,1,243.8,177Z" transform="translate(-149.26 58.27)"/><path class="cls-112" d="M333,153.81c0,1.52.12,3-1.78,3.13s-2.39-1.75-2.54-3a2.51,2.51,0,0,1,2.36-2.64A1.83,1.83,0,0,1,333,153.81Z" transform="translate(-149.26 58.27)"/><path class="cls-112" d="M314.3,177.08a2.61,2.61,0,0,1-2.15,3c-1.31.11-2.26-1.14-2.37-2.68a2.61,2.61,0,0,1,2.14-3C313.25,174.29,314.17,175.58,314.3,177.08Z" transform="translate(-149.26 58.27)"/><path class="cls-112" d="M283.54,260.89c0,1.51.21,3-1.65,3.27-2,.25-2.49-1.66-2.67-2.84a2.6,2.6,0,0,1,2.58-2.82A1.77,1.77,0,0,1,283.54,260.89Z" transform="translate(-149.26 58.27)"/><path class="cls-112" d="M230.32,258.53c0-1.33-.38-2.91,1.67-2.53,1.2.22,2.78.17,2.83,2.11,0,1.76-.86,2.3-2.51,2.38S230.06,259.94,230.32,258.53Z" transform="translate(-149.26 58.27)"/><path class="cls-147" d="M402,27.84c1.13-1.4,2.05-.31,3,.24C403.9,29.57,402.79,30.68,402,27.84Z" transform="translate(-149.26 58.27)"/><path class="cls-113" d="M297.84,41.47c-1.58-.22-4.41.85-4.25-1.37.14-2,2.93-1.73,4.92-1.39-.28,1-.53,1.95-.78,2.86Z" transform="translate(-149.26 58.27)"/><path class="cls-113" d="M321.17,37.85c-.4,2-.34,3.72-2.89,3.71-2.39,0-3.08-1.76-3.11-3.29,0-1.71.65-3.54,3.21-3.56S320.56,36.72,321.17,37.85Z" transform="translate(-149.26 58.27)"/><path class="cls-157" d="M405.74,20.51c.49.55,1,1.09,1.48,1.63-1.61.58-2.66,2.43-4.69,2.07-.73-1-2.86-.3-2.85-2.27a5.07,5.07,0,0,0,.13-.56c1.36-1.15,3.14.07,4.55-.79Z" transform="translate(-149.26 58.27)"/><path class="cls-158" d="M401.23,36.84h3l-.07.3a.93.93,0,0,1-.64,1.24c-1.12-.13-2.15,1.58-3.32.16Z" transform="translate(-149.26 58.27)"/><path class="cls-107" d="M403.57,38.37l.64-1.24L405,37c.74.57.64,1.34.5,2.12C404.63,39.43,404.16,38.74,403.57,38.37Z" transform="translate(-149.26 58.27)"/><path class="cls-159" d="M404.36,20.59c-1.37,1.1-3.11.05-4.55.79C401.06,19.59,402.8,20.59,404.36,20.59Z" transform="translate(-149.26 58.27)"/><path class="cls-114" d="M277.65,340a1.78,1.78,0,0,1,1.34,1.49c.06.72-.54.65-1,.71-1,.13-1.24-.43-1.18-1.3C276.84,340.34,277,340,277.65,340Z" transform="translate(-149.26 58.27)"/><path class="cls-114" d="M301.64,340a1.78,1.78,0,0,1,1.34,1.49c.06.72-.54.65-1,.71-1,.13-1.24-.43-1.18-1.3C300.83,340.34,301,340,301.64,340Z" transform="translate(-149.26 58.27)"/><path class="cls-114" d="M321.68,342.15c-1.24.17-1.45-.41-1.39-1.28,0-.55.24-1,.82-.87a1.64,1.64,0,0,1,1.36,1.48C322.54,342.2,321.91,342.09,321.68,342.15Z" transform="translate(-149.26 58.27)"/></svg>