<svg id="Capa_1" data-name="Capa 1" xmlns="http://www.w3.org/2000/svg" viewBox="0 0 324.02 439.21"><defs><style>.cls-1{fill:#fff;}</style></defs><path class="cls-1" d="M401.3,328.32c.28,12.91-8.94,20.57-20.09,26.78-7,3.92-14.32,7.53-21.74,10.79-8.94,3.92-18.17,7.3-27.25,11-3.05,1.23-5.12,1.14-7.88-1.49-6.31-6-13.91-10.67-21.93-14.61-8.52-4.18-17.37-7.85-25.54-12.55-7.7-4.42-15.7-8.85-20.38-16.6a22,22,0,0,1-2.16-5.57c-.66-2.41-1.09-2.42-3.41-1.44a24.22,24.22,0,0,1-6.79,1.34c-.33,0-1.41-1.78-1.18-2.05,4.45-5.46,1.66-11.13.09-16.39-3.52-11.76-8.27-23.21-11.59-35-4.74-16.85-1.18-32.61,9.8-46.67a35.54,35.54,0,0,0,7.87-19c.35-3.89.12-4.29-3.74-5.6-7-2.39-11.14-6.89-11.77-14-.34-3.88-.49-7.84-1.49-11.58-.73-2.75-2.75-5.19-4.12-7.8-1.55-2.95-3.53-5.81-4.41-8.93-2.17-7.72,3.4-16.34,11.51-18.89.77-.24,1.54-1.83,1.48-2.75-.3-4.73-.76-9.47-1.38-14.18a119.61,119.61,0,0,1,5.73-54.56c3.37-9.95,7.56-19.8,16.14-27,4.79-4,10.35-7.26,15.84-10.43,9.17-5.27,19.6-6.76,30-8.26,11.41-1.66,22.86-2.54,34.26-.8a82.29,82.29,0,0,1,18.22,5.09c6.44,2.59,11.09,7.52,14.66,13.14a5.61,5.61,0,0,0,4.43,2.89c7.74,1.14,15.43,2.77,22.21,6.55C408.05,56,416.36,64.53,419.79,77c3.67,13.31,3.13,26.47.36,39.77-1.2,5.77-1.94,11.62-3,17.42-.36,2,.35,3.05,2.39,3.86,8.91,3.5,13.13,15.87,8.24,23.8-1.82,3-4,5.74-5.38,8.86-1.15,2.65-1.41,5.65-1.92,8.51-.69,3.83-1.08,7.7-1.88,11.51-1,4.56-4.42,7.44-8.64,9.27-3,1.3-4.22,3.19-4.3,6.07a17.6,17.6,0,0,0,3.18,11c5,7.22,10.37,14.33,14.33,22,6.9,13.42,9.56,27.61,6.74,42.62a86.81,86.81,0,0,1-22.07,44.19C406.58,327.25,403.84,327.42,401.3,328.32Zm-7.16-109c.95-1.05,1.74-1.57,2-2.25a51.64,51.64,0,0,0,2.08-7.12c1.86-9.72,3.68-19.44,5.36-29.18,2.78-16.15,4.67-32.37,2.64-48.74-1.26-10.19-2.79-20.36-7.91-29.64-6.5-11.77-16.27-18.91-31.05-18.74a17.13,17.13,0,0,1-2.53-.38c4-10.79,7.52-21.35,6.53-32.63C369.54,61,367.06,71.07,362,80.48c-.8,1.48-1.76,3.42-3.18,4a101.42,101.42,0,0,1-14.32,4.65c-10.25,2.44-20.75,2.25-31.2,1.65-8.21-.46-16.39-1.3-24.58-2-12.77-1-22.05,4.31-28.83,14-6.16,8.82-8.27,18.85-9.59,29.07a143.43,143.43,0,0,0,.09,37.26c1.92,14.39,4.46,28.71,6.85,43,.38,2.28,1.38,4.46,2.34,7.46l3.78-5c-.14,1.71-.17,2.71-.31,3.7-.53,3.9.58,7.18,4.2,9.42s7.11,2.08,10.85.08a65.78,65.78,0,0,1,23.42-7.53,77.22,77.22,0,0,0,8.8-2.09c-6.3-4.76-6.89-7.38-2.86-12.55-.09,3.8-1.5,7.8,3.15,9.87,3.52-2.65,4.39-2.63,7.62-1.07,5.56,2.67,4.65,8.45,7.08,12.62.3.52-1,2-1.68,2.88-1,1.26-2.12,2.41-3.25,3.67,6.19,2.32,9.28,2.3,14.15-.09-.79-.88-1.5-1.76-2.31-2.55-2.28-2.23-3.73-4.51-1.05-7.36a2.53,2.53,0,0,0,.64-1.52c.05-3.89,3.77-8.24,7.75-8.71a3.91,3.91,0,0,1,2.89.92c1.57,1.76,2.89,1.31,3.79-.28a14.83,14.83,0,0,0,1.36-4.51,17.42,17.42,0,0,0,0-3.15l.86-.11c.46,1.68,1.68,3.59,1.21,5-.86,2.52-2.74,4.75-4.24,7.17a50,50,0,0,0,7.26,1.81c8.94,1,17,4,24.86,8a11.19,11.19,0,0,0,6.87.95c5.39-1.24,7.62-4.66,7.42-10-.05-1.33,0-2.66,0-4l.61,0ZM250.7,192.6c-.32-2-.5-3.95-1-5.88-1.29-5.06-2.77-10.08-4.06-15.15-2.18-8.56-4.26-17.15-6.42-25.72a3.5,3.5,0,0,0-4.87-2.37A9.71,9.71,0,0,0,230.8,146c-4.24,5-6.22,11.59-1,17.72a28.27,28.27,0,0,1,7.05,19.18,23.57,23.57,0,0,0,.57,5.09c.85,3.83,2.32,7.05,6.85,8.6C250.41,198.73,250.87,198.62,250.7,192.6ZM339.81,252l.34.85c1.84-.56,3.87-.83,5.48-1.76,3.05-1.76,6.33-3.5,8.63-6,2.78-3,.83-6.41-3.33-6.51-7.27-.16-14.54-.21-21.82-.23q-13.77,0-27.55.08c-.71,0-2,.71-2,1.1-.05,1.93-.52,4.42.55,5.7,4.13,5,10.15,7.05,17.43,8.35l-5.06-6.42h31.22C342.2,249.05,341,250.53,339.81,252Zm64.78-55c6-.46,9.39-2.75,10.3-7.17S416,181,416.58,176.6a17.85,17.85,0,0,1,1.3-5.76,100.43,100.43,0,0,1,6.11-10.1c4.64-6.93,1.06-14.34-3.56-18.56-2.25-2.05-5.39-1.3-5.91,1.21-1.12,5.49-2.12,11-3.25,16.49-1.93,9.4-4,18.77-5.82,28.18A88.38,88.38,0,0,0,404.59,197Z" transform="translate(-156.21 -21.07)"/><path class="cls-1" d="M156.21,370.23c1.25-1.84,2.09-3.73,3.51-5.09,6.44-6.15,14.67-7.77,23.46-7.42a8,8,0,0,0,5.75-1.76c14.69-11.33,39.06-5.56,45.9,11a20.07,20.07,0,0,1,1,7.81c0,2.17.65,3.41,2.79,4.08,8.83,2.79,17.64,5.63,26.48,8.41,7.27,2.28,14.5,4.72,21.87,6.66,8.49,2.23,17.09,4.08,25.7,5.86,2.1.43,4.42-.1,6.64-.11,4.61,0,9.24.2,13.85,0a89.62,89.62,0,0,0,14.69-1.45c12.23-2.65,24.47-5.37,36.47-8.81,13.42-3.85,26.57-8.56,39.87-12.79,1.8-.57,2.41-1.35,2.24-3.07-.88-8.81,3-15.54,10.75-20.28,10-6.1,20.73-7.36,31.48-2.35,12.69,5.9,15.39,19.66,5.65,29.32-8.74,8.66-19.6,12.94-32.4,9-4.61-1.42-9.13-3.84-11.88-8-1.25-1.88-2.46-2-4.48-1.07-8.49,4-17,7.91-25.61,11.68-10.91,4.78-21.91,9.39-32.86,14.1-1.08.47-2.1,1.06-3.92,2,3.93,1.68,7.23,3.15,10.58,4.53,13.71,5.68,27.63,10.94,41.08,17.11,14.16,6.48,27.88,13.8,41.75,20.84a30.31,30.31,0,0,1,4.45,3.35c1.49,1.15,3.23,2.23,2.42,4.42-.6,1.6-3,2.46-6,2.1.42-.5.8-.86,1.08-1.28s.57-1,.93-1.67l-11.91-5.41-.92.78c-1-1.91-2-4-5.13-2.75-1.19-2.74-6-4.7-8.49-3.05.24-.9.41-1.56.59-2.23-4.79-.6-8.41-4.49-13.61-4.21l.85-1.91-2.5.71c-.3-.66-.56-1.25-.93-2.08l-2.18,1.33c-.15-.74-.29-1.45-.43-2.16-1.57,1.36-2.69-3.51-4.29,0-.89-2.11-2-3.53-4.53-3.06a1.48,1.48,0,0,1-.91-.38c-2-1.41-3.94-2.84-6-4.37L397,430c.08-1,.13-1.67.14-1.93l-3.35-1.9-1.32,1c-1.3-1.49-1.95-4.08-4.24-2.94l-7.46-3.87-1.92,1.12c.19-1,.3-1.59.4-2.09-2-.82-4.38-.67-6.1-2.41-1.49-1.51-3-1.85-4.54.32-2.95,4-6.12,7.95-9.43,11.73-.57.64-2.46.71-3.55.41-5.35-1.44-10.63-3.11-15.94-4.67-3.58-1.06-7.13-2.2-10.76-3a9.76,9.76,0,0,0-4.49.18c-9,2.37-17.93,4.79-26.84,7.35-9.08,2.6-18.09,5.43-27.17,8.06-10.55,3.05-21.15,5.94-31.7,9-7.51,2.18-14.95,4.6-22.46,6.81-4.44,1.31-8.91,2.56-13.44,3.57-1.16.26-2.58-.48-3.88-.77.42-1.08.48-2.58,1.3-3.17a165.12,165.12,0,0,1,15.21-10.18c7.23-4,14.88-7.33,22.27-11.08,16.11-8.18,33.6-13.06,50.83-18.56,2.59-.82,5.2-1.6,7.76-2.48.57-.19,1-.74,2-1.5l-14.18-6.06c-10.41-4.45-20.84-8.88-31.23-13.37-5.3-2.29-10.55-4.69-15.82-7.06a3.29,3.29,0,0,0-4.43.94,29.11,29.11,0,0,1-35.67,5.87c-8.62-4.71-15.19-11.18-14.35-21.65.13-1.72-.75-2.55-2.54-2.95-7.65-1.68-14.68-1.07-20.54,4.45a13.44,13.44,0,0,1-1.86,1.39C157.5,370.6,157.23,370.46,156.21,370.23Zm57.85,17.45a65.13,65.13,0,0,0,7.35-1.6c10.6-3.43,13.59-13.29,6.92-21.76-6.45-8.21-19.21-11.32-29.31-7.53-8.58,3.23-12.11,11.09-8,18.85C195.54,384,203.68,386.89,214.06,387.68Zm235.06-2.42c7.27-.18,13.85-2.49,19.07-7.66,7.14-7.07,5.91-17-2.62-21.93-10.3-5.93-27.55-1.54-33.21,8.61-2.77,5-3,10.1.88,14.7S442.74,385.15,449.12,385.26ZM333.56,409.85c.06-2.84-3-5.56-6.15-5.54s-6,2.57-6.11,5.29c-.1,3,2.68,5.42,6.16,5.43S333.5,412.75,333.56,409.85Z" transform="translate(-156.21 -21.07)"/><path d="M381.64,435.29c-.45.57-1.07,1.71-1.32,1.64-5.58-1.54-11.12-3.21-16.75-4.88l.49-2,5.92,3c.33-1.3.57-2.26.82-3.23h.65l.33,2.69,1.05,1,1.62-2.71.47.05-1.27,3.07.47.47,3.73-3.27.49.25a9.63,9.63,0,0,0-1,1.66,2.55,2.55,0,0,0,.22,2.32l3.32-3.9.69.38c-.36.55-.75,1.08-1.07,1.64-.74,1.28-.9,2.26,1.25,1.89Z" transform="translate(-156.21 -21.07)"/><path d="M390,430.25c-.88,1.24-1.74,2.51-2.66,3.73s-2,2.41-2.94,3.61l-.84-.52L389,429.9Z" transform="translate(-156.21 -21.07)"/><path d="M381.73,435.37l4-6.17c.76,1.93-1.78,5.42-4.12,6.09Z" transform="translate(-156.21 -21.07)"/><path d="M394.14,219.31l-1.67-4.09-.61,0c0,1.32,0,2.65,0,4,.2,5.3-2,8.72-7.42,10a11.19,11.19,0,0,1-6.87-.95c-7.84-4-15.92-7-24.86-8a50,50,0,0,1-7.26-1.81c1.5-2.42,3.38-4.65,4.24-7.17.47-1.41-.75-3.32-1.21-5l-.86.11a17.42,17.42,0,0,1,0,3.15,14.83,14.83,0,0,1-1.36,4.51c-.9,1.59-2.22,2-3.79.28a3.91,3.91,0,0,0-2.89-.92c-4,.47-7.7,4.82-7.75,8.71a2.53,2.53,0,0,1-.64,1.52c-2.68,2.85-1.23,5.13,1.05,7.36.81.79,1.52,1.67,2.31,2.55-4.87,2.39-8,2.41-14.15.09,1.13-1.26,2.26-2.41,3.25-3.67.71-.91,2-2.36,1.68-2.88-2.43-4.17-1.52-9.95-7.08-12.62-3.23-1.56-4.1-1.58-7.62,1.07-4.65-2.07-3.24-6.07-3.15-9.87-4,5.17-3.44,7.79,2.86,12.55a77.22,77.22,0,0,1-8.8,2.09,65.78,65.78,0,0,0-23.42,7.53c-3.74,2-7.28,2.13-10.85-.08s-4.73-5.52-4.2-9.42c.14-1,.17-2,.31-3.7l-3.78,5c-1-3-2-5.18-2.34-7.46-2.39-14.33-4.93-28.65-6.85-43a143.43,143.43,0,0,1-.09-37.26c1.32-10.22,3.43-20.25,9.59-29.07,6.78-9.71,16.06-15,28.83-14,8.19.66,16.37,1.5,24.58,2,10.45.6,20.95.79,31.2-1.65a101.42,101.42,0,0,0,14.32-4.65c1.42-.57,2.38-2.51,3.18-4,5.06-9.41,7.54-19.52,9.24-29.85,1,11.28-2.56,21.84-6.53,32.63a17.13,17.13,0,0,0,2.53.38c14.78-.17,24.55,7,31.05,18.74,5.12,9.28,6.65,19.45,7.91,29.64,2,16.37.14,32.59-2.64,48.74-1.68,9.74-3.5,19.46-5.36,29.18a51.64,51.64,0,0,1-2.08,7.12C395.88,217.74,395.09,218.26,394.14,219.31Zm-125.93-54a65.58,65.58,0,0,0,7.07.79,42.83,42.83,0,0,0,6-.7c1.76-.23,2.93-.05,3.69,1.91a6.27,6.27,0,0,0,9.35,2.54c2.29-1.78,4.1-1.93,6.43-.5a13.29,13.29,0,0,0,2.54,1c4.47,1.6,8,.87,10.79-2.69a32.63,32.63,0,0,0,3.95-6.68c2.34-5.16,2-5.4-3.73-6.67-11.42-2.55-22.79-5.32-34.19-8-7.37-1.72-14.33-1.33-20.24,3.77a11.3,11.3,0,0,0-4.17,9.08c4.87-1.84,9.24-4.3,13.91-5A17.45,17.45,0,0,1,283.89,158C277.63,159,272.41,160.18,268.21,165.34ZM370,158.11c2.23-3.79,6.09-3.32,9.07-3.78a22.12,22.12,0,0,1,9.48.85c3,.93,5.68,2.94,9.18,4.85a34.85,34.85,0,0,0-.48-3.81c-1.65-6.17-9.35-11.56-16.38-10.75-7.23.83-14.39,2.26-21.5,3.76-7.6,1.62-15.08,3.74-22.67,5.4-2.26.49-3.2,1.52-2.42,3.29a55.1,55.1,0,0,0,5.17,9.86c2.37,3.37,5.83,4.05,10,2.77a17,17,0,0,0,3.94-1.48c1.95-1.22,3.3-.9,5.08.47,3.27,2.53,8.41,1.63,9.8-1.85.92-2.33,2.22-2.54,4.34-2.2a34.82,34.82,0,0,0,5.73.66,49.73,49.73,0,0,0,6.05-.75c0-.34.07-.67.11-1C380.93,160.36,376,158.89,370,158.11Z" transform="translate(-156.21 -21.07)"/><path d="M250.7,192.6c.17,6-.29,6.13-6.44,4-4.53-1.55-6-4.77-6.85-8.6a23.57,23.57,0,0,1-.57-5.09,28.27,28.27,0,0,0-7.05-19.18c-5.21-6.13-3.23-12.68,1-17.72a9.71,9.71,0,0,1,3.56-2.54,3.5,3.5,0,0,1,4.87,2.37c2.16,8.57,4.24,17.16,6.42,25.72,1.29,5.07,2.77,10.09,4.06,15.15C250.2,188.65,250.38,190.64,250.7,192.6Z" transform="translate(-156.21 -21.07)"/><path d="M339.81,252c1.2-1.47,2.39-2.95,3.88-4.81H312.47l5.06,6.42c-7.28-1.3-13.3-3.35-17.43-8.35-1.07-1.28-.6-3.77-.55-5.7,0-.39,1.3-1.09,2-1.1q13.77-.14,27.55-.08c7.28,0,14.55.07,21.82.23,4.16.1,6.11,3.53,3.33,6.51-2.3,2.47-5.58,4.21-8.63,6-1.61.93-3.64,1.2-5.48,1.76Z" transform="translate(-156.21 -21.07)"/><path d="M404.59,197a88.38,88.38,0,0,1,.86-8.92c1.83-9.41,3.89-18.78,5.82-28.18,1.13-5.49,2.13-11,3.25-16.49.52-2.51,3.66-3.26,5.91-1.21,4.62,4.22,8.2,11.63,3.56,18.56a100.43,100.43,0,0,0-6.11,10.1,17.85,17.85,0,0,0-1.3,5.76c-.61,4.4-.8,8.87-1.69,13.21S410.54,196.52,404.59,197Z" transform="translate(-156.21 -21.07)"/><path d="M214.06,387.68c-10.38-.79-18.52-3.69-23-12-4.15-7.76-.62-15.62,8-18.85,10.1-3.79,22.86-.68,29.31,7.53,6.67,8.47,3.68,18.33-6.92,21.76A65.13,65.13,0,0,1,214.06,387.68Z" transform="translate(-156.21 -21.07)"/><path d="M449.12,385.26c-6.38-.11-12-1.6-15.88-6.28s-3.65-9.74-.88-14.7c5.66-10.15,22.91-14.54,33.21-8.61,8.53,4.91,9.76,14.86,2.62,21.93C463,382.77,456.39,385.08,449.12,385.26Z" transform="translate(-156.21 -21.07)"/><path d="M333.56,409.85c-.06,2.9-2.76,5.19-6.1,5.18s-6.26-2.47-6.16-5.43c.09-2.72,3-5.26,6.11-5.29S333.62,407,333.56,409.85Z" transform="translate(-156.21 -21.07)"/><path class="cls-1" d="M268.21,165.34c4.2-5.16,9.42-6.38,15.68-7.39a17.45,17.45,0,0,0-14.24-3.82c-4.67.74-9,3.2-13.91,5a11.3,11.3,0,0,1,4.17-9.08c5.91-5.1,12.87-5.49,20.24-3.77,11.4,2.65,22.77,5.42,34.19,8,5.71,1.27,6.07,1.51,3.73,6.67a32.63,32.63,0,0,1-3.95,6.68c-2.82,3.56-6.32,4.29-10.79,2.69a13.29,13.29,0,0,1-2.54-1c-2.33-1.43-4.14-1.28-6.43.5a6.27,6.27,0,0,1-9.35-2.54c-.76-2-1.93-2.14-3.69-1.91a42.83,42.83,0,0,1-6,.7A65.58,65.58,0,0,1,268.21,165.34Z" transform="translate(-156.21 -21.07)"/><path class="cls-1" d="M370,158.11c5.94.78,10.92,2.25,14.46,6.28,0,.34-.07.67-.11,1a49.73,49.73,0,0,1-6.05.75,34.82,34.82,0,0,1-5.73-.66c-2.12-.34-3.42-.13-4.34,2.2-1.39,3.48-6.53,4.38-9.8,1.85-1.78-1.37-3.13-1.69-5.08-.47a17,17,0,0,1-3.94,1.48c-4.13,1.28-7.59.6-10-2.77a55.1,55.1,0,0,1-5.17-9.86c-.78-1.77.16-2.8,2.42-3.29,7.59-1.66,15.07-3.78,22.67-5.4,7.11-1.5,14.27-2.93,21.5-3.76,7-.81,14.73,4.58,16.38,10.75a34.85,34.85,0,0,1,.48,3.81c-3.5-1.91-6.15-3.92-9.18-4.85a22.12,22.12,0,0,0-9.48-.85C376.1,154.79,372.24,154.32,370,158.11Z" transform="translate(-156.21 -21.07)"/></svg>