<svg id="Capa_1" data-name="Capa 1" xmlns="http://www.w3.org/2000/svg" viewBox="0 0 324.02 439.21"><defs><style>.cls-1{fill:#fff;}</style></defs><path d="M401.07,316.14c.27,12.91-8.95,20.57-20.09,26.77-7.05,3.92-14.32,7.54-21.74,10.79-8.95,3.92-18.17,7.3-27.26,11-3.05,1.23-5.12,1.14-7.87-1.49-6.32-6-13.92-10.67-21.94-14.61-8.52-4.18-17.36-7.85-25.54-12.55-7.69-4.41-15.7-8.84-20.38-16.59a22.17,22.17,0,0,1-2.15-5.57c-.67-2.41-1.1-2.43-3.41-1.45a24.3,24.3,0,0,1-6.8,1.35c-.33,0-1.4-1.78-1.18-2.06,4.46-5.46,1.67-11.13.09-16.39-3.52-11.76-8.26-23.2-11.58-35-4.75-16.86-1.18-32.62,9.79-46.67a35.58,35.58,0,0,0,7.87-19c.36-3.89.13-4.29-3.74-5.61-7-2.38-11.14-6.89-11.76-14-.35-3.88-.49-7.83-1.49-11.57-.74-2.75-2.75-5.2-4.13-7.81-1.54-3-3.53-5.8-4.41-8.92-2.17-7.73,3.4-16.34,11.52-18.89.76-.24,1.53-1.84,1.47-2.76q-.45-7.09-1.37-14.17a119.5,119.5,0,0,1,5.72-54.57c3.37-9.94,7.56-19.8,16.15-27A110.78,110.78,0,0,1,272.68,18.9c9.16-5.28,19.59-6.76,30-8.27C314.12,9,325.58,8.1,337,9.83a82.53,82.53,0,0,1,18.23,5.09c6.43,2.59,11.08,7.52,14.65,13.14a5.65,5.65,0,0,0,4.43,2.9c7.74,1.14,15.43,2.76,22.22,6.54,11.31,6.31,19.62,14.85,23.05,27.28,3.67,13.32,3.13,26.48.36,39.77-1.2,5.77-1.94,11.63-3,17.43-.36,2,.35,3,2.4,3.85,8.9,3.5,13.12,15.87,8.23,23.8-1.81,3-4,5.74-5.37,8.86-1.15,2.65-1.42,5.65-1.93,8.52-.69,3.82-1.08,7.7-1.88,11.5-.95,4.57-4.41,7.45-8.64,9.27-3,1.3-4.22,3.2-4.3,6.07a17.65,17.65,0,0,0,3.18,11c5,7.22,10.37,14.32,14.34,22,6.89,13.42,9.56,27.61,6.74,42.62a86.75,86.75,0,0,1-22.08,44.19C406.34,315.06,403.61,315.24,401.07,316.14Zm-7.17-109c1-1.05,1.75-1.57,2-2.25a51.64,51.64,0,0,0,2.08-7.12c1.87-9.71,3.69-19.43,5.36-29.17,2.78-16.16,4.67-32.37,2.64-48.75-1.26-10.19-2.79-20.35-7.91-29.63-6.5-11.77-16.27-18.91-31.05-18.75a17.52,17.52,0,0,1-2.53-.38c4-10.78,7.52-21.34,6.53-32.63-1.69,10.33-4.18,20.44-9.24,29.85-.8,1.49-1.76,3.42-3.18,4a101.75,101.75,0,0,1-14.31,4.66c-10.26,2.43-20.76,2.24-31.21,1.65-8.21-.47-16.39-1.31-24.58-2-12.77-1-22,4.3-28.82,14-6.16,8.82-8.28,18.84-9.6,29.07a142.92,142.92,0,0,0,.1,37.25c1.91,14.39,4.45,28.71,6.84,43.05.38,2.27,1.38,4.46,2.34,7.46l3.78-5c-.14,1.7-.17,2.71-.3,3.7-.54,3.9.57,7.17,4.19,9.41s7.12,2.08,10.85.09a65.66,65.66,0,0,1,23.42-7.54,77.37,77.37,0,0,0,8.81-2.09c-6.31-4.76-6.89-7.37-2.86-12.55-.09,3.8-1.51,7.8,3.14,9.88,3.52-2.66,4.4-2.63,7.62-1.08,5.56,2.67,4.65,8.46,7.08,12.62.31.53-1,2-1.68,2.88-1,1.26-2.12,2.41-3.25,3.67,6.19,2.33,9.28,2.3,14.16-.09-.8-.87-1.51-1.75-2.32-2.55-2.27-2.22-3.72-4.5-1.05-7.36a2.5,2.5,0,0,0,.64-1.52c.05-3.88,3.78-8.24,7.75-8.7a3.87,3.87,0,0,1,2.89.91c1.57,1.77,2.9,1.32,3.8-.28a15,15,0,0,0,1.35-4.51,16.55,16.55,0,0,0,0-3.15l.85-.11c.46,1.68,1.69,3.6,1.21,5-.86,2.53-2.74,4.75-4.23,7.18a51,51,0,0,0,7.26,1.8c8.93,1,17,4,24.85,8a11.05,11.05,0,0,0,6.87.95c5.4-1.24,7.62-4.66,7.42-10-.05-1.32,0-2.65,0-4l.61,0ZM250.47,180.41c-.33-2-.51-3.95-1-5.87-1.29-5.07-2.77-10.09-4.06-15.15-2.18-8.57-4.25-17.16-6.41-25.73a3.51,3.51,0,0,0-4.88-2.37,9.68,9.68,0,0,0-3.55,2.54c-4.25,5-6.23,11.59-1,17.73a28.27,28.27,0,0,1,7,19.18,23.1,23.1,0,0,0,.58,5.09c.84,3.83,2.32,7,6.85,8.6C250.17,186.54,250.63,186.44,250.47,180.41Zm89.11,59.41.33.84c1.84-.56,3.88-.83,5.48-1.76,3.05-1.76,6.33-3.5,8.64-6,2.78-3,.82-6.41-3.34-6.5-7.27-.16-14.54-.21-21.81-.23q-13.78,0-27.56.08c-.71,0-2,.7-2,1.1-.06,1.93-.52,4.41.54,5.7,4.14,5,10.15,7,17.43,8.35L312.23,235h31.23Zm64.77-55c5.95-.46,9.4-2.74,10.3-7.16s1.08-8.82,1.69-13.22a18.06,18.06,0,0,1,1.3-5.75,100.57,100.57,0,0,1,6.11-10.11c4.64-6.93,1.07-14.33-3.56-18.56-2.25-2.05-5.39-1.3-5.9,1.21-1.13,5.49-2.13,11-3.26,16.5-1.92,9.39-4,18.76-5.82,28.17A88.66,88.66,0,0,0,404.35,184.79Z" transform="translate(-155.98 -8.88)"/><path d="M156,358.05c1.24-1.85,2.09-3.73,3.51-5.09,6.43-6.16,14.66-7.78,23.45-7.42a8.06,8.06,0,0,0,5.75-1.76c14.7-11.33,39.07-5.56,45.9,10.94a20.15,20.15,0,0,1,1.06,7.82c0,2.16.64,3.4,2.78,4.08,8.83,2.78,17.65,5.63,26.48,8.4,7.27,2.28,14.5,4.73,21.88,6.66,8.48,2.23,17.09,4.08,25.7,5.86,2.09.44,4.41-.1,6.63-.11,4.62,0,9.25.21,13.85,0A90.72,90.72,0,0,0,347.66,386c12.23-2.66,24.48-5.37,36.47-8.81,13.43-3.85,26.57-8.56,39.87-12.8,1.81-.57,2.42-1.34,2.24-3.06-.87-8.81,3-15.54,10.75-20.28,10-6.1,20.73-7.37,31.49-2.36,12.68,5.91,15.39,19.66,5.64,29.33-8.73,8.66-19.6,12.93-32.4,9-4.6-1.42-9.12-3.84-11.88-8-1.25-1.88-2.46-2-4.47-1.07-8.5,4-17,7.9-25.61,11.67-10.92,4.79-21.91,9.4-32.87,14.1-1.08.47-2.1,1.07-3.91,2,3.92,1.69,7.23,3.15,10.57,4.54,13.71,5.68,27.63,10.93,41.09,17.1,14.15,6.49,27.88,13.81,41.74,20.85a29.13,29.13,0,0,1,4.46,3.34c1.48,1.15,3.22,2.23,2.41,4.43-.59,1.59-3,2.45-6,2.1a16.44,16.44,0,0,0,1.08-1.28c.33-.48.57-1,.94-1.68l-11.91-5.4-.92.77c-1-1.9-2-4-5.14-2.75-1.18-2.74-6-4.7-8.48-3.05.23-.89.41-1.56.58-2.23-4.78-.6-8.41-4.48-13.61-4.2l.85-1.91-2.5.71-.93-2.09-2.17,1.33c-.15-.73-.3-1.45-.44-2.16-1.57,1.37-2.68-3.5-4.29,0-.89-2.11-2-3.53-4.53-3.07a1.46,1.46,0,0,1-.91-.37c-2-1.41-3.94-2.85-6-4.37l-2.13,1.58c.07-1,.12-1.68.14-1.94l-3.36-1.9-1.32,1c-1.29-1.49-1.94-4.08-4.24-2.94l-7.46-3.87-1.92,1.12c.19-1,.31-1.58.4-2.09-2-.81-4.38-.67-6.09-2.4-1.5-1.51-3-1.86-4.55.31-2.95,4-6.11,7.95-9.43,11.73-.56.64-2.46.71-3.54.42-5.35-1.45-10.64-3.11-15.95-4.68-3.57-1-7.12-2.2-10.75-3a9.76,9.76,0,0,0-4.49.18c-9,2.38-17.93,4.8-26.85,7.35-9.08,2.6-18.09,5.44-27.17,8.06-10.54,3.06-21.15,5.94-31.69,9-7.52,2.19-15,4.6-22.47,6.82-4.44,1.31-8.91,2.55-13.44,3.56-1.16.26-2.58-.48-3.87-.76.41-1.08.48-2.59,1.29-3.17a160,160,0,0,1,15.22-10.18c7.22-4,14.87-7.33,22.26-11.08,16.12-8.19,33.6-13.06,50.83-18.56,2.59-.83,5.2-1.61,7.77-2.49.56-.19,1-.74,1.95-1.5l-14.19-6.06c-10.41-4.45-20.83-8.87-31.22-13.36-5.31-2.29-10.56-4.7-15.82-7.07a3.31,3.31,0,0,0-4.44.94,29.12,29.12,0,0,1-35.66,5.88c-8.63-4.72-15.19-11.19-14.36-21.66.14-1.72-.74-2.55-2.53-2.94-7.66-1.69-14.69-1.07-20.54,4.45a15,15,0,0,1-1.87,1.38C157.26,358.41,157,358.27,156,358.05Zm57.85,17.44a65.19,65.19,0,0,0,7.34-1.59c10.61-3.44,13.59-13.3,6.93-21.77-6.46-8.2-19.22-11.32-29.32-7.52-8.58,3.22-12.11,11.09-7.95,18.85C195.3,371.8,203.45,374.7,213.83,375.49Zm235.05-2.42c7.27-.18,13.85-2.49,19.07-7.66,7.14-7.07,5.91-17-2.62-21.93-10.3-5.93-27.54-1.53-33.21,8.62-2.76,4.95-3,10.09.88,14.7S442.51,373,448.88,373.07Zm-115.56,24.6c.06-2.85-3-5.57-6.14-5.54s-6,2.57-6.12,5.28c-.1,3,2.68,5.42,6.16,5.43S333.27,400.56,333.32,397.67Z" transform="translate(-155.98 -8.88)"/><path d="M381.41,423.11c-.45.57-1.08,1.7-1.33,1.63-5.58-1.54-11.12-3.2-16.75-4.87.25-1,.44-1.79.49-2l5.92,3c.33-1.3.58-2.26.82-3.22l.65,0,.33,2.69,1,1,1.62-2.71.48.05c-.43,1-.85,2.05-1.28,3.07l.47.48,3.73-3.28.49.25a10.29,10.29,0,0,0-1,1.66,2.53,2.53,0,0,0,.23,2.32c1.1-1.3,2.21-2.59,3.32-3.89l.68.38c-.36.54-.75,1.07-1.07,1.64-.74,1.28-.9,2.26,1.25,1.88Z" transform="translate(-155.98 -8.88)"/><path d="M389.72,418.06c-.89,1.25-1.74,2.51-2.67,3.73s-1.95,2.41-2.93,3.61l-.85-.52,5.5-7.16Z" transform="translate(-155.98 -8.88)"/><path d="M381.49,423.18l4-6.17c.75,1.94-1.79,5.43-4.12,6.1Z" transform="translate(-155.98 -8.88)"/><path class="cls-1" d="M393.9,207.12,392.23,203l-.61,0c0,1.33,0,2.66,0,4,.2,5.3-2,8.72-7.42,10a11.05,11.05,0,0,1-6.87-.95c-7.84-4-15.92-7-24.85-8a51,51,0,0,1-7.26-1.8c1.49-2.43,3.37-4.65,4.23-7.18.48-1.4-.75-3.32-1.21-5l-.85.11a16.55,16.55,0,0,1,0,3.15,15,15,0,0,1-1.35,4.51c-.9,1.6-2.23,2-3.8.28a3.87,3.87,0,0,0-2.89-.91c-4,.46-7.7,4.82-7.75,8.7a2.5,2.5,0,0,1-.64,1.52c-2.67,2.86-1.22,5.14,1.05,7.36.81.8,1.52,1.68,2.32,2.55-4.88,2.39-8,2.42-14.16.09,1.13-1.26,2.27-2.41,3.25-3.67.71-.91,2-2.35,1.68-2.88-2.43-4.16-1.52-9.95-7.08-12.62-3.22-1.55-4.1-1.58-7.62,1.08-4.65-2.08-3.23-6.08-3.14-9.88-4,5.18-3.45,7.79,2.86,12.55a77.37,77.37,0,0,1-8.81,2.09,65.66,65.66,0,0,0-23.42,7.54c-3.73,2-7.28,2.12-10.85-.09s-4.73-5.51-4.19-9.41c.13-1,.16-2,.3-3.7l-3.78,5c-1-3-2-5.19-2.34-7.46-2.39-14.34-4.93-28.66-6.84-43.05a142.92,142.92,0,0,1-.1-37.25c1.32-10.23,3.44-20.25,9.6-29.07,6.78-9.72,16-15,28.82-14,8.19.65,16.37,1.49,24.58,2,10.45.59,20.95.78,31.21-1.65a101.75,101.75,0,0,0,14.31-4.66c1.42-.57,2.38-2.5,3.18-4,5.06-9.41,7.55-19.52,9.24-29.85,1,11.29-2.56,21.85-6.53,32.63a17.52,17.52,0,0,0,2.53.38c14.78-.16,24.55,7,31.05,18.75,5.12,9.28,6.65,19.44,7.91,29.63,2,16.38.14,32.59-2.64,48.75-1.67,9.74-3.49,19.46-5.36,29.17a51.64,51.64,0,0,1-2.08,7.12C395.65,205.55,394.85,206.07,393.9,207.12ZM268,153.15a66.44,66.44,0,0,0,7.07.8,45.8,45.8,0,0,0,6-.7c1.76-.24,2.94-.06,3.7,1.91a6.26,6.26,0,0,0,9.34,2.54c2.29-1.79,4.11-1.94,6.44-.51a13.65,13.65,0,0,0,2.53,1c4.47,1.6,8,.86,10.79-2.7a32.11,32.11,0,0,0,3.95-6.67c2.34-5.17,2-5.41-3.72-6.68-11.43-2.54-22.8-5.31-34.2-8-7.37-1.72-14.33-1.32-20.23,3.77A11.36,11.36,0,0,0,255.5,147c4.88-1.85,9.24-4.31,13.91-5.05a17.46,17.46,0,0,1,14.25,3.82C277.39,146.77,272.18,148,268,153.15Zm101.8-7.23c2.24-3.78,6.1-3.32,9.07-3.78a22.12,22.12,0,0,1,9.48.85c3,.93,5.68,2.94,9.19,4.85A34.33,34.33,0,0,0,397,144c-1.65-6.17-9.34-11.56-16.38-10.75-7.22.83-14.39,2.26-21.5,3.77-7.6,1.61-15.08,3.73-22.67,5.39-2.26.49-3.2,1.53-2.42,3.3a56.46,56.46,0,0,0,5.17,9.86c2.37,3.36,5.83,4,10,2.76a16.44,16.44,0,0,0,3.94-1.48c1.95-1.22,3.31-.9,5.08.47,3.28,2.53,8.41,1.63,9.8-1.85.93-2.33,2.23-2.54,4.34-2.2a32.89,32.89,0,0,0,5.73.66,49.89,49.89,0,0,0,6.06-.75c0-.34.07-.67.1-1C380.69,148.18,375.71,146.71,369.77,145.92Z" transform="translate(-155.98 -8.88)"/><path class="cls-1" d="M250.47,180.41c.16,6-.3,6.13-6.44,4-4.53-1.56-6-4.77-6.85-8.6a23.1,23.1,0,0,1-.58-5.09,28.27,28.27,0,0,0-7-19.18c-5.22-6.14-3.24-12.69,1-17.73a9.68,9.68,0,0,1,3.55-2.54,3.51,3.51,0,0,1,4.88,2.37c2.16,8.57,4.23,17.16,6.41,25.73,1.29,5.06,2.77,10.08,4.06,15.15C250,176.46,250.14,178.45,250.47,180.41Z" transform="translate(-155.98 -8.88)"/><path class="cls-1" d="M339.58,239.82l3.88-4.82H312.23l5.06,6.43c-7.28-1.3-13.29-3.36-17.43-8.35-1.06-1.29-.6-3.77-.54-5.7,0-.4,1.29-1.1,2-1.1q13.77-.14,27.56-.08c7.27,0,14.54.07,21.81.23,4.16.09,6.12,3.52,3.34,6.5-2.31,2.47-5.59,4.21-8.64,6-1.6.93-3.64,1.2-5.48,1.76Z" transform="translate(-155.98 -8.88)"/><path class="cls-1" d="M404.35,184.79a88.66,88.66,0,0,1,.86-8.92c1.84-9.41,3.9-18.78,5.82-28.17,1.13-5.49,2.13-11,3.26-16.5.51-2.51,3.65-3.26,5.9-1.21,4.63,4.23,8.2,11.63,3.56,18.56a100.57,100.57,0,0,0-6.11,10.11,18.06,18.06,0,0,0-1.3,5.75c-.61,4.4-.8,8.87-1.69,13.22S410.3,184.33,404.35,184.79Z" transform="translate(-155.98 -8.88)"/><path class="cls-1" d="M213.83,375.49c-10.38-.79-18.53-3.69-23-12-4.16-7.76-.63-15.63,7.95-18.85,10.1-3.8,22.86-.68,29.32,7.52,6.66,8.47,3.68,18.33-6.93,21.77A65.19,65.19,0,0,1,213.83,375.49Z" transform="translate(-155.98 -8.88)"/><path class="cls-1" d="M448.88,373.07c-6.37-.1-11.95-1.6-15.88-6.27s-3.64-9.75-.88-14.7c5.67-10.15,22.91-14.55,33.21-8.62,8.53,4.92,9.76,14.86,2.62,21.93C462.73,370.58,456.15,372.89,448.88,373.07Z" transform="translate(-155.98 -8.88)"/><path class="cls-1" d="M333.32,397.67c-.05,2.89-2.75,5.18-6.1,5.17s-6.26-2.46-6.16-5.43c.09-2.71,3-5.26,6.12-5.28S333.38,394.82,333.32,397.67Z" transform="translate(-155.98 -8.88)"/><path d="M268,153.15c4.21-5.15,9.42-6.38,15.69-7.39a17.46,17.46,0,0,0-14.25-3.82c-4.67.74-9,3.2-13.91,5.05a11.36,11.36,0,0,1,4.18-9.09c5.9-5.09,12.86-5.49,20.23-3.77,11.4,2.66,22.77,5.43,34.2,8,5.7,1.27,6.06,1.51,3.72,6.68a32.11,32.11,0,0,1-3.95,6.67c-2.82,3.56-6.32,4.3-10.79,2.7a13.65,13.65,0,0,1-2.53-1c-2.33-1.43-4.15-1.28-6.44.51a6.26,6.26,0,0,1-9.34-2.54c-.76-2-1.94-2.15-3.7-1.91a45.8,45.8,0,0,1-6,.7A66.44,66.44,0,0,1,268,153.15Z" transform="translate(-155.98 -8.88)"/><path d="M369.77,145.92c5.94.79,10.92,2.26,14.46,6.28,0,.34-.07.67-.1,1a49.89,49.89,0,0,1-6.06.75,32.89,32.89,0,0,1-5.73-.66c-2.11-.34-3.41-.13-4.34,2.2-1.39,3.48-6.52,4.38-9.8,1.85-1.77-1.37-3.13-1.69-5.08-.47a16.44,16.44,0,0,1-3.94,1.48c-4.13,1.28-7.59.6-10-2.76a56.46,56.46,0,0,1-5.17-9.86c-.78-1.77.16-2.81,2.42-3.3,7.59-1.66,15.07-3.78,22.67-5.39,7.11-1.51,14.28-2.94,21.5-3.77,7-.81,14.73,4.58,16.38,10.75a34.33,34.33,0,0,1,.49,3.81c-3.51-1.91-6.16-3.92-9.19-4.85a22.12,22.12,0,0,0-9.48-.85C375.87,142.6,372,142.14,369.77,145.92Z" transform="translate(-155.98 -8.88)"/></svg>