<?xml version="1.0" encoding="utf-8"?>
<!-- Generator: Adobe Illustrator 25.2.1, SVG Export Plug-In . SVG Version: 6.00 Build 0)  -->
<svg version="1.1" id="Capa_1" xmlns="http://www.w3.org/2000/svg" xmlns:xlink="http://www.w3.org/1999/xlink" x="0px" y="0px"
	 viewBox="0 0 585.3 793.3" style="enable-background:new 0 0 585.3 793.3;" xml:space="preserve">
<style type="text/css">
	.st0{fill:#FFFFFF;}
</style>
<path d="M410.9,477.8c1.7,10.7-1.9,20-9.5,26.9c-6.9,6.3-14.5,11.8-22.7,16.3c-20.8,11.6-42.6,21.3-65.1,28.9
	c-5.7,1.9-11.4,3.9-17.1,5.8c-3.4,1.2-6.2,1.1-9.4-1.4c-7.9-6.3-16.2-12.2-24.8-17.5c-8.4-5.1-17.5-9.2-26.3-13.5
	c-12.2-5.9-24.9-11-36.5-17.8c-8.6-5-16.3-12-23.8-18.7c-2.5-2.2-3.8-6.3-4.6-9.8c-1-4-1.9-4.8-6.1-3c-3.8,1.6-8.5,1.2-13.6,1.7
	c8.4-16.2,1.3-29.4-3.7-43c-4.2-11.5-7.8-23.1-12.4-34.4c-3.6-8.9-5.4-18.4-5.3-28c-0.1-19.5,7.4-36.4,19.8-51.3
	c7.8-9.1,12.1-20.7,12.2-32.7c0-2.6-0.8-4.2-3.5-5.1c-3.5-1.2-7-2.5-10.3-4.1c-6.9-3-9.2-9.1-10.6-15.7c-0.5-2.9-0.8-5.7-0.7-8.7
	c0-10.8-5.7-19.3-11.4-27.9c-2.4-3.6-5.1-7.8-5.5-11.9c-0.4-4.4,1-9.3,2.8-13.4c3.2-7.3,7.8-13.5,17-14.7c0.9-0.1,2.1-3,2-4.5
	c-0.4-6.7-1-13.4-1.9-20c-2.6-18.5-2.3-37.2,1.1-55.5c1.9-10.7,5.2-21.2,8.6-31.6c2.4-7.7,5.7-15.1,9.7-22.1
	c10.3-17.5,25.6-29.7,44.8-37.3c24.5-9.8,50.4-12.8,76.5-13.9c17.8-0.7,35.4,1.1,52.2,7.4c11.7,4.5,21.8,12.4,28.9,22.8
	c1.5,2,3.7,3.3,6.1,3.8c17,2.8,33.4,7.2,47.8,16.8c12.4,8.3,20.6,19.6,25.8,33.6c7.4,19.6,6.2,39.4,3.1,59.4c-1.6,9.9-4,19.6-6,29.4
	c-1.4,6.6-1.3,6.9,5.2,9.1c0.9,0.2,1.8,0.6,2.5,1.1c8,7.8,15.2,16.3,12.4,28.2c-1.3,5.5-5,10.7-8.4,15.6c-4,5.8-5.4,12.1-6.4,18.7
	s-2.4,13.1-4,19.6c-1.4,6.2-6.1,11-12.3,12.6c-5.7,1.6-8.2,5.1-8.3,10.9c-0.2,7.2,2.4,14.3,7.1,19.7c4.5,5.4,8.5,11.2,12.8,16.7
	c7.8,10.1,12.1,21.7,16.6,33.4c7.1,18.5,6.8,37.1,1.9,55.6c-3.1,11.5-7.6,22.5-13.4,32.9c-5.2,9.3-12.6,17.5-19.3,25.9
	c-2.8,3.6-6.2,6.6-11.5,4.1C412.6,477.2,411.9,477.6,410.9,477.8z M396,303.4l0.8-0.2c0.3,0.5,0.5,1,0.9,1.5
	c0.9,1.4,1.9,2.8,2.8,4.1c1.1-1.4,2.9-2.7,3.3-4.4c3.8-15.8,7.8-31.6,10.8-47.5c2.3-12.1,3.5-24.4,5.1-36.7
	c0.8-6.8,2.3-13.7,1.7-20.5c-1.8-20.4-0.7-41.1-9.4-60.5c-3.9-8.6-7-17.3-14-24.3c-11.3-11.3-24.6-17.1-40.6-17.4
	c-1.8,0-3.5-0.2-6.1-0.3c6.3-16.9,13.4-33,11.1-50.9c-2.3,16.3-7.9,31.5-15.1,46.2c-1.2,2.5-3.2,5.3-5.6,6.3
	c-7.3,3-14.8,6.3-22.5,7.3c-14.3,2-28.7,3-43.1,3c-16-0.1-31.9-2.1-47.9-3.2c-9.5-0.6-18.9,0.1-27.8,4
	c-14.1,6.2-22.7,17.5-28.5,30.9c-6.6,15.2-8.3,31.5-9,47.8c-1.4,33.5,3.1,66.6,9.6,99.4c1.4,7.1,4.1,14,6.2,21l1.3,0.2
	c1.4-2.1,2.9-4.1,4.4-6.3c0.2,0.4,0.4,0.7,0.5,1.1c0.1,0.8,0,1.5-0.1,2.3c-0.9,5.7-0.4,11.1,4.9,14.7c6.2,4.2,12.6,5.2,19.6,1.4
	c12.4-6.8,26.1-11,40.1-12.3c4.2-0.4,8.4-1.2,13.4-2c-11-8.2-11.9-11.5-6.1-20.1c0.2,3.6,0,7.2,0.9,10.6c1.2,4.4,4.6,5.1,8.1,2.7
	c1.3-0.9,3.8-1.7,5-1.1c3.8,2,8.3,4.1,10.7,7.4c2.7,3.7,3.8,8.8,5,13.4c0.3,1.3-1.5,3.2-2.6,4.7c-1.5,2-3.2,3.9-4.9,5.9
	c8,3.7,15.4,3.6,23.1,0l-4.2-4.4c-3.3-3.4-5.6-6.9-1.6-11.4c0.7-0.9,1-2.1,0.9-3.2c-0.2-5,10.2-13.7,15.2-12.5c1,0.4,1.9,1,2.5,1.8
	c2.5,2.3,4.9,2.2,6.4-0.7c1-2.3,1.7-4.7,2.1-7.2c0.2-1.7,0.2-3.3,0.1-5l1.9-0.1c0.3,3.4,1.5,7.1,0.6,10.1c-1,3.3-4,6.1-6.3,9.4
	c1.2,0.3,2.6,0.6,4.1,0.9c9.9,1.9,19.9,3.2,29.6,5.9c7.5,2.1,14.5,6,21.8,8.9c10.4,4.2,21-3.1,20.8-14
	C396,307.9,396,305.6,396,303.4z M165.7,268.2c-1.5-5-3.2-10-4.6-15c-5.2-19.5-10.4-39.1-15.5-58.6c-1-3.9-3.9-4.9-7.1-3.9
	c-2.8,0.9-5.3,2.5-7.1,4.7c-9.6,12.9-6.7,21.1,2.4,31.9c3.6,4.3,6.5,8.8,7,14.5c0.4,5.2,1.2,10.3,1.6,15.5
	c0.6,8.7,4.4,14.7,13.3,17.6C163.8,277.6,165.2,277,165.7,268.2z M310.6,360.2c0.2,0.5,0.4,1,0.6,1.5c3.1-0.9,6.6-1.3,9.4-2.9
	c5-2.8,10.4-5.6,14.2-9.7c4.1-4.3,1.1-9.2-4.9-9.3c-9.7-0.2-19.5-0.5-29.2-0.4c-17.3,0.4-34.7-1.6-52-0.1c-3.5,0.3-4.6,1.3-4.9,4.4
	c-0.3,3.5,1.3,5.8,3.9,8.1c7.2,6.2,15.7,9,26.1,11.2c-3-4-5.3-7-7.8-10.3h51.1L310.6,360.2z M417.2,268.6l0.4,0.1
	c-0.2,1.4-0.1,2.7,0.1,4.1c0.3,0.9,1.5,2,2.3,2c5.8-0.1,13-5.5,14.1-11.2c1.3-7,1.4-14.2,2.7-21.2c0.9-4.7,2.5-9.3,4.6-13.6
	c1.8-3.8,4.6-7.1,7.1-10.6c8-11,2-22.4-4.5-28.8c-1.6-1.6-5.2-2.1-7.6-1.8c-1.3,0.2-2.6,3.3-3,5.2c-3.3,14.2-6.5,28.5-9.5,42.7
	C421.4,246.5,419.3,257.6,417.2,268.6L417.2,268.6z"/>
<path d="M504,685.2c1.1-1.7,2.1-3.1,3.4-5.1c-5.4-2-10.4-4-15.5-5.7c-4.7-1.5-8.6-5.4-14.6-5.5c-1.2-1.5-2-5.2-6.6-3.7
	c-0.9,0.3-2.5-1.4-4.2-2.4l-2.9,2.1l1-3.4l-19.3-7.6l-2.2,1.6l-0.6-0.5l1.9-3.7l-4.9,1c-0.8-2.3-1.8-5.2-4.8-0.1c0-2,0-3.1,0-4.2
	l-7.7-1.9c-2.1-1.1-3.2-4.2-7.2-3.4c-0.5,0.1-1.1-0.9-1.8-1.2c-2.2-1-4.5-1.8-6.6-2.8c-1.3-0.7-2.5-1.5-3.6-2.5l-3,2.5
	c0.1-1.7,0.2-2.6,0.3-3.9c-2.9,2.7-4.5-6.9-8-0.5c-2.1-2.8-3.4-6.5-6.6-5l-12.5-6.1l-2.6,1.7c0.2-1.5,0.3-2.6,0.4-3.6
	c-5.3-0.1-9.6-2.5-14.1-6.7c-3.8,4.2-7.4,8.2-11,12.3c-2.9,3.3-5.4,7-8.4,10.1c-1,1-3.5,1.2-5,0.8c-9.1-2.5-18.1-5.2-27.2-7.8
	c-5.8-1.7-11.6-3.5-17.5-4.8c-2.6-0.4-5.3-0.2-7.8,0.5c-18.1,4.7-36.3,9.4-54.3,14.4c-17,4.7-34,9.7-51,14.3s-34.1,9.2-51.1,13.8
	c-12.7,3.5-25.3,7.2-38,10.5c-3.3,0.9-7.9,3.5-9.9-0.8c-0.7-1.5,2.9-6.1,5.6-7.6c12.7-7.5,25.4-15.2,38.8-21.3
	c17.8-8.2,36-15.4,54.4-22.2c16.8-6.2,34-11.3,51.1-16.9c3.6-1.2,7.4-2.1,11-3.1l0.3-1.5c-3.2-1.4-6.5-2.8-9.7-4.2
	c-17.4-7.3-34.8-14.5-52.2-21.7c-12.7-5.2-25.4-10.5-38.2-15.4c-1.5-0.6-4.3,0.2-5.5,1.3c-18.8,18-48.5,19.2-69.2,3.2
	c-9.1-7-14-15.6-13.6-27c0.1-3-1-4.2-4-4.9c-13.4-3-25.6-1.4-36,8c-0.2,0.2-0.5,0.3-0.8,0.4c-0.6,0-1.1-0.1-1.7-0.3
	c0.6-1.4,1.2-2.8,2-4.2c5.8-8.2,14.6-11.6,23.9-13.7c4.5-1.1,9.3-2,13.8-1.5c6.4,0.7,11.1-1.6,16.2-4.8c15.9-9.9,32.5-9.1,49.5-2.5
	c8,3.1,13.9,8.7,19.1,14.8c4.4,5,6.4,11.7,5.4,18.4c-0.6,4.5,1.6,6.3,5.5,7.4c18.5,5.6,36.8,11.8,55.5,16.8
	c21.4,5.7,43,10.5,64.6,15.3c3.8,0.8,8-0.2,12-0.3c7.1,0,14.2,0.4,21.2,0c8.5-0.4,17.1-0.7,25.3-2.4c20-4.2,39.9-8.8,59.6-14.1
	c21.8-5.9,43.2-13,64.9-19.4c3.1-0.9,3.7-2.5,3.5-5.3c-1.1-14.2,6.3-23.8,17.8-31.1c14.5-9.2,30.1-10.8,46.4-6.1
	c10.2,2.9,18.2,8.8,21.9,19.2c4,11.2-2.1,27.6-12.4,34c-7.7,4.8-15.7,8.5-24.8,9.8c-16.9,2.3-32.2-0.2-43.4-14.5
	c-1.8-2.3-3.6-1.9-5.7-1c-11.5,4.9-23,9.8-34.6,14.7c-20.6,8.7-41.2,17.3-61.9,26c-2,0.8-3.8,1.8-7.1,3.4c7.4,2.7,13.5,4.9,19.6,7.2
	c13.8,5.4,27.7,10.7,41.4,16.4c15.7,6.5,31.4,12.9,46.7,20.2c17.9,8.6,35.4,18.1,53,27.3c2.4,1.2,6.3,3.2,4,6.4
	c-1.5,2.2-5.3,2.8-8.2,4.1C505.4,685.7,504.8,685.4,504,685.2z M489.2,568.6c8.8,0.4,17-2.2,24.5-6.2c6.6-3.4,11.7-9.1,14.4-16
	c4.3-11.6-2.3-20.7-13.5-25.3c-16.9-6.9-32.6-3-46.5,7.9c-8.8,7-11,20.1-5,28.3C469.4,566,479,568.1,489.2,568.6z M105.5,572.5
	c2.8-0.7,7.5-1.4,12-2.8c15.9-5.1,20.5-20.8,10.4-33.9C119.5,524.8,96,517,79,524.3c-12.2,5.2-20.5,18.8-9.8,32.6
	C77.8,567.9,89.9,571.5,105.5,572.5z M290.8,614.5c5.2,0,9.6-3.8,9.4-8.2s-4.8-8.2-9.7-8.1c-5.3,0.1-10,4-9.9,8.4
	C280.7,611.1,285.1,614.6,290.8,614.5z"/>
<path d="M55.3,743.9c2.8,0.5,5.2,0.9,7.6,1.5c6.7,1.5,9.9,4.6,10.3,10c0.6,6.7-3.1,13.3-8.8,15.2c-3.9,1.3-8,2.8-12.1,2.9
	c-17.3,0.3-34.7,0.1-52.4,0.1v-59.7c4.2,0,8.2-0.1,12.1,0c13.5,0.2,27,0.2,40.5,0.9c4.2,0.2,8.4,2,12.3,3.8c4,1.9,4.9,6.1,4.9,10.2
	c0,4.3-1.6,8.1-5.5,10.4C61.5,740.9,58.6,742.3,55.3,743.9z M20.6,758.8c8.2,0,16,0.2,23.7-0.2c1.8-0.1,3.4-2.2,5.1-3.4
	c-1.5-1.4-3-3.8-4.6-3.9c-8-0.4-16-0.2-24.2-0.2L20.6,758.8z M20.6,736.8c5.4,0,10.5,0.1,15.6,0c2.9,0.1,5.9-0.2,8.7-0.8
	c1.2-0.3,2.5-2.2,2.7-3.5c0.1-0.9-1.9-2.7-3-2.7c-8-0.2-15.9-0.1-24-0.1L20.6,736.8z"/>
<path d="M394.1,713.9c10.2,0,20.2-0.2,30.1,0.2c1.8,0.1,4.3,2.1,5.2,3.8c2.3,4.5,3.8,9.3,5.7,13.9c5.2,12.5,10.5,24.9,15.7,37.3
	c0.6,1.5,1.2,3,1.9,4.9h-22.3c-1.1-1.7-2.8-3.2-3-4.9c-1-7-5.8-7.2-11.5-6.8c-6.6,0.3-13.3,0.1-20,0.1l-4.4,11.8h-23
	C377.1,754.1,385.5,734.2,394.1,713.9z M401.6,749.2h18.5c-3.4-7.5-6.5-14.5-10-22.3C407,734.9,404.4,741.7,401.6,749.2L401.6,749.2
	z"/>
<path d="M545,793.3h-20.4v-64.2h17.8l2.6,9.8c3.7-8.1,10.3-10.3,17.9-10.8c5.1-0.5,10.2,1.2,14,4.7c11,9.8,11.3,26.9-1,37.9
	c-8.1,7.2-21.8,5.5-31.1-4.7L545,793.3L545,793.3z M554.7,760.1c5.7-0.1,9.7-3.8,9.4-9c-0.2-5.6-3.8-9-9.5-8.9
	c-6.5,0.1-9.7,3.2-9.7,9.1C545,756.5,549.1,760.2,554.7,760.1L554.7,760.1z"/>
<path d="M200.8,709.8h20.3v27.7c5.7-8.8,13.9-10.5,22.8-8.8c3.6,0.8,6.9,2.5,9.4,5.2c5.9,6.3,9.8,14.2,7.4,22.7
	c-2.1,7.6-5.5,15.5-14.8,17.6c-10,2.2-18.9,0.6-24.5-9c-0.4,0.4-0.7,0.5-0.8,0.8c-3,8.3-3,8.3-12.2,8.3h-7.7L200.8,709.8z
	 M230.9,743.2c-5.7-0.1-9.8,3.4-9.9,8.6c-0.1,6,2.9,9,9.4,9.2c5.9,0.2,9.6-3.3,9.6-9.2C240.1,746.6,236.5,743.3,230.9,743.2z"/>
<path d="M478.1,765.6v27.5h-19.4v-64.2h16.6l2.6,9.8c3-6.2,8.1-8.8,13.9-10.1c14.9-3.2,27.6,8.1,26.5,23.5
	c-0.6,8.2-3.6,14.8-10.5,19.8s-21.1,3.8-27-2.8C480,768.2,479.3,767.2,478.1,765.6z M487.8,742.2c-7,0.2-10,3.1-9.8,9.3
	c0.2,5.5,4.2,8.8,10.3,8.6c5.2-0.2,8.8-3.8,8.7-8.7C497,745.6,493.4,742,487.8,742.2z"/>
<path d="M95.7,748.6l-13.2-7.5c4.8-7.4,12-10.9,19.9-12.1c6.6-0.9,13.3-0.8,19.8,0.3c10.5,1.7,16.3,9,16.6,19.3
	c0.1,3.2-0.3,6.4,0.2,9.6c0.4,2.7,2,5.1,2.6,7.8c0.5,2.3,0.6,4.7,0.3,7c-0.1,0.7-2.5,1.2-3.9,1.4c-1.8,0.3-3.7,0.4-5.6,0.4
	c-7.5,0-12.9-1.3-14.7-12.3c-4.9,11.4-14.1,12.8-24.5,11.9c-8-0.7-12.6-4.7-13.1-11.6s3.4-11.5,11.3-13.2L95.7,748.6z M118.4,753.1
	c-5.7,1-11,1.9-16.2,3.1c-1,0.2-1.9,1.7-2.6,2.7c-0.1,0.2,0.9,1.5,1.6,1.8C106.7,763,115.9,759.1,118.4,753.1z M99.9,747.6
	c5.4,0,10,0.2,14.6-0.1c1.2-0.1,2.2-1.6,3.4-2.4c-1-0.7-2-2-3.1-2.1C109.6,742.7,104.4,743.1,99.9,747.6z"/>
<path d="M326.9,753.5h-40.2c0.8,3.6,3.5,6.4,7,7.4c5.1,1.5,10.3,1.4,14.5-2.1c2.2-1.8,3.8-1.8,6.2-0.8c3.9,1.7,8,2.9,12.1,4.4
	c0.2,0.5,0.5,1,0.7,1.5c-3.4,2.7-6.4,6.2-10.2,7.8c-10.1,4.4-20.8,4.6-31.5,2.1c-20-4.7-21.4-24.2-14.4-35.2
	c3.6-5.6,9.6-8.6,16.2-9.6c9.6-1.4,19-1.5,28.2,2.8C323.9,735.7,328.5,743.5,326.9,753.5z M308.5,746.2c-2.6-5.2-6.7-5.8-11-5.5
	c-3.6,0.3-7.2,1.1-8.9,5.5H308.5z"/>
<path d="M166.6,729c0.8,3.6,1.6,7,2.5,11c5-10.2,13.6-12.1,24.4-11.2c-0.8,6.2-1.6,12.1-2.5,18.5c-3.3-0.6-6.3-1.3-9.3-1.7
	c-7.7-1-11.6,2-11.9,9.6c-0.3,6.2-0.1,12.4-0.1,19.1c-6.7,0-13,0.1-19.3-0.1c-0.7,0-2-2-2-3c-0.2-13-0.1-26-0.2-39
	c0-2.3,0.5-3.3,3.1-3.2C156.1,729.1,161.1,729,166.6,729z"/>
<path d="M379.3,729.1c-0.9,6.1-1.7,11.9-2.6,18c-3.2-0.6-6.2-1.2-9.2-1.6c-6.9-0.9-11.6,2.6-12,9.3c-0.4,6.2-0.1,12.5-0.1,19h-20.6
	v-44.8h17.6c0.8,3.2,1.5,6.6,2.5,10.6C360.7,730.6,368.7,727.2,379.3,729.1z"/>
<path d="M379.4,646.1c0,1.7,0.7,3.5-2.5,2.6c-7.7-2.3-15.5-4.2-23.2-6.5c-1.8-0.5-5.2-1.2-3.1-3.9c3.5,1.5,6.6,2.7,10,4.1
	c0.5-1.6,0.9-3,1.4-4.3h0.8l0.9,4.1l4.1-3l0.6,0.5l-2.2,4l0.8,0.8c1.2-0.9,2.3-1.8,3.5-2.7s2.2-1.6,3.4-2.4l0.9,1.4
	c-0.9,0.6-2.1,0.9-2.5,1.7s-0.4,2.1-0.5,3.2c1-0.3,2.2-0.4,2.9-1.1c1.5-1.5,2.6-3.2,4.2-4.6c-1.1,5.8-1.1,5.8,0.9,6.2L379.4,646.1z"
	/>
<path d="M382.1,648.7l9.7-10.7l1.2,1l-9.2,10.8L382.1,648.7z"/>
<path d="M379.6,646.3c1.7-3.7,3.6-7.2,7.5-8.7l1.1,1l-8.7,7.5L379.6,646.3z"/>
<path d="M395,651.7l7.6-5.6l1.2,1.2l-6.7,6.5L395,651.7z"/>
<path class="st0" d="M396,303.4c0,2.2,0,4.5,0,6.7c0.2,11-10.4,18.2-20.8,14c-7.3-2.9-14.3-6.8-21.8-8.9c-9.6-2.7-19.7-4-29.6-5.9
	c-1.5-0.3-2.9-0.6-4.1-0.9c2.3-3.3,5.3-6,6.3-9.4c0.9-3.1-0.3-6.7-0.6-10.1l-1.9,0.1c0.1,1.7,0.1,3.3-0.1,5c-0.3,2.5-1,5-2.1,7.2
	c-1.5,2.9-4,3-6.4,0.7c-0.7-0.8-1.6-1.4-2.5-1.8c-5.1-1.2-15.5,7.5-15.2,12.5c0.1,1.2-0.2,2.3-0.9,3.2c-4,4.5-1.6,8,1.6,11.4
	l4.1,4.4c-7.6,3.7-15.1,3.7-23.1,0c1.7-2,3.4-3.9,4.9-5.9c1.1-1.5,2.9-3.4,2.6-4.7c-1.2-4.6-2.2-9.6-5-13.4
	c-2.4-3.3-6.9-5.3-10.7-7.4c-1.2-0.6-3.7,0.1-5,1.1c-3.5,2.4-7,1.7-8.1-2.7c-0.9-3.4-0.6-7-0.9-10.6c-5.8,8.6-4.9,11.9,6.1,20.1
	c-5,0.7-9.2,1.6-13.4,2c-14.1,1.3-27.8,5.4-40.1,12.3c-7.1,3.8-13.4,2.8-19.6-1.4c-5.3-3.6-5.8-9-4.9-14.7c0.1-0.8,0.1-1.5,0.1-2.3
	c-0.1-0.4-0.3-0.8-0.5-1.1c-1.5,2.2-3,4.2-4.4,6.3l-1.3-0.2c-2.1-7-4.8-13.9-6.2-21c-6.6-32.8-11-65.9-9.6-99.4
	c0.7-16.3,2.4-32.6,9-47.8c5.8-13.4,14.4-24.7,28.5-30.9c8.9-3.9,18.3-4.7,27.8-4c16,1.1,31.9,3.1,47.9,3.2c14.4,0,28.8-1,43.1-3
	c7.7-1,15.2-4.3,22.5-7.3c2.4-1,4.4-3.8,5.6-6.3c7.2-14.7,12.8-29.9,15.1-46.2c2.3,17.9-4.9,34-11.1,50.9c2.6,0.1,4.4,0.3,6.1,0.3
	c16,0.2,29.3,6,40.6,17.4c7,7,10.1,15.7,14,24.3c8.7,19.4,7.6,40.2,9.4,60.5c0.6,6.7-0.9,13.7-1.7,20.5c-1.5,12.2-2.7,24.6-5.1,36.7
	c-3.1,16-7,31.7-10.8,47.5c-0.4,1.6-2.2,2.9-3.3,4.4c-0.9-1.4-1.9-2.7-2.8-4.1c-0.3-0.5-0.6-1-0.9-1.5L396,303.4z M171.9,214.6
	l1.5,0.4c7.4-2.5,14.6-5.7,22.2-7.2s19.4,2.2,21.9,5.6c-8.4,1.8-17.3,2.8-23.6,11.8c4.4,0.5,7.5,1.2,10.7,1.2
	c3.7-0.1,7.4-0.9,11.1-1.3c2.6-0.3,4.5,0,5.7,3.1c2,5.6,9.9,8,14.9,4.3c3.5-2.6,6.4-3.5,10.3-1.2c1.7,0.8,3.4,1.4,5.2,1.9
	c7.2,2.5,12.8,1,17.3-4.9c2.2-2.7,4.2-5.6,6-8.6c4.3-7.4,3.2-9.7-5.2-11.2c-0.5-0.1-0.9-0.2-1.4-0.3c-18.6-4.3-37.1-8.6-55.7-12.8
	c-13.9-3.1-26.7-1.8-36.3,9.9C174.3,207.8,173.4,211.4,171.9,214.6z M406.1,216.9c-0.5-3.2-0.8-4.7-1-6.1
	c-1.5-9.5-17.5-17.7-26.1-16.9c-8.9,0.8-17.8,2.2-26.6,4c-15,3.2-29.8,7.3-44.7,10.6c-7.6,1.7-8,2-4.4,8.6c0.7,1.2,1,2.5,1.6,3.8
	c4.7,10.6,10.9,14.7,19.7,12.9c3.2-0.6,6.3-1.6,9.2-3c2.8-1.4,4.5-1.2,7,0.8c5.1,4.2,12.7,3.5,15.9-2c2.6-4.3,5.5-5,9.9-4.1
	c3,0.7,6.1,1,9.2,0.9c2.6-0.1,5.2-0.9,8.7-1.6c-6.2-8.6-15-9.5-23.1-12.1C376.6,204.7,391.1,206.8,406.1,216.9L406.1,216.9z"/>
<path class="st0" d="M165.7,268.2c-0.5,8.7-1.9,9.4-10,6.7c-8.9-2.9-12.7-8.9-13.3-17.6c-0.4-5.2-1.1-10.3-1.6-15.5
	c-0.4-5.8-3.3-10.2-7-14.5c-9.1-10.8-12.1-19-2.4-31.9c1.9-2.2,4.3-3.9,7.1-4.7c3.1-1,6-0.1,7.1,3.9c5.1,19.6,10.3,39.1,15.5,58.6
	C162.5,258.3,164.2,263.2,165.7,268.2z"/>
<path class="st0" d="M310.6,360.2l6.6-7.6h-51.1c2.5,3.3,4.8,6.3,7.8,10.3c-10.4-2.1-18.9-4.9-26.1-11.2c-2.7-2.3-4.3-4.5-3.9-8.1
	c0.3-3.1,1.4-4.1,4.9-4.4c17.4-1.4,34.7,0.5,52,0.1c9.7-0.2,19.5,0.2,29.2,0.4c6,0.1,9,5,4.9,9.3c-3.8,4.1-9.2,6.9-14.2,9.7
	c-2.8,1.5-6.2,2-9.4,2.9C311,361.2,310.8,360.7,310.6,360.2z"/>
<path class="st0" d="M417.2,268.7c2.1-11,4.2-22.1,6.5-33.1c3-14.3,6.2-28.5,9.5-42.7c0.5-2,1.8-5.1,3-5.2c2.5-0.4,6,0.2,7.6,1.8
	c6.5,6.4,12.5,17.9,4.5,28.8c-2.5,3.4-5.3,6.8-7.1,10.6c-2.1,4.3-3.6,8.9-4.6,13.6c-1.3,7-1.5,14.2-2.7,21.2
	c-1,5.7-8.2,11.2-14.1,11.2c-0.8,0-2-1.2-2.3-2c-0.2-1.3-0.3-2.7-0.1-4.1L417.2,268.7z"/>
<path class="st0" d="M489.2,568.6c-10.2-0.5-19.8-2.6-26.1-11.3c-6-8.3-3.9-21.4,5-28.3c13.9-10.9,29.6-14.8,46.5-7.9
	c11.2,4.6,17.8,13.7,13.5,25.3c-2.7,6.9-7.8,12.6-14.4,16C506.2,566.4,498,569,489.2,568.6z"/>
<path class="st0" d="M105.5,572.5c-15.6-0.9-27.6-4.6-36.3-15.6c-10.7-13.7-2.3-27.4,9.8-32.6c17-7.3,40.5,0.5,48.9,11.4
	c10.1,13.1,5.5,28.8-10.4,33.9C113,571.1,108.3,571.8,105.5,572.5z"/>
<path class="st0" d="M290.8,614.5c-5.7,0-10.1-3.4-10.2-7.9c-0.1-4.3,4.6-8.3,9.9-8.4c4.8-0.1,9.5,3.8,9.7,8.1
	S296,614.5,290.8,614.5z"/>
<path class="st0" d="M99.9,747.6c4.5-4.5,9.6-4.9,14.9-4.6c1.1,0,2.1,1.3,3.1,2.1c-1.1,0.8-2.2,2.4-3.4,2.4
	C110,747.8,105.3,747.6,99.9,747.6z"/>
<path d="M171.9,214.6c1.5-3.1,2.3-6.7,4.5-9.3c9.6-11.7,22.4-13,36.3-9.9c18.6,4.2,37.1,8.5,55.7,12.8c0.5,0.1,0.9,0.2,1.4,0.3
	c8.4,1.5,9.5,3.8,5.2,11.2c-1.8,3-3.8,5.9-6,8.6c-4.6,5.9-10.2,7.4-17.3,4.9c-1.8-0.5-3.5-1.1-5.2-1.9c-3.9-2.3-6.8-1.4-10.3,1.2
	c-5,3.7-12.8,1.3-14.9-4.3c-1.2-3.2-3.1-3.4-5.7-3.1c-3.7,0.4-7.4,1.2-11.1,1.3c-3.1,0.1-6.3-0.7-10.7-1.2c6.4-9,15.2-10,23.6-11.8
	c-2.4-3.3-14.3-7.1-21.9-5.6s-14.8,4.8-22.2,7.2L171.9,214.6z"/>
<path d="M406.1,216.9c-15-10.1-29.5-12.2-44.7-4.3c8.1,2.6,16.9,3.5,23.1,12.1c-3.5,0.7-6.1,1.6-8.7,1.6c-3.1,0-6.2-0.3-9.2-0.9
	c-4.4-0.9-7.4-0.3-9.9,4.1c-3.2,5.4-10.7,6.2-15.9,2c-2.4-2-4.2-2.2-7-0.8c-2.9,1.4-6,2.4-9.2,3c-8.8,1.9-15-2.3-19.7-12.9
	c-0.6-1.2-0.9-2.6-1.6-3.8c-3.6-6.6-3.2-6.9,4.4-8.6c14.9-3.4,29.7-7.4,44.7-10.6c8.8-1.8,17.7-3.2,26.6-4
	c8.6-0.9,24.7,7.4,26.1,16.9C405.3,212.2,405.6,213.6,406.1,216.9z"/>
</svg>
